SplineFontDB: 3.2
FontName: suno-toki
FullName: suno toki
FamilyName: suno-toki
Weight: Regular
Copyright: Copyright (c) 2024, Ret Samys
UComments: "2024-8-8: Created with FontForge (http://fontforge.org)"
Version: 001.000
ItalicAngle: 0
UnderlinePosition: -100
UnderlineWidth: 50
Ascent: 800
Descent: 200
InvalidEm: 0
LayerCount: 2
Layer: 0 0 "Back" 1
Layer: 1 0 "Fore" 0
XUID: [1021 649 445791933 23011]
FSType: 0
OS2Version: 0
OS2_WeightWidthSlopeOnly: 0
OS2_UseTypoMetrics: 1
CreationTime: 1723117504
ModificationTime: 1723136734
PfmFamily: 17
TTFWeight: 400
TTFWidth: 5
LineGap: 90
VLineGap: 0
OS2TypoAscent: 0
OS2TypoAOffset: 1
OS2TypoDescent: 0
OS2TypoDOffset: 1
OS2TypoLinegap: 90
OS2WinAscent: 0
OS2WinAOffset: 1
OS2WinDescent: 0
OS2WinDOffset: 1
HheadAscent: 0
HheadAOffset: 1
HheadDescent: 0
HheadDOffset: 1
OS2Vendor: 'PfEd'
Lookup: 4 0 1 "'liga' Standard Ligatures in Latin lookup 0" { "'liga' Standard Ligatures in Latin lookup 0-1"  } ['liga' ('DFLT' <'dflt' > 'latn' <'dflt' > ) ]
MarkAttachClasses: 1
DEI: 91125

StartChar: Tok.a
Encoding: 256 989440 0
Width: 700
VWidth: 1005
Flags: W
VStem: 243.32 42.8398<-32.0522 18.6202> 279.396 76.6348<160.807 252.617 525.199 680.535>
LayerCount: 2
Fore
SplineSet
307.998046875 155.528320312 m 0x40
 294.45703125 162.5390625 283.884765625 177.98828125 279.396484375 197.340820312 c 0x40
 273.384765625 223.262695312 271.375 318.0703125 275.72265625 370.458007812 c 0
 279.63671875 417.62890625 282.53515625 493.001953125 281.27734375 514.938476562 c 0
 279.5234375 545.48828125 283.0234375 652.580078125 286.16015625 664.392578125 c 0x80
 293.4453125 691.8046875 317.080078125 700.951171875 332.689453125 682.3984375 c 0
 340.5859375 673.016601562 343.5625 657.830078125 349.21484375 598.09765625 c 0
 352.14453125 567.14453125 355.197265625 535.391601562 356 527.537109375 c 0
 357.958984375 508.399414062 357.978515625 299.989257812 356.03125 250.336914062 c 0
 353.53515625 186.844726562 346.78125 165.24609375 326.546875 156.055664062 c 0
 318.21484375 152.271484375 314.5 152.162109375 307.998046875 155.528320312 c 0x40
316.392578125 -34.3115234375 m 0
 321.47265625 -31.90234375 334.83203125 -14.4638671875 337.89453125 -6.2470703125 c 0
 339.4609375 -2.04296875 331.412109375 22.3583984375 327.201171875 26.1689453125 c 0
 318.37109375 34.1572265625 301.029296875 26.8486328125 291.240234375 11.0166015625 c 0
 286.732421875 3.7236328125 286.16015625 1.3408203125 286.16015625 -10.2255859375 c 0x80
 286.16015625 -20.828125 286.81640625 -24.1396484375 289.681640625 -27.9990234375 c 0
 296.318359375 -36.9365234375 306.025390625 -39.2333984375 316.392578125 -34.3115234375 c 0
418.880859375 -90.0244140625 m 0
 401.27734375 -84.443359375 385.958984375 -72.466796875 374.083984375 -55.0009765625 c 0
 365.40234375 -42.2353515625 361.74609375 -42.0947265625 352.814453125 -54.1845703125 c 0
 348.658203125 -59.8095703125 342.98828125 -64.8486328125 337.22265625 -68.0439453125 c 0
 328.705078125 -72.7607421875 327.052734375 -73.0615234375 309.6796875 -73.0615234375 c 0
 289.75390625 -73.0615234375 282.548828125 -70.9521484375 267.802734375 -60.8046875 c 0
 254.630859375 -51.7373046875 243.3203125 -27.1416015625 243.3203125 -7.5595703125 c 0
 243.3203125 2.8544921875 248.357421875 23.9365234375 253.515625 35.0927734375 c 0
 260.375 49.9443359375 280.23828125 69.6357421875 296.2265625 77.4423828125 c 0
 306.689453125 82.5478515625 309.447265625 83.1708984375 321.427734375 83.1025390625 c 0
 353.615234375 82.9208984375 371.50390625 65.6083984375 397.18359375 9.7861328125 c 0
 412.65234375 -23.8466796875 420.5 -34.9267578125 439.654296875 -50.2021484375 c 0
 455.5546875 -62.8828125 456.6796875 -64.3759765625 456.6796875 -72.8251953125 c 0
 456.6796875 -80.0341796875 452.626953125 -85.3759765625 444.279296875 -89.1669921875 c 0
 436.3046875 -92.7861328125 428.4296875 -93.0537109375 418.880859375 -90.0244140625 c 0
EndSplineSet
Validated: 33
Ligature2: "'liga' Standard Ligatures in Latin lookup 0-1" a
EndChar

StartChar: Tok.akesi
Encoding: 257 989441 1
Width: 700
VWidth: 959
Flags: W
HStem: -67.4248 54.8926<331.01 400.18> 37.4756 81.1836<312.452 409.572> 59.2959 67.6182<490.897 554.186> 68.5625 57.5996<490.897 554.52> 198.093 100.352<270.789 415.39> 207.458 90.8633<492.358 606.476> 392.556 68.3213<157.332 202.14> 393.037 75.0928<314.93 376.1> 546.433 89.0645<413.58 509.042> 563.225 75.6602<181.115 242.851>
VStem: 193.163 69.874<300.431 387.814> 402.005 119.834<559.819 630.041> 417.607 73.2061<126.914 199.282 298.694 390.87>
LayerCount: 2
Fore
SplineSet
205.495117188 563.224609375 m 0x8060
 196.560546875 565.354492188 187.71875 570.778320312 182.33203125 577.4296875 c 0
 177.611328125 583.264648438 177.205078125 584.791992188 177.205078125 596.631835938 c 0
 177.205078125 607.001953125 178.0078125 611.073242188 181.357421875 617.631835938 c 0
 188.231445312 631.084960938 199.900390625 638.857421875 213.271484375 638.884765625 c 0
 215.971679688 638.884765625 220.36328125 641.790039062 225.870117188 647.197265625 c 0
 230.518554688 651.763671875 238.813476562 658.189453125 244.306640625 661.477539062 c 0
 252.701171875 666.504882812 255.841796875 667.456054688 264.099609375 667.456054688 c 0
 279.286132812 667.456054688 295.565429688 659.135742188 302.572265625 647.795898438 c 0
 306.749023438 641.041992188 306.106445312 631.091796875 300.532226562 616.200195312 c 0
 293.842773438 598.317382812 263.525390625 571.05859375 243.342773438 564.776367188 c 0
 232.958984375 561.545898438 215.541015625 560.83203125 205.495117188 563.224609375 c 0x8060
454.40234375 546.432617188 m 0x80b0
 422.515625 553.315429688 399.475585938 575.481445312 402.004882812 596.840820312 c 0
 403.1875 606.817382812 407.6953125 615.967773438 415.194335938 623.610351562 c 0
 421.538085938 630.069335938 432.11328125 635.442382812 438.600585938 635.497070312 c 0
 440.997070312 635.53515625 447.655273438 638.690429688 453.397460938 642.545898438 c 0
 466.043945312 651.036132812 476.352539062 652.5703125 491.380859375 648.202148438 c 0
 499.150390625 645.942382812 503.067382812 643.420898438 510.78515625 635.702148438 c 0
 523.735351562 622.751953125 525.735351562 616.244140625 521.838867188 599.725585938 c 0
 513.877929688 565.948242188 496.614257812 547.337890625 471.717773438 545.68359375 c 0
 465.889648438 545.297851562 458.100585938 545.631835938 454.40234375 546.432617188 c 0x80b0
361.365234375 469.216796875 m 0
 385.584960938 469.216796875 385.998046875 469.547851562 375.62109375 480.701171875 c 0
 368.426757812 488.432617188 358.934570312 492.951171875 347.7578125 493.965820312 c 0
 334.502929688 495.166015625 325.96484375 490.647460938 319.201171875 478.852539062 c 0
 316.42578125 474.012695312 314.149414062 469.377929688 314.138671875 468.549804688 c 0
 314.138671875 467.696289062 319.703125 467.514648438 326.9765625 468.129882812 c 0x8120
 334.044921875 468.727539062 349.521484375 469.216796875 361.365234375 469.216796875 c 0
371.05859375 298.444335938 m 2x8920
 415.389648438 298.444335938 l 1
 414.401367188 317.889648438 l 2
 413.400390625 337.559570312 404.407226562 387.981445312 401.35546875 391.047851562 c 0
 400.384765625 392.025390625 377.614257812 392.825195312 344.747070312 393.037109375 c 0
 298.037109375 393.337890625 289.170898438 393.002929688 285.828125 390.842773438 c 0
 281.223632812 387.862304688 276.353515625 377.420898438 268.70703125 354.137695312 c 0
 263.942382812 339.627929688 263.166992188 334.890625 263.037109375 319.420898438 c 0
 262.951171875 309.567382812 263.37890625 301.008789062 263.987304688 300.396484375 c 0
 266.325195312 298.047851562 288.927734375 296.520507812 307.40234375 297.463867188 c 0
 318.028320312 298.00390625 346.674804688 298.444335938 371.05859375 298.444335938 c 2x8920
401.064453125 120.846679688 m 2
 413.24609375 121.944335938 l 1
 414.83203125 127.997070312 l 2
 415.70703125 131.330078125 416.955078125 148.731445312 417.607421875 166.668945312 c 2
 418.793945312 199.282226562 l 1
 389.559570312 198.092773438 l 2
 373.478515625 197.436523438 349.740234375 196.1484375 336.803710938 195.232421875 c 0
 323.866210938 194.313476562 303.833984375 192.891601562 292.284179688 192.07421875 c 0
 280.735351562 191.256835938 270.997070312 190.532226562 270.645507812 190.4609375 c 0
 269.17578125 190.166992188 272.525390625 169.532226562 275.40625 161.165039062 c 0
 277.122070312 156.174804688 279.83984375 146.19140625 281.442382812 138.979492188 c 0
 283.452148438 129.942382812 285.650390625 124.576171875 288.510742188 121.715820312 c 2
 292.657226562 117.569335938 l 1
 340.771484375 118.659179688 l 2xc828
 367.233398438 119.260742188 394.365234375 120.245117188 401.064453125 120.846679688 c 2
386.357421875 -7.822265625 m 0
 392.403320312 -4.4794921875 395.014648438 -1.4716796875 399.444335938 7.244140625 c 0
 404.46875 17.142578125 411.575195312 44.7255859375 409.602539062 46.6943359375 c 0
 409.155273438 47.1416015625 395.99609375 45.2548828125 380.35546875 42.50390625 c 0
 364.717773438 39.7490234375 347.686523438 37.486328125 342.51171875 37.4755859375 c 0
 323.879882812 37.4345703125 312.443359375 35.5380859375 312.443359375 32.4853515625 c 0
 312.443359375 29.2451171875 326.67578125 1.2119140625 330.7265625 -3.5224609375 c 0
 336.724609375 -10.5322265625 345.864257812 -13.099609375 362.844726562 -12.5322265625 c 0
 376.072265625 -12.0947265625 380.095703125 -11.2880859375 386.357421875 -7.822265625 c 0
352.46484375 -65.7392578125 m 0
 316.576171875 -60.0625 282.690429688 -41.3388671875 263.040039062 -16.3330078125 c 0
 255.0390625 -6.1435546875 238.403320312 23.4423828125 235.169921875 33.2412109375 c 0
 233.540039062 38.169921875 232.278320312 39.0859375 224.581054688 40.8935546875 c 0
 211.059570312 44.0732421875 203.530273438 47.4326171875 188.938476562 56.791015625 c 0
 162.763671875 73.5830078125 158.26953125 85.7919921875 173.079101562 99.8818359375 c 0
 177.916015625 104.478515625 183.466796875 107.3359375 194.373046875 110.838867188 c 2
 209.125 115.577148438 l 1
 209.630859375 122.536132812 l 2
 210.571289062 135.431640625 200.7890625 179.553710938 196.475585938 181.877929688 c 0
 195.115234375 182.610351562 184.553710938 183.583984375 173.00390625 184.045898438 c 0
 151.59765625 184.896484375 128.827148438 189.528320312 108.329101562 197.198242188 c 0
 97.6171875 201.204101562 87.2880859375 211.819335938 84.259765625 221.930664062 c 0
 81.0712890625 232.573242188 81.734375 253.2421875 85.4970703125 260.54296875 c 0
 89.837890625 268.96484375 98.345703125 276.826171875 107.485351562 280.862304688 c 0
 115.151367188 284.247070312 149.255859375 290.993164062 177.625 294.733398438 c 2
 193.163085938 296.780273438 l 1
 193.163085938 315.032226562 l 2
 193.163085938 325.071289062 194.243164062 337.977539062 195.5625 343.708984375 c 0
 196.881835938 349.444335938 198.840820312 360.938476562 199.916992188 369.254882812 c 0
 200.994140625 377.571289062 202.23828125 385.965820312 202.682617188 387.91015625 c 0
 203.416992188 391.143554688 202.555664062 391.543945312 192.66796875 392.555664062 c 0
 176.346679688 394.2265625 165.173828125 398.147460938 157.83203125 404.784179688 c 0
 136.452148438 424.099609375 159.55078125 454.909179688 199.8828125 460.876953125 c 0
 224.745117188 464.5546875 224.02734375 464.114257812 232.774414062 481.053710938 c 0
 246.250976562 507.145507812 269.4765625 528.856445312 299.124023438 543.072265625 c 0
 330.640625 558.186523438 357.393554688 558.436523438 386.904296875 543.895507812 c 0
 409.958007812 532.538085938 417.932617188 525.61328125 431.303710938 505.331054688 c 0
 440.18359375 491.868164062 444.014648438 484.32421875 445.43359375 477.526367188 c 2
 447.377929688 468.194335938 l 1
 464.875 466.356445312 l 2
 487.645507812 463.963867188 501.805664062 457.534179688 508.149414062 446.709960938 c 0
 518.13671875 429.666992188 509.041992188 414.840820312 483.198242188 406.036132812 c 0
 475.514648438 403.416992188 475.40234375 403.274414062 475.40234375 396.014648438 c 0
 475.40234375 391.967773438 477.64453125 382.020507812 480.37890625 373.913085938 c 0
 483.865234375 363.587890625 486.141601562 351.881835938 487.973632812 334.815429688 c 0
 489.412109375 321.416992188 490.98828125 307.809570312 491.473632812 304.577148438 c 2
 492.358398438 298.694335938 l 1
 542.670898438 298.321289062 l 2
 598.561523438 297.908203125 598.626953125 297.897460938 608.029296875 286.549804688 c 0
 622.778320312 268.752929688 620.416015625 237.666992188 603.469726562 226.547851562 c 0
 591.12109375 218.440429688 558.919921875 211.4609375 515.395507812 207.458007812 c 0
 505.794921875 206.577148438 497.461914062 204.884765625 495.099609375 203.336914062 c 2
 491.090820312 200.711914062 l 1
 490.950195312 163.811523438 l 1
 490.813476562 126.9140625 l 1xa628
 509.08984375 126.162109375 l 2
 525.143554688 125.502929688 528.53125 124.811523438 536.969726562 120.491210938 c 0
 549.3359375 114.165039062 557.908203125 102.813476562 559.015625 91.3125 c 0
 559.689453125 84.2822265625 559.193359375 82.6416015625 554.975585938 77.9658203125 c 0
 551.80078125 74.4482421875 546.154296875 71.2529296875 538.368164062 68.5625 c 0x9028
 525.919921875 64.2587890625 500.640625 59.2958984375 491.189453125 59.2958984375 c 0xa028
 484.845703125 59.2958984375 485.669921875 61.26171875 475.627929688 22.1630859375 c 0
 468.8125 -4.3837890625 463.186523438 -15.8955078125 447.306640625 -35.8017578125 c 0
 433.302734375 -53.3564453125 429.334960938 -56.9287109375 416.729492188 -63.3095703125 c 0
 410.306640625 -66.5595703125 406.318359375 -67.1201171875 387.331054688 -67.4248046875 c 0
 375.249023438 -67.623046875 359.560546875 -66.8603515625 352.46484375 -65.7392578125 c 0
EndSplineSet
Validated: 33
Ligature2: "'liga' Standard Ligatures in Latin lookup 0-1" a k e s i
EndChar

StartChar: Tok.ala
Encoding: 258 989442 2
Width: 700
VWidth: 993
Flags: W
VStem: 116.434 63.0957<623.802 666.91> 277.078 142.591<289.433 359.988>
LayerCount: 2
Fore
SplineSet
536.634765625 -76.0107421875 m 0
 522.169921875 -72.7705078125 517.668945312 -70.0087890625 503.53515625 -55.7216796875 c 0
 487.0234375 -39.0283203125 465.661132812 -9.951171875 454.094726562 11.5712890625 c 0
 449.78125 19.5966796875 437.401367188 42.421875 426.583007812 62.287109375 c 0
 408.46484375 95.560546875 380.499023438 150.231445312 360.421875 191.640625 c 0
 351.989257812 209.02734375 347.703125 213.668945312 343.389648438 210.086914062 c 0
 342.094726562 209.013671875 331.809570312 194.408203125 320.530273438 177.629882812 c 0
 309.250976562 160.854492188 295.75390625 141.45703125 290.53125 134.525390625 c 0
 263.748046875 98.978515625 255.8046875 87.8193359375 239.706054688 63.1279296875 c 0
 230.067382812 48.341796875 217.813476562 28.30859375 212.478515625 18.60546875 c 0
 200.2109375 -3.7001953125 190.931640625 -16.6474609375 178.520507812 -28.77734375 c 0
 166.708007812 -40.3271484375 155.934570312 -45.474609375 143.572265625 -45.474609375 c 0
 126.263671875 -45.474609375 115.729492188 -35.75 112.311523438 -16.6171875 c 0
 109.73046875 -2.193359375 110.7421875 3.8740234375 120.924804688 35.1796875 c 0
 127.466796875 55.287109375 156.08203125 118.919921875 166.732421875 137.048828125 c 0
 169.44921875 141.666015625 181.911132812 165.103515625 194.431640625 189.127929688 c 0
 215.787109375 230.102539062 227.127929688 248.491210938 265.190429688 303.85546875 c 0
 271.728515625 313.3671875 277.078125 322.53125 277.078125 324.22265625 c 0
 277.078125 329.03515625 271.124023438 341.3984375 254.19140625 371.756835938 c 0
 236.74609375 403.02734375 193.857421875 472.416015625 176.004882812 498.24609375 c 0
 165.450195312 513.520507812 133.202148438 568.604492188 127.890625 580.43359375 c 0
 126.6875 583.110351562 124.561523438 591.419921875 123.166992188 598.89453125 c 0
 121.772460938 606.369140625 118.740234375 618.52734375 116.43359375 625.9140625 c 0
 108.315429688 651.876953125 109.696289062 665.961914062 121.194335938 674.38671875 c 0
 125.381835938 677.45703125 126.516601562 677.55859375 135.180664062 675.6171875 c 0
 140.366210938 674.458984375 151.204101562 670.20703125 159.263671875 666.173828125 c 0
 170.877929688 660.359375 175.08203125 657.21484375 179.529296875 651.021484375 c 0
 182.615234375 646.725585938 189.047851562 638.563476562 193.823242188 632.88671875 c 0
 214.272460938 608.57421875 230.559570312 585.475585938 251.388671875 551.251953125 c 0
 257.263671875 541.595703125 267.319335938 526.853515625 273.735351562 518.490234375 c 0
 290.346679688 496.830078125 314.908203125 463.716796875 328.952148438 444.046875 c 0
 335.580078125 434.767578125 342.2109375 426.7109375 343.690429688 426.140625 c 0
 347.682617188 424.609375 349.760742188 426.9609375 366.481445312 451.91796875 c 0
 404.643554688 508.87890625 431.34765625 546.216796875 441.666992188 557.048828125 c 0
 447.826171875 563.515625 459.62109375 576.3671875 467.872070312 585.60546875 c 0
 493.859375 614.703125 545.911132812 667.766601562 552.323242188 671.697265625 c 0
 562.717773438 678.068359375 568.671875 676.90234375 578.720703125 666.529296875 c 0
 588.947265625 655.970703125 590.157226562 651.548828125 587.979492188 632.61328125 c 0
 584.866210938 605.521484375 571.16015625 570.443359375 549.2578125 533.525390625 c 0
 541.583984375 520.591796875 528.80078125 497.907226562 520.850585938 483.1171875 c 0
 512.900390625 468.33203125 501.76171875 449.809570312 496.09765625 441.958984375 c 0
 490.434570312 434.111328125 479.677734375 418.23828125 472.196289062 406.685546875 c 0
 464.713867188 395.135742188 450.221679688 373.408203125 439.9921875 358.399414062 c 0
 429.758789062 343.390625 420.615234375 328.892578125 419.668945312 326.177734375 c 0
 417.614257812 320.282226562 418.732421875 317.82421875 429.994140625 303.438476562 c 0
 449.127929688 278.993164062 471.481445312 238.333007812 493.189453125 188.485351562 c 0
 498.268554688 176.826171875 509.178710938 155.525390625 517.439453125 141.146484375 c 0
 534.32421875 111.765625 540.88671875 96.6103515625 555.608398438 53.048828125 c 0
 570.490234375 9.00390625 572.999023438 -1.392578125 573.997070312 -23.185546875 c 0
 575.063476562 -46.431640625 572.9609375 -57.30078125 565.694335938 -66.119140625 c 0
 557.994140625 -75.4609375 548.540039062 -78.6767578125 536.634765625 -76.0107421875 c 0
EndSplineSet
Validated: 33
Ligature2: "'liga' Standard Ligatures in Latin lookup 0-1" a l a
EndChar

StartChar: Tok.alasa
Encoding: 259 989443 3
Width: 700
VWidth: 4901
Flags: W
HStem: 229.471 124.247<255.362 388.572>
VStem: 179.243 86.6865<352.761 503.771> 417.742 90.1758<333.842 455.998>
LayerCount: 2
Fore
SplineSet
416.733398438 361.698242188 m 2
 415.185546875 405.083007812 409.876953125 429.75 396.79296875 454.389648438 c 0
 378.44921875 488.942382812 352.807617188 508.69140625 323.149414062 511.118164062 c 0
 310.7734375 512.125976562 283.75390625 508.032226562 275.8515625 503.944335938 c 0
 268.844726562 500.321289062 266.045898438 492.438476562 265.9296875 475.991210938 c 0
 265.81640625 460.221679688 263.11328125 433.270507812 257.439453125 391.297851562 c 0
 252.404296875 354.069335938 252.520507812 353.717773438 269.962890625 353.717773438 c 0
 276.788085938 353.717773438 286.362304688 352.961914062 291.243164062 352.036132812 c 0
 296.124023438 351.109375 312.291015625 348.883789062 327.172851562 347.08984375 c 0
 342.0546875 345.291992188 362.920898438 341.946289062 373.547851562 339.649414062 c 0
 395.73046875 334.856445312 400.146484375 334.15625 410.345703125 333.811523438 c 2
 417.7421875 333.557617188 l 1
 416.733398438 361.698242188 l 2
276.801757812 81.390625 m 0
 314.669921875 98.7099609375 344.139648438 130.732421875 370.697265625 183.426757812 c 0
 375.690429688 193.3359375 386.166992188 221.338867188 387.841796875 229.251953125 c 2
 389.0546875 234.983398438 l 1
 353.163085938 233.815429688 l 2
 333.420898438 233.172851562 313.866210938 231.948242188 309.709960938 231.094726562 c 0
 305.55078125 230.243164062 290.671875 229.51171875 276.6484375 229.470703125 c 0
 248.931640625 229.391601562 247.092773438 228.825195312 245.1484375 219.756835938 c 0
 243.408203125 211.631835938 240.755859375 190.481445312 239.197265625 172.278320312 c 0
 238.3671875 162.577148438 236.12109375 145.186523438 234.20703125 133.637695312 c 0
 232.29296875 122.088867188 230.24609375 106.451171875 229.658203125 98.8876953125 c 2
 228.591796875 85.1396484375 l 1
 233.951171875 79.77734375 l 2
 239.2421875 74.486328125 239.481445312 74.4287109375 252.250976562 75.2490234375 c 0
 261.967773438 75.8740234375 268.079101562 77.4013671875 276.801757812 81.390625 c 0
166.473632812 -21.6982421875 m 0
 143.439453125 -17.1259765625 139.013671875 -9.7763671875 135.065429688 30.4599609375 c 0
 133.77734375 43.5771484375 133.978515625 52.2900390625 135.951171875 69.099609375 c 0
 137.348632812 81.0322265625 139.170898438 99.1123046875 139.994140625 109.278320312 c 0
 144.393554688 163.497070312 148.727539062 211.21875 150.131835938 220.939453125 c 0
 151.006835938 226.979492188 151.73828125 232.765625 151.755859375 233.8046875 c 0
 151.790039062 234.840820312 148.6796875 236.186523438 144.87890625 236.795898438 c 0
 137.024414062 238.049804688 106.204101562 250.426757812 94.2822265625 257.112304688 c 0
 78.18359375 266.138671875 67.564453125 283.737304688 70.3017578125 296.848632812 c 0
 73.3916015625 311.645507812 86.5546875 325.221679688 108.532226562 336.291992188 c 0
 119.63671875 341.883789062 157.087890625 353.717773438 163.684570312 353.717773438 c 0
 165.868164062 353.717773438 166.952148438 354.9375 167.041015625 357.497070312 c 0
 167.809570312 379.608398438 170.349609375 415.569335938 171.7578125 424.278320312 c 0
 175.240234375 445.807617188 178.911132812 504.805664062 179.243164062 544.590820312 c 2
 179.584960938 585.103515625 l 1
 184.609375 594.991210938 l 2
 189.114257812 603.854492188 190.846679688 605.529296875 201.37109375 611.165039062 c 0
 224.702148438 623.661132812 231.130859375 624.768554688 274.208007812 623.715820312 c 0
 315.216796875 622.71484375 334.305664062 620.267578125 355.948242188 613.229492188 c 0
 388.719726562 602.573242188 404.309570312 591.827148438 435.809570312 558.169921875 c 0
 455.780273438 536.831054688 457.338867188 534.654296875 465.029296875 517.334960938 c 0
 469.497070312 507.272460938 476.715820312 491.858398438 481.073242188 483.077148438 c 0
 493.48046875 458.081054688 495.873046875 448.7265625 500.405273438 407.478515625 c 0
 501.676757812 395.928710938 503.877929688 381.1875 505.303710938 374.717773438 c 0
 506.759765625 368.103515625 507.904296875 354.7734375 507.91796875 344.243164062 c 0
 507.958984375 320.40234375 508.735351562 319.28125 526.969726562 316.840820312 c 0
 552.403320312 313.4296875 565.052734375 315.494140625 567.58203125 323.461914062 c 0
 569.233398438 328.657226562 567.114257812 333.379882812 557.403320312 346.157226562 c 0
 542.036132812 366.377929688 538.474609375 377.919921875 545.030273438 386.252929688 c 0
 547.727539062 389.680664062 549.990234375 390.678710938 555.055664062 390.678710938 c 0
 560.72265625 390.678710938 563.908203125 388.836914062 578.872070312 376.89453125 c 0
 613.3046875 349.424804688 627.612304688 330.922851562 629.946289062 310.862304688 c 0
 631.255859375 299.62109375 625.215820312 268.09375 620.198242188 259.979492188 c 0
 612.491210938 247.50390625 577.712890625 204.577148438 563.634765625 190.161132812 c 0
 544.271484375 170.329101562 535.350585938 166.706054688 523.569335938 173.891601562 c 0
 508.02734375 183.369140625 509.2890625 203.491210938 527.044921875 229.303710938 c 0
 533.65234375 238.907226562 534.708007812 244.024414062 530.42578125 245.668945312 c 0
 528.931640625 246.243164062 520.424804688 245.450195312 511.52734375 243.908203125 c 0
 502.630859375 242.366210938 493.798828125 241.116210938 491.905273438 241.1328125 c 0
 489.057617188 241.166992188 487.806640625 238.931640625 484.668945312 228.264648438 c 0
 463.836914062 157.458007812 436.017578125 108.7890625 390.606445312 63.7158203125 c 0
 374.514648438 47.744140625 341.53125 20.0615234375 325.958984375 9.4599609375 c 0
 304.07421875 -5.439453125 268.55078125 -16.4931640625 225.709960938 -21.7333984375 c 0
 200.694335938 -24.7919921875 181.939453125 -24.78515625 166.473632812 -21.6982421875 c 0
EndSplineSet
Validated: 33
Ligature2: "'liga' Standard Ligatures in Latin lookup 0-1" a l a s a
EndChar

StartChar: Tok.ale
Encoding: 260 989444 4
Width: 700
VWidth: -1931
Flags: W
HStem: 135.539 326.59
VStem: 19.2627 85.5273<235.477 351.549>
LayerCount: 2
Fore
SplineSet
540.161132812 231.552734375 m 0
 562.134765625 238.942382812 588.2109375 252.447265625 595.997070312 260.47265625 c 0
 602.712890625 267.393554688 613.462890625 287.75390625 619.016601562 304.078125 c 0
 621.3203125 310.856445312 622.14453125 318.017578125 622.103515625 330.95703125 c 0
 622.00390625 363.206054688 615.329101562 375.223632812 590.227539062 388.33203125 c 0
 567.15625 400.379882812 541.083984375 405.561523438 523.6796875 401.55859375 c 0
 506.353515625 397.57421875 486.341796875 387.678710938 462.706054688 371.409179688 c 0
 421.735351562 343.204101562 399.990234375 321.025390625 388.765625 295.995117188 c 2
 385.528320312 288.779296875 l 1
 399.685546875 274.451171875 l 2
 407.46875 266.5703125 418.375 256.869140625 423.918945312 252.8984375 c 0
 460.549804688 226.6484375 502.604492188 218.926757812 540.161132812 231.552734375 c 0
212.674804688 218.404296875 m 0
 227.444335938 220.32421875 255.84765625 228.893554688 268.606445312 235.28125 c 0
 273.737304688 237.848632812 281.865234375 243.057617188 286.670898438 246.85546875 c 0
 291.4765625 250.65625 297.731445312 254.227539062 300.568359375 254.794921875 c 0
 308.463867188 256.374023438 307.099609375 259.548828125 281.9609375 298.12109375 c 0
 269.205078125 317.689453125 247.459960938 343.53515625 237.755859375 350.658203125 c 0
 229.59765625 356.650390625 204.7109375 368.20703125 188.055664062 373.740234375 c 0
 175.29296875 377.978515625 164.194335938 376.4921875 148.888671875 368.490234375 c 0
 133.254882812 360.321289062 122.663085938 349.759765625 116.041992188 335.74609375 c 0
 107.521484375 317.712890625 104.872070312 305.5078125 104.790039062 283.916015625 c 0
 104.725585938 266.091796875 105.081054688 263.859375 109.415039062 255.037109375 c 0
 117.228515625 239.123046875 135.788085938 224.265625 154.279296875 219.12109375 c 0
 163.34375 216.599609375 195.711914062 216.203125 212.674804688 218.404296875 c 0
126.559570312 141.69140625 m 0
 96.638671875 147.986328125 91.2548828125 149.6484375 77.40234375 156.876953125 c 0
 68.84375 161.34375 58.1796875 168.2890625 53.7021484375 172.31640625 c 0
 34.0625 189.97265625 19.2900390625 236.40234375 19.2626953125 280.556640625 c 0
 19.2626953125 303.979492188 20.7353515625 309.57421875 37.5146484375 349.274414062 c 0
 47.880859375 373.801757812 58.53125 389.620117188 75.3037109375 405.397460938 c 0
 94.078125 423.05859375 105.833007812 430.416992188 125.158203125 436.596679688 c 0
 155.00390625 446.142578125 164.328125 447.591796875 196.279296875 447.657226562 c 2
 225.680664062 447.71484375 l 1
 244.158203125 440.435546875 l 2
 269.590820312 430.416992188 281.024414062 424.0390625 292.361328125 413.545898438 c 0
 300.9375 405.609375 338.69921875 359.487304688 346.515625 347.3984375 c 0
 349.25390625 343.166015625 349.735351562 343.015625 353.211914062 345.295898438 c 0
 355.272460938 346.646484375 359.708984375 353.239257812 363.069335938 359.9453125 c 0
 367.54296875 368.876953125 372.90625 375.825195312 383.108398438 385.912109375 c 0
 400.888671875 403.490234375 400.345703125 403.08984375 434.0703125 423.444335938 c 0
 470.170898438 445.234375 481.146484375 450.405273438 506.955078125 457.794921875 c 0
 535.075195312 465.84375 546.125 466.544921875 575.120117188 462.12890625 c 0
 614.59765625 456.1171875 629.424804688 450.15234375 646.298828125 433.5 c 0
 663.173828125 416.840820312 669.629882812 400.345703125 677.552734375 353.635742188 c 0
 682.485351562 324.55859375 682.166992188 318.916015625 673.198242188 276.35546875 c 0
 669.23046875 257.51171875 666.205078125 247.767578125 661.21484375 237.71875 c 0
 651.500976562 218.158203125 639.166015625 200.845703125 624.471679688 186.158203125 c 0
 613.493164062 175.1796875 608.6875 171.833984375 592.497070312 163.904296875 c 0
 581.791992188 158.661132812 566.076171875 152.62109375 556.638671875 150.123046875 c 0
 541.72265625 146.171875 536.541015625 145.65625 510.438476562 145.495117188 c 0
 480.736328125 145.314453125 441.163085938 148.8515625 417.72265625 153.783203125 c 0
 388.458007812 159.939453125 362.454101562 174.455078125 343.149414062 195.411132812 c 0
 336.610351562 202.509765625 330.038085938 208.317382812 328.547851562 208.317382812 c 0
 327.057617188 208.317382812 322.463867188 203.969726562 318.344726562 198.658203125 c 0
 314.2265625 193.34375 308.323242188 186.58984375 305.2265625 183.646484375 c 0
 292.340820312 171.392578125 256.424804688 153.318359375 224.83984375 143.19140625 c 0
 206.13671875 137.193359375 201.450195312 136.35546875 181.999023438 135.5390625 c 0
 161.008789062 134.653320312 158.852539062 134.892578125 126.559570312 141.69140625 c 0
EndSplineSet
Validated: 33
Ligature2: "'liga' Standard Ligatures in Latin lookup 0-1" a l i
Ligature2: "'liga' Standard Ligatures in Latin lookup 0-1" a l e
EndChar

StartChar: Tok.anpa
Encoding: 261 989445 5
Width: 700
VWidth: 5948
Flags: W
HStem: 88.8369 110.991<293.726 394.951> 266.892 95.6562<159.144 479.629> 278.151 80.3457<161.95 487.051>
VStem: 85.2676 69.833<383.82 506.666> 276.944 125.487<106.347 188.733> 532.383 87.9951<402.606 495.965>
LayerCount: 2
Fore
SplineSet
113.643554688 269.338867188 m 0xdc
 107.016601562 271.147460938 99.2509765625 273.833984375 96.3935546875 275.313476562 c 0
 90.1826171875 278.5234375 81.8193359375 289.577148438 79.6484375 297.4453125 c 0
 77.87109375 303.884765625 79.9873046875 364.389648438 82.9609375 392.120117188 c 0
 84.0029296875 401.823242188 85.0419921875 424.500976562 85.267578125 442.520507812 c 0
 85.6435546875 472.076171875 86.060546875 476.249023438 89.5302734375 485.204101562 c 0
 94.076171875 496.924804688 104.702148438 508.350585938 113.869140625 511.375976562 c 0
 123.791992188 514.650390625 137.193359375 512.807617188 145.499023438 507.024414062 c 0
 156.501953125 499.368164062 158.958984375 492.625 158.826171875 470.44921875 c 0
 158.767578125 460.170898438 157.903320312 445.354492188 156.908203125 437.524414062 c 0
 155.9140625 429.693359375 155.100585938 415.631835938 155.100585938 406.2734375 c 0
 155.100585938 391.357421875 155.572265625 388.557617188 158.921875 383.588867188 c 0
 163.614257812 376.625976562 170.946289062 371.560546875 183.397460938 366.6796875 c 0
 192.072265625 363.278320312 196.198242188 362.916992188 230.702148438 362.547851562 c 0xdc
 251.490234375 362.321289062 272.282226562 361.706054688 276.899414062 361.169921875 c 0
 281.520507812 360.63671875 306.46875 359.43359375 332.342773438 358.497070312 c 0
 371.850585938 357.068359375 382.610351562 357.205078125 399.540039062 359.3515625 c 0
 410.627929688 360.756835938 428.7734375 362.653320312 439.861328125 363.573242188 c 0
 463.216796875 365.50390625 471.880859375 368.921875 492.795898438 384.459960938 c 0
 512.63671875 399.198242188 525.478515625 422.034179688 532.3828125 454.860351562 c 0
 539.043945312 486.530273438 564.4296875 513.071289062 583.953125 508.782226562 c 0
 591.065429688 507.219726562 604.956054688 492.799804688 611.741210938 479.934570312 c 0
 620.723632812 462.909179688 622.056640625 452.696289062 620.377929688 413.895507812 c 0
 618.18359375 363.217773438 613.719726562 336.642578125 603.88671875 315.680664062 c 0
 594.736328125 296.173828125 587.357421875 290.903320312 560.799804688 284.908203125 c 0
 552.494140625 283.03515625 540.408203125 279.569335938 533.94140625 277.208007812 c 0
 520.176757812 272.1796875 511.030273438 271.810546875 494.15234375 275.59765625 c 0
 483.666015625 277.952148438 470.766601562 278.325195312 406.262695312 278.151367188 c 0xbc
 331.1875 277.94921875 271.266601562 275.416992188 218.100585938 270.204101562 c 0
 204.240234375 268.846679688 177.782226562 267.356445312 159.30078125 266.891601562 c 0
 129.509765625 266.147460938 124.334960938 266.423828125 113.643554688 269.338867188 c 0xdc
331.962890625 88.8369140625 m 0
 309.629882812 95.12890625 289.611328125 110.034179688 281.606445312 126.341796875 c 0
 277.624023438 134.446289062 276.90625 137.987304688 276.944335938 149.362304688 c 0
 276.995117188 166.3046875 281.510742188 177.217773438 292.844726562 187.821289062 c 0
 301.953125 196.341796875 307.640625 198.276367188 328.141601562 199.828125 c 0
 360.787109375 202.299804688 393.216796875 188.127929688 402.431640625 167.368164062 c 0
 407.6640625 155.583007812 408.204101562 139.313476562 403.83984375 124.944335938 c 0
 400.6640625 114.48828125 398.743164062 111.354492188 390.591796875 103.318359375 c 0
 384.405273438 97.2177734375 378.116210938 92.845703125 372.661132812 90.8603515625 c 0
 361.15234375 86.666015625 342.893554688 85.7607421875 331.962890625 88.8369140625 c 0
EndSplineSet
Validated: 33
Ligature2: "'liga' Standard Ligatures in Latin lookup 0-1" a n p a
EndChar

StartChar: Tok.ante
Encoding: 262 989446 6
Width: 700
VWidth: 5884
Flags: W
LayerCount: 2
Fore
SplineSet
349.303710938 366.807617188 m 0
 339.712890625 369.883789062 279.765625 401.032226562 269.193359375 408.431640625 c 0
 254.6328125 418.620117188 210.698242188 446.040039062 187.678710938 459.297851562 c 0
 160.116210938 475.174804688 150.798828125 481.969726562 119.96875 508.684570312 c 0
 100.506835938 525.547851562 78.7958984375 550.455078125 73.8154296875 561.635742188 c 0
 64.32421875 582.939453125 80.15625 614.637695312 103.708984375 621.483398438 c 0
 111.51953125 623.752929688 113.290039062 623.692382812 124.890625 620.725585938 c 0
 149.072265625 614.538085938 154.47265625 610.813476562 172.872070312 587.590820312 c 0
 179.499023438 579.231445312 189.155273438 569.657226562 196.670898438 564.00390625 c 0
 203.623046875 558.767578125 215.275390625 549.508789062 222.55859375 543.424804688 c 0
 249.181640625 521.190429688 287.305664062 499.1171875 311.04296875 492.185546875 c 0
 329.490234375 486.801757812 355.829101562 490.077148438 372.9765625 499.885742188 c 0
 378.975585938 503.321289062 396.2734375 519.255859375 423.521484375 546.456054688 c 0
 503.622070312 626.413085938 535.7265625 647.750976562 572.387695312 645.395507812 c 0
 594.328125 643.991210938 602.114257812 635.412109375 603.23828125 611.411132812 c 0
 604.475585938 585.006835938 599.666992188 575.296875 564.0859375 532.364257812 c 0
 553.3671875 519.426757812 538.672851562 501.66015625 531.43359375 492.8828125 c 0
 519.744140625 478.705078125 475.836914062 436.404296875 440.51953125 405.293945312 c 0
 422.420898438 389.352539062 406.264648438 377.676757812 393.819335938 371.551757812 c 0
 384.594726562 367.008789062 380.834960938 366.151367188 368.4921875 365.758789062 c 0
 360.521484375 365.508789062 351.884765625 365.98046875 349.303710938 366.807617188 c 0
152.483398438 -43.7724609375 m 0
 136.846679688 -39.8759765625 128.985351562 -34.4306640625 124.12109375 -24.1396484375 c 0
 117.114257812 -9.2958984375 117.1796875 -8.2119140625 126.244140625 10.3232421875 c 0
 136.142578125 30.5654296875 143.938476562 39.4853515625 204.8671875 100.297851562 c 0
 288.484375 183.754882812 287.654296875 183.0234375 316.201171875 198.493164062 c 0
 348.04296875 215.750976562 374.087890625 220.56640625 400.884765625 214.157226562 c 0
 420.708984375 209.420898438 467.579101562 187.245117188 492.000976562 171.053710938 c 0
 516.42578125 154.862304688 525.780273438 146.112304688 551.172851562 115.723632812 c 0
 562.755859375 101.864257812 577.279296875 84.8525390625 583.452148438 77.9248046875 c 0
 600.008789062 59.333984375 620.57421875 27.2353515625 624.946289062 13.1669921875 c 0
 633.220703125 -13.4794921875 629.173828125 -26.1015625 609.073242188 -36.3720703125 c 0
 602.1171875 -39.9267578125 598.805664062 -40.4912109375 585.840820312 -40.34765625 c 0
 567.961914062 -40.1455078125 553.654296875 -35.8388671875 528.279296875 -23.0224609375 c 0
 513.051757812 -15.3310546875 510.057617188 -12.8974609375 485.038085938 12.15234375 c 0
 470.255859375 26.9560546875 450.978515625 46.5341796875 442.201171875 55.6591796875 c 0
 426.177734375 72.3154296875 385.155273438 104.516601562 374.046875 109.161132812 c 0
 367.330078125 111.963867188 356.909179688 112.219726562 350.329101562 109.7421875 c 0
 342.0234375 106.611328125 315.493164062 85.2080078125 309.501953125 76.8037109375 c 0
 306.319335938 72.3359375 296.458984375 61.125 287.592773438 51.8828125 c 0
 278.7265625 42.6435546875 263.266601562 26.0126953125 253.23828125 14.9248046875 c 0
 223.009765625 -18.5029296875 188.970703125 -42.8974609375 169.012695312 -45.43359375 c 0
 165.420898438 -45.8876953125 157.979492188 -45.1435546875 152.483398438 -43.7724609375 c 0
EndSplineSet
Validated: 33
Ligature2: "'liga' Standard Ligatures in Latin lookup 0-1" a n t e
EndChar

StartChar: Tok.anu
Encoding: 263 989447 7
Width: 700
VWidth: -964
Flags: W
VStem: 287.607 122.202<-47.3496 317.418>
LayerCount: 2
Fore
SplineSet
329.060546875 -65.810546875 m 0
 310.186523438 -60.0244140625 294.046875 -39.7353515625 287.607421875 -13.70703125 c 0
 285.795898438 -6.3857421875 284.376953125 12.3408203125 283.16015625 44.9287109375 c 0
 281.499023438 89.59765625 281.6328125 95.5693359375 285.163085938 133.9765625 c 0
 288.7109375 172.538085938 288.833984375 178.229492188 287.131835938 223.85546875 c 0
 284.14453125 303.788085938 279.373046875 318.467773438 244.465820312 355.112304688 c 0
 233.114257812 367.030273438 218.19140625 384.705078125 211.30078125 394.395507812 c 0
 192.013671875 421.509765625 151.640625 475.721679688 137.497070312 493.489257812 c 0
 112.7265625 524.609375 83.0830078125 570.741210938 69.0693359375 599.975585938 c 0
 62.3251953125 614.047851562 59.201171875 627.162109375 60.6982421875 635.129882812 c 0
 62.2705078125 643.524414062 74.8486328125 656.909179688 86.5693359375 662.665039062 c 0
 95.353515625 666.977539062 97.609375 667.346679688 113.786132812 667.127929688 c 0
 134.721679688 666.844726562 152.853515625 662.544921875 168.125 654.243164062 c 0
 173.8125 651.153320312 184.514648438 645.356445312 191.907226562 641.364257812 c 0
 207.08984375 633.1640625 214.828125 626.489257812 226.022460938 611.928710938 c 0
 230.284179688 606.383789062 239.471679688 595.34765625 246.44140625 587.401367188 c 0
 260.489257812 571.377929688 275.227539062 547.762695312 292.163085938 514.129882812 c 0
 304.727539062 489.185546875 319.916992188 465.389648438 327.176757812 459.282226562 c 0
 337.451171875 450.637695312 365.642578125 449.110351562 383.56640625 456.225585938 c 0
 394.579101562 460.600585938 418.559570312 474.645507812 434.935546875 486.317382812 c 0
 453.409179688 499.483398438 460.317382812 508.834960938 489.25 559.834960938 c 0
 513.159179688 601.971679688 521.693359375 614.440429688 537.119140625 629.749023438 c 0
 554.161132812 646.665039062 570.62890625 655.189453125 586.26953125 655.189453125 c 0
 600.474609375 655.189453125 607.12890625 651.56640625 623.008789062 635.190429688 c 0
 635.251953125 622.568359375 635.874023438 621.540039062 637.709960938 610.950195312 c 0
 643.841796875 575.578125 636.106445312 548.706054688 607.037109375 504.409179688 c 0
 595.364257812 486.622070312 588.83984375 479.284179688 551.618164062 442.061523438 c 0
 528.413085938 418.860351562 505.16796875 396.938476562 499.961914062 393.342773438 c 0
 451.419921875 359.829101562 429.0703125 339.225585938 418.874023438 318.594726562 c 0
 406.555664062 293.666992188 402.283203125 257.146484375 406.706054688 214.610351562 c 0
 410.85546875 174.715820312 412.858398438 128.747070312 413.227539062 65.0869140625 c 0
 413.552734375 9.6787109375 413.3984375 6.5380859375 409.809570312 -6.310546875 c 0
 401.975585938 -34.3681640625 389.110351562 -51.4248046875 368.50390625 -61.06640625 c 0
 356.475585938 -66.6962890625 338.856445312 -68.8154296875 329.060546875 -65.810546875 c 0
EndSplineSet
Validated: 33
Ligature2: "'liga' Standard Ligatures in Latin lookup 0-1" a n u
EndChar

StartChar: Tok.awen
Encoding: 264 989448 8
Width: 700
VWidth: -922
Flags: W
HStem: -37.958 57.375<55.0775 180.798>
VStem: 419.044 95.0264<238.332 453.56>
LayerCount: 2
Fore
SplineSet
77.7294921875 -37.9580078125 m 0
 58.0078125 -35.6337890625 51.98828125 -32.9267578125 50.416015625 -25.68359375 c 0
 48.0849609375 -14.9541015625 59.060546875 12.0126953125 68.767578125 19.4169921875 c 0
 78.73046875 27.0185546875 86.33203125 27.7529296875 113.627929688 23.7568359375 c 0
 144.7421875 19.201171875 146.19140625 19.228515625 159.900390625 24.6123046875 c 0
 177.98828125 31.7109375 178.26171875 32.0966796875 192.911132812 71.2705078125 c 0
 202.891601562 97.9482421875 216.2421875 153.333007812 218.258789062 176.393554688 c 0
 218.864257812 183.321289062 221.899414062 204.11328125 224.999023438 222.590820312 c 0
 228.102539062 241.071289062 231.103515625 265.264648438 231.670898438 276.352539062 c 0
 233.6640625 315.29296875 236.248046875 343.713867188 239.313476562 360.352539062 c 0
 241.015625 369.590820312 243.637695312 386.22265625 245.141601562 397.310546875 c 0
 249.174804688 427.063476562 269.138671875 524.623046875 273.073242188 533.799804688 c 0
 282.486328125 555.760742188 318.870117188 609.700195312 331.356445312 620.206054688 c 0
 349.21875 635.235351562 393.283203125 643.930664062 419.850585938 637.668945312 c 0
 436.014648438 633.858398438 453.565429688 625.045898438 468.2734375 613.356445312 c 0
 488.900390625 596.967773438 498.880859375 578.3671875 503.078125 548.510742188 c 0
 504.1171875 541.122070312 506.373046875 528.645507812 508.092773438 520.791992188 c 0
 512.426757812 500.984375 513.36328125 488.909179688 514.0703125 443.510742188 c 0
 514.409179688 421.796875 515.916015625 393.069335938 517.419921875 379.670898438 c 0
 518.923828125 366.275390625 520.76953125 346.239257812 521.525390625 335.151367188 c 0
 522.27734375 324.063476562 525.5546875 300.625976562 528.80859375 283.071289062 c 0
 532.059570312 265.516601562 535.59375 242.834960938 536.66015625 232.670898438 c 0
 537.7265625 222.508789062 541.174804688 204.7421875 544.323242188 193.192382812 c 0
 552.153320312 164.451171875 570.6171875 114.8359375 575.983398438 108.109375 c 0
 578.403320312 105.077148438 585.478515625 99.5341796875 591.703125 95.7939453125 c 0
 597.926757812 92.0556640625 607.931640625 85.6328125 613.940429688 81.5205078125 c 0
 619.9453125 77.4130859375 627.666992188 72.15234375 631.1015625 69.8349609375 c 0
 638.809570312 64.6357421875 645.802734375 53.9208984375 648.71484375 42.8466796875 c 0
 653.903320312 23.1142578125 641.448242188 -4.6044921875 623.490234375 -13.296875 c 0
 614.842773438 -17.4833984375 604.8828125 -17.7294921875 581.178710938 -14.3388671875 c 0
 567.538085938 -12.3916015625 560.3359375 -12.2958984375 542.890625 -13.830078125 c 0
 526.354492188 -15.2822265625 517.262695312 -15.23828125 503.413085938 -13.6318359375 c 0
 476.534179688 -10.5107421875 470.614257812 -8.880859375 463.2109375 -2.5439453125 c 0
 449.84375 8.8994140625 438.010742188 42.1015625 440.153320312 62.1513671875 c 0
 440.795898438 68.1572265625 441.58203125 84.4130859375 441.896484375 98.2724609375 c 0
 442.416015625 120.974609375 441.896484375 126.637695312 436.810546875 155.393554688 c 0
 433.043945312 176.619140625 430.805664062 195.47265625 430.12890625 211.670898438 c 0
 429.236328125 233.032226562 427.244140625 255.680664062 420.677734375 319.192382812 c 0
 419.768554688 327.969726562 419.034179688 339.65625 419.043945312 345.159179688 c 0
 419.043945312 350.665039062 417.974609375 364.272460938 416.64453125 375.401367188 c 0
 415.318359375 386.526367188 413.404296875 406.973632812 412.389648438 420.833007812 c 0
 409.990234375 453.638671875 409.614257812 455.272460938 404.528320312 455.272460938 c 0
 397.490234375 455.272460938 389.669921875 450.924804688 380.848632812 442.102539062 c 0
 371.353515625 432.604492188 367.880859375 424.907226562 361.184570312 398.489257812 c 0
 358.874023438 389.380859375 354.211914062 374.051757812 350.825195312 364.418945312 c 0
 343.869140625 344.66015625 339.498046875 326.124023438 335.991210938 301.552734375 c 0
 334.674804688 292.310546875 327.572265625 256.025390625 320.213867188 220.913085938 c 0
 312.8515625 185.799804688 305.560546875 149.135742188 304.012695312 139.431640625 c 0
 302.463867188 129.731445312 299.0390625 113.854492188 296.404296875 104.151367188 c 0
 293.768554688 94.451171875 290.716796875 81.2197265625 289.625976562 74.7529296875 c 0
 287.538085938 62.3798828125 268.739257812 8.4111328125 261.557617188 -5.8388671875 c 0
 255.887695312 -17.0810546875 238.708984375 -34.7548828125 231.059570312 -37.2158203125 c 0
 222.080078125 -40.1005859375 100.885742188 -40.6884765625 77.7294921875 -37.9580078125 c 0
EndSplineSet
Validated: 33
Ligature2: "'liga' Standard Ligatures in Latin lookup 0-1" a w e n
EndChar

StartChar: Tok.e
Encoding: 265 989449 9
Width: 700
VWidth: 6876
Flags: W
HStem: 554.775 36.001<198.865 260.266>
VStem: 293.219 118.46<270.041 353.556>
LayerCount: 2
Fore
SplineSet
141.002929688 55.296875 m 0
 130.954101562 59.052734375 124.921875 64.392578125 120.341796875 73.580078125 c 0
 115.043945312 84.212890625 114.9140625 90.0302734375 119.658203125 104.474609375 c 0
 125.786132812 123.143554688 133.514648438 133.77734375 155.881835938 154.315429688 c 0
 217.100585938 210.5234375 247.818359375 240.896484375 266.200195312 263.389648438 c 0
 291.49609375 294.342773438 293.1953125 297.856445312 293.21875 319.359375 c 0
 293.21875 333.728515625 292.67578125 337.21484375 289.346679688 343.452148438 c 0
 282.77734375 355.759765625 255.23828125 381.046875 230.239257812 397.72265625 c 0
 217.763671875 406.044921875 201.131835938 418.715820312 193.27734375 425.879882812 c 0
 185.422851562 433.041015625 171.600585938 444.380859375 162.556640625 451.077148438 c 0
 143.060546875 465.517578125 137.192382812 473.293945312 137.192382812 484.689453125 c 0
 137.192382812 512.931640625 172.4140625 519.767578125 219.294921875 500.624023438 c 0
 249.52734375 488.275390625 300.475585938 462.23046875 325.798828125 446.171875 c 0
 344.697265625 434.192382812 352.390625 427.900390625 374.046875 406.71875 c 0
 407.70703125 373.796875 411.678710938 365.5078125 411.678710938 328.19140625 c 0
 411.678710938 302.224609375 403.448242188 277.37890625 388.720703125 258.877929688 c 0
 385.0390625 254.259765625 371.412109375 234.603515625 358.4375 215.19921875 c 0
 328.810546875 170.899414062 309.385742188 149.1171875 278.118164062 125.119140625 c 0
 258.369140625 109.963867188 182.920898438 61.6171875 173.48046875 58.068359375 c 0
 161.196289062 53.451171875 148.775390625 52.3916015625 141.002929688 55.296875 c 0
314.239257812 5.7265625 m 0
 301.223632812 9.126953125 288.4375 16.2705078125 284.4453125 22.365234375 c 0
 279.502929688 29.908203125 280.75390625 37.5849609375 288.875 49.509765625 c 0
 306.053710938 74.734375 342.8515625 112.99609375 397.138671875 162.078125 c 0
 423.283203125 185.712890625 456.4609375 220.67578125 470.501953125 239.381835938 c 0
 479.76171875 251.720703125 488.908203125 269.61328125 492.486328125 282.400390625 c 0
 493.953125 287.643554688 494.834960938 299.0078125 494.82421875 312.638671875 c 0
 494.82421875 336.974609375 495.213867188 335.713867188 478.770507812 363.125976562 c 0
 472.73046875 373.1953125 461.229492188 386.54296875 433.796875 415.325195312 c 0
 388.987304688 462.342773438 385.873046875 464.7734375 322.637695312 502.015625 c 0
 269.005859375 533.607421875 234.580078125 551.859375 223.129882812 554.775390625 c 0
 217.336914062 556.251953125 210.706054688 558.431640625 208.395507812 559.618164062 c 0
 192.768554688 567.63671875 194.822265625 582.83984375 212.599609375 590.776367188 c 0
 228.834960938 598.022460938 275.404296875 599.318359375 298.27734375 593.158203125 c 0
 303.821289062 591.665039062 322.34375 583.762695312 339.436523438 575.59765625 c 0
 356.533203125 567.427734375 376.186523438 558.548828125 383.118164062 555.858398438 c 0
 390.737304688 552.905273438 402.901367188 545.836914062 413.890625 537.989257812 c 0
 423.884765625 530.845703125 445.701171875 516.71875 462.37109375 506.595703125 c 0
 493.1328125 487.90625 512.314453125 473.157226562 549.419921875 439.6640625 c 0
 560.056640625 430.063476562 573.669921875 418.244140625 579.678710938 413.400390625 c 0
 600.798828125 396.362304688 604.0625 390.791015625 609.856445312 361.861328125 c 0
 612.802734375 347.13671875 613.158203125 342.119140625 611.811523438 334.141601562 c 0
 610.909179688 328.782226562 609.665039062 319.865234375 609.052734375 314.3203125 c 0
 607.78125 302.849609375 599.08984375 274.76171875 589.854492188 252.27734375 c 0
 582.201171875 233.650390625 530.197265625 147.240234375 514.672851562 127.357421875 c 0
 496.458007812 104.037109375 472.73046875 77.05859375 452.896484375 57.1328125 c 0
 432.500976562 36.6416015625 425.791992188 32.314453125 392.268554688 18.0478515625 c 0
 356.731445312 2.9267578125 336.920898438 -0.201171875 314.239257812 5.7265625 c 0
EndSplineSet
Validated: 33
Ligature2: "'liga' Standard Ligatures in Latin lookup 0-1" e
EndChar

StartChar: Tok.en
Encoding: 266 989450 10
Width: 700
VWidth: -963
Flags: W
HStem: 269.31 84.4277<410.844 584.691> 309.458 99.3975<113.587 267.055>
VStem: 264.443 121.994<40.7201 181.44> 289.736 96.041<399.08 558.223>
LayerCount: 2
Fore
SplineSet
319.616210938 15.6044921875 m 0xa0
 302.515625 20.9462890625 293.57421875 28.8349609375 277.889648438 52.416015625 c 0
 266.8359375 69.0341796875 265.954101562 73.07421875 264.443359375 114.051757812 c 2xa0
 263.301757812 145.045898438 l 1
 272.150390625 192.924804688 l 2
 282.520507812 249.055664062 283.3515625 263.475585938 276.94921875 276.388671875 c 0
 273.859375 282.616210938 270.9921875 285.538085938 264.532226562 289.038085938 c 0
 253.225585938 295.166992188 243.630859375 297.094726562 215.8125 298.827148438 c 0
 193.591796875 300.211914062 190.806640625 300.799804688 165.352539062 309.458007812 c 0
 130.776367188 321.21875 111.198242188 330.266601562 105.39453125 337.163085938 c 0
 97.341796875 346.733398438 97.2705078125 359.243164062 105.17578125 374.842773438 c 0
 114.271484375 392.793945312 129.853515625 404.446289062 150.662109375 408.85546875 c 0
 170.045898438 412.959960938 178.525390625 412.08203125 217.952148438 401.879882812 c 0
 260.426757812 390.883789062 276.65234375 389.352539062 284.978515625 395.541992188 c 2
 289.736328125 399.080078125 l 1
 290.83984375 443.598632812 l 2
 292.405273438 506.5546875 295.321289062 527.051757812 305.766601562 548.524414062 c 0
 312.616210938 562.606445312 323.54296875 574.264648438 336.216796875 581.022460938 c 0
 350.291992188 588.524414062 359.698242188 588.815429688 368.602539062 582.026367188 c 0
 383.518554688 570.659179688 387.059570312 545.489257812 385.77734375 460.045898438 c 0x50
 384.799804688 395.172851562 384.666992188 396.099609375 396.509765625 385.397460938 c 0
 400.071289062 382.181640625 406.059570312 377.981445312 409.819335938 376.063476562 c 0
 419.991210938 370.875 454.680664062 364.216796875 480.4140625 362.514648438 c 0
 519.932617188 359.903320312 551.586914062 356.352539062 558.655273438 353.737304688 c 0
 589.276367188 342.41015625 604.948242188 325.600585938 599.701171875 309.70703125 c 0
 594.71484375 294.592773438 566.099609375 274.204101562 543.0078125 269.309570312 c 0
 525.248046875 265.546875 474.377929688 266.0390625 449.642578125 270.215820312 c 0
 422.14453125 274.857421875 414.786132812 274.668945312 408.240234375 269.166992188 c 0
 401.599609375 263.578125 399.241210938 257.829101562 394.763671875 236.319335938 c 0
 391.236328125 219.374023438 390.439453125 208.565429688 386.4375 123.206054688 c 0
 384.68359375 85.84375 380.486328125 57.1708984375 374.327148438 40.48046875 c 0
 366.069335938 18.1064453125 343.88671875 8.0166015625 319.616210938 15.6044921875 c 0xa0
EndSplineSet
Validated: 33
LCarets2: 1 0
Ligature2: "'liga' Standard Ligatures in Latin lookup 0-1" e n
EndChar

StartChar: Tok.esun
Encoding: 267 989451 11
Width: 700
VWidth: 7885
Flags: W
HStem: -92.1807 87.791<467.974 575.925> -66.3887 64.4492<204.687 323.076>
VStem: 109.719 93.2422<3.15194 73.8753> 235.719 88.6104<303.87 409.36>
LayerCount: 2
Fore
SplineSet
377.680664062 530.063476562 m 0x30
 409.146484375 533.612304688 426.232421875 540.416992188 440.680664062 555.159179688 c 0
 457.435546875 572.251953125 463.642578125 589.280273438 456.881835938 599.598632812 c 0
 455.20703125 602.155273438 449.553710938 606.243164062 444.317382812 608.6875 c 0
 436.0390625 612.545898438 432.610351562 613.127929688 417.999023438 613.147460938 c 0
 403.233398438 613.182617188 400.08203125 612.631835938 391.9609375 608.711914062 c 0
 369.197265625 597.72265625 361.267578125 589.481445312 346.56640625 561.533203125 c 0
 340.759765625 550.489257812 334.921875 535.4609375 334.856445312 531.38671875 c 0
 334.80859375 528.337890625 356.448242188 527.66796875 377.680664062 530.063476562 c 0x30
307.9609375 2.4287109375 m 0
 319.595703125 7.4462890625 323.078125 10.4033203125 323.078125 15.2568359375 c 0
 323.078125 20.6328125 307.293945312 37.1826171875 292.45703125 47.3583984375 c 0
 247.5 78.1884765625 219.052734375 82.7333984375 206.3203125 61.115234375 c 0
 203.524414062 56.37109375 202.9609375 52.3896484375 202.9609375 37.4794921875 c 0
 202.9609375 16.1376953125 204.724609375 12.6103515625 218.994140625 5.4541015625 c 0
 231.661132812 -0.900390625 242.461914062 -2.3876953125 272.680664062 -1.939453125 c 0x70
 295.857421875 -1.59765625 299.737304688 -1.1162109375 307.9609375 2.4287109375 c 0
498.638671875 -92.1806640625 m 0xb0
 481.368164062 -89.412109375 434.418945312 -72.8076171875 410.810546875 -61.1142578125 c 2
 400.262695312 -55.8916015625 l 1
 383.090820312 -59.388671875 l 2
 358.143554688 -64.4677734375 343.387695312 -66.388671875 329.323242188 -66.388671875 c 0x70
 322.487304688 -66.388671875 300.505859375 -67.5400390625 280.4765625 -68.9482421875 c 0
 248.094726562 -71.228515625 241.686523438 -71.2353515625 222.580078125 -69.0068359375 c 0
 184.838867188 -64.6083984375 166.634765625 -56.0390625 135.551757812 -28.0361328125 c 0
 115.641601562 -10.1015625 109.71875 -1.4365234375 109.71875 9.7607421875 c 0
 109.71875 13.1748046875 108.54296875 23.28515625 107.103515625 32.2333984375 c 0
 104.041015625 51.2509765625 105.295898438 62.4208984375 113.334960938 87.734375 c 0
 117.576171875 101.088867188 119.548828125 104.646484375 127.447265625 113.174804688 c 0
 138.227539062 124.819335938 155.891601562 134.73828125 176.173828125 140.541992188 c 0
 192.536132812 145.221679688 224.360351562 145.641601562 243.624023438 141.430664062 c 0
 257.368164062 138.426757812 311.235351562 110.915039062 333.158203125 95.705078125 c 0
 340.08984375 90.8955078125 347.568359375 86.0185546875 349.776367188 84.8603515625 c 2
 353.795898438 82.7578125 l 1
 352.63671875 92.9951171875 l 2
 350.603515625 110.965820312 344.727539062 124.829101562 325.139648438 157.891601562 c 0
 309.505859375 184.271484375 285.706054688 235.401367188 260.909179688 295.885742188 c 0
 236.931640625 354.36328125 235.71875 359.209960938 235.71875 396.623046875 c 0
 235.71875 422.073242188 235.092773438 422.999023438 212.520507812 430.92578125 c 0
 178.10546875 443.004882812 157.091796875 457.090820312 129.040039062 486.881835938 c 0
 107.3671875 509.89453125 101.962890625 519.270507812 95.74609375 544.634765625 c 0
 87.54296875 578.110351562 86.8623046875 585.038085938 90.2158203125 600.846679688 c 0
 95.87890625 627.561523438 109.732421875 648.862304688 123.393554688 651.86328125 c 0
 140.1484375 655.541015625 153.922851562 644.614257812 163.387695312 620.137695312 c 0
 170.356445312 602.104492188 181.455078125 585.869140625 195.505859375 573.154296875 c 0
 207.455078125 562.342773438 214.370117188 558.651367188 232.713867188 553.309570312 c 0
 248.204101562 548.797851562 248.381835938 548.889648438 259.2890625 567.250976562 c 0
 276.40625 596.065429688 319.420898438 639.397460938 349.858398438 658.497070312 c 0
 356.557617188 662.698242188 377.430664062 671.87890625 413.797851562 686.6171875 c 0
 437.586914062 696.258789062 464.66796875 694.618164062 490.241210938 681.985351562 c 0
 504.893554688 674.747070312 519.946289062 663.057617188 525.58984375 654.526367188 c 0
 529.564453125 648.516601562 536.889648438 624.795898438 539.203125 610.4375 c 0
 541.052734375 598.969726562 528.54296875 551.145507812 518.391601562 530.850585938 c 0
 511.200195312 516.484375 486.987304688 481.098632812 474.528320312 466.759765625 c 0
 461.619140625 451.8984375 440.7421875 435.166992188 425.764648438 427.678710938 c 0
 412.485351562 421.043945312 401.743164062 417.885742188 385.241210938 415.766601562 c 0
 377.38671875 414.758789062 365.508789062 412.834960938 358.850585938 411.491210938 c 0
 352.189453125 410.147460938 343.073242188 409.05078125 338.592773438 409.05078125 c 0
 329.69921875 409.05078125 325.655273438 406.829101562 324.329101562 401.219726562 c 0
 322.791015625 394.708984375 326.202148438 357.442382812 329.674804688 342.82421875 c 0
 333.588867188 326.3359375 339.737304688 309.758789062 353.62109375 278.254882812 c 0
 362.630859375 257.8125 365.276367188 253.642578125 383.446289062 231.217773438 c 0
 402.932617188 207.168945312 427.2890625 169.344726562 445.814453125 134.372070312 c 0
 461.892578125 104.014648438 467.416015625 76.7451171875 467.521484375 27.2470703125 c 2
 467.559570312 9.162109375 l 1
 473.021484375 5.798828125 l 2
 487.872070312 -3.3505859375 514.887695312 -7.708984375 536.181640625 -4.3896484375 c 0
 550.00390625 -2.2373046875 555.934570312 0.330078125 566.099609375 8.560546875 c 0
 576.353515625 16.8623046875 580.533203125 18.0283203125 591.994140625 15.7763671875 c 0
 597.360351562 14.7197265625 603.283203125 12.4296875 605.153320312 10.6865234375 c 0
 609.6953125 6.4521484375 612.614257812 -5.0458984375 611.397460938 -13.9228515625 c 0
 609.521484375 -27.615234375 596.604492188 -52.880859375 586.555664062 -62.5166015625 c 0
 580.088867188 -68.7158203125 554.700195312 -83.6728515625 542.361328125 -88.5537109375 c 0
 533.8984375 -91.900390625 509.51171875 -93.9208984375 498.638671875 -92.1806640625 c 0xb0
EndSplineSet
Validated: 33
Ligature2: "'liga' Standard Ligatures in Latin lookup 0-1" e s u n
EndChar

StartChar: Tok.ijo
Encoding: 268 989452 12
Width: 700
VWidth: 7839
Flags: W
HStem: 6.60938 97.5938<246.111 400.585>
VStem: 500.086 105.868<233.654 417.046>
LayerCount: 2
Fore
SplineSet
340.75390625 104.203125 m 0
 372.705078125 109.319335938 379.379882812 111.793945312 403.743164062 127.578125 c 0
 426.513671875 142.330078125 453.129882812 170.66796875 466.250976562 194.1328125 c 0
 473.09765625 206.373046875 482.629882812 229.115234375 490.413085938 251.780273438 c 0
 494.760742188 264.447265625 496.2578125 272.848632812 498.623046875 297.857421875 c 0
 500.448242188 317.193359375 500.98828125 330.598632812 500.0859375 334.29296875 c 0
 499.302734375 337.509765625 498.038085938 347.326171875 497.283203125 356.103515625 c 0
 495.795898438 373.309570312 486.840820312 403.91015625 479.967773438 415.26171875 c 0
 472.403320312 427.750976562 442.60546875 464.197265625 436.111328125 468.900390625 c 0
 432.444335938 471.555664062 426.353515625 474.54296875 422.576171875 475.537109375 c 0
 418.799804688 476.532226562 408.145507812 480.09375 398.907226562 483.45703125 c 0
 372.137695312 493.201171875 355.905273438 492.774414062 328.346679688 481.604492188 c 0
 295.609375 468.33203125 270.866210938 444.673828125 242.77734375 399.78125 c 0
 215.084960938 355.51953125 202.739257812 321.263671875 196.470703125 271.290039062 c 0
 192.423828125 239.038085938 192.24609375 223.247070312 195.72265625 204.919921875 c 0
 203.255859375 165.216796875 218.735351562 141.673828125 248.895507812 124.060546875 c 0
 278.396484375 106.831054688 311.913085938 99.5849609375 340.75390625 104.203125 c 0
309.028320312 6.609375 m 0
 279.086914062 8.130859375 255.280273438 12.916015625 229.228515625 22.646484375 c 0
 193.127929688 36.126953125 171.666992188 50.2705078125 143.458007812 79.162109375 c 0
 120.9921875 102.171875 112.884765625 114.166015625 104.506835938 136.772460938 c 0
 99.5986328125 150.0234375 98.4541015625 156.3125 95.6171875 185.583984375 c 0
 92.6533203125 216.14453125 92.58203125 220.474609375 94.806640625 233.462890625 c 0
 96.150390625 241.318359375 99.154296875 260.595703125 101.478515625 276.3046875 c 0
 105.419921875 302.93359375 115.03125 348.262695312 120.00390625 363.6640625 c 0
 131.970703125 400.732421875 156.7578125 449.427734375 181.346679688 484.171875 c 0
 227.553710938 549.455078125 259.064453125 570.663085938 336.748046875 588.764648438 c 0
 360.120117188 594.208984375 365.379882812 594.900390625 377.06640625 594.05859375 c 0
 390.939453125 593.060546875 445.774414062 582.923828125 456.616210938 579.3515625 c 0
 467.720703125 575.694335938 495.608398438 557.900390625 513.771484375 542.884765625 c 0
 523.590820312 534.767578125 537.365234375 523.48828125 544.3828125 517.821289062 c 0
 554.584960938 509.580078125 558.365234375 505.181640625 563.287109375 495.81640625 c 0
 566.670898438 489.376953125 574.631835938 477.041015625 580.975585938 468.408203125 c 0
 602.419921875 439.21875 604.384765625 432.10546875 605.954101562 377.944335938 c 0
 608.032226562 306.173828125 607.563476562 302.974609375 585.09765625 235.606445312 c 0
 571.052734375 193.486328125 565.68359375 181.0625 544.184570312 140.983398438 c 0
 524.458984375 104.208984375 515.323242188 91.20703125 494.254882812 69.9306640625 c 0
 474.150390625 49.6279296875 464.0703125 42.81640625 430.543945312 26.884765625 c 0
 388.581054688 6.94140625 368.48046875 3.587890625 309.028320312 6.609375 c 0
EndSplineSet
Validated: 33
Ligature2: "'liga' Standard Ligatures in Latin lookup 0-1" i j o
EndChar

StartChar: Tok.ike
Encoding: 269 989453 13
Width: 700
VWidth: 7818
Flags: W
HStem: 182.202 234.466
LayerCount: 2
Fore
SplineSet
149.48046875 182.202148438 m 0
 137.029296875 186.094726562 124.10546875 194.930664062 117.65234375 203.963867188 c 0
 112.201171875 211.592773438 111.698242188 213.278320312 111.85546875 223.282226562 c 0
 112.098632812 238.854492188 119.645507812 256.966796875 134.616210938 277.92578125 c 0
 141.212890625 287.165039062 150.84765625 300.686523438 156.026367188 307.965820312 c 0
 172.5859375 331.259765625 195.14453125 349.590820312 241.041015625 377.046875 c 0
 270.04296875 394.396484375 294.577148438 407.1796875 304.881835938 410.313476562 c 0
 309.502929688 411.71875 328.28125 414.579101562 346.615234375 416.66796875 c 0
 389.569335938 421.5625 403.248046875 420.33203125 433.834960938 408.813476562 c 0
 469.668945312 395.323242188 499.624023438 379.610351562 514.881835938 366.303710938 c 0
 534.610351562 349.1015625 561.400390625 319.444335938 569.446289062 305.8984375 c 0
 585.001953125 279.719726562 592.045898438 242.717773438 586.030273438 218.822265625 c 0
 583.149414062 207.381835938 566.975585938 190.606445312 555.555664062 187.215820312 c 0
 530.946289062 179.909179688 513.504882812 187.465820312 500.60546875 211.022460938 c 0
 497.830078125 216.087890625 493.044921875 220.459960938 483.385742188 226.751953125 c 0
 476.026367188 231.543945312 464.935546875 239.829101562 458.73828125 245.165039062 c 0
 452.541992188 250.497070312 442.981445312 257.333007812 437.49609375 260.354492188 c 0
 432.009765625 263.375976562 422.9765625 268.653320312 417.418945312 272.081054688 c 0
 372.6875 299.688476562 343.392578125 303.79296875 308.2421875 287.38671875 c 0
 295.657226562 281.510742188 269.926757812 265.655273438 259.125976562 257.1171875 c 0
 254.532226562 253.487304688 245.033203125 242.296875 237.411132812 231.537109375 c 0
 216.91015625 202.586914062 201.587890625 189.616210938 181.401367188 184.109375 c 0
 166.939453125 180.165039062 157.758789062 179.618164062 149.48046875 182.202148438 c 0
EndSplineSet
Validated: 33
Ligature2: "'liga' Standard Ligatures in Latin lookup 0-1" i k e
EndChar

StartChar: Tok.ilo
Encoding: 270 989454 14
Width: 700
VWidth: 4964
Flags: W
HStem: 290.406 47.2393<398.12 511.825> 515.24 54.1191<400.419 515.459>
VStem: 104.891 56.9531<353.778 461.202> 288.142 114.115<48.3136 274.714> 290.206 105.137<48.3136 274.714 355.846 484.424> 528.277 66.3359<355.063 501.4>
LayerCount: 2
Fore
SplineSet
482.100585938 337.823242188 m 0xec
 495.03125 340.19140625 506.823242188 346.668945312 512.076171875 354.287109375 c 0
 523.475585938 370.81640625 528.079101562 388.525390625 528.27734375 416.638671875 c 0
 528.338867188 425.416015625 528.995117188 436.291015625 529.737304688 440.802734375 c 0
 531.380859375 450.814453125 529.118164062 475.08203125 525.529296875 485.916992188 c 0
 524.080078125 490.294921875 519.739257812 497.353515625 515.880859375 501.6015625 c 0
 506.874023438 511.52734375 498.376953125 513.87890625 466.610351562 515.240234375 c 0
 427.79296875 516.900390625 409.5 511.237304688 401.01953125 494.9296875 c 0
 397.803710938 488.744140625 394.750976562 460.870117188 395.024414062 440.157226562 c 0
 395.140625 431.379882812 395.284179688 405.9609375 395.342773438 383.671875 c 0
 395.434570312 349.255859375 395.841796875 342.8203125 398.049804688 340.98828125 c 0
 399.474609375 339.802734375 405.33984375 338.298828125 411.075195312 337.645507812 c 0
 427.87109375 335.731445312 471.276367188 335.840820312 482.100585938 337.823242188 c 0xec
211.1171875 323.365234375 m 0
 216.37109375 324.732421875 227.862304688 329.212890625 236.653320312 333.322265625 c 0
 245.444335938 337.4296875 256.990234375 341.692382812 262.311523438 342.7890625 c 0
 274.838867188 345.373046875 283.301757812 349.748046875 287.180664062 355.640625 c 0
 290.065429688 360.01953125 290.284179688 364.791015625 290.206054688 422.390625 c 2
 290.126953125 484.423828125 l 1
 285.584960938 488.330078125 l 2
 281.33984375 491.98046875 279.630859375 492.236328125 259.419921875 492.236328125 c 2
 237.797851562 492.236328125 l 1
 213.653320312 483.7734375 l 2
 185.352539062 473.8515625 180.587890625 471.2265625 173.745117188 461.779296875 c 0
 164.780273438 449.40234375 163.37890625 441.623046875 161.84375 395.709960938 c 2
 160.442382812 353.778320312 l 1
 164.817382812 342.7890625 l 2
 170.262695312 329.114257812 173.341796875 324.298828125 177.791992188 322.497070312 c 0
 183.408203125 320.227539062 200.801757812 320.678710938 211.1171875 323.365234375 c 0
326.8125 30.3701171875 m 0
 308.973632812 33.873046875 291.033203125 48.87109375 288.791015625 62.1572265625 c 0
 288.168945312 65.83203125 287.877929688 96.626953125 288.141601562 130.595703125 c 0
 288.927734375 231.595703125 288.5 261.732421875 286.200195312 267.287109375 c 0
 281.75 278.033203125 274.544921875 278.025390625 232.233398438 267.224609375 c 0
 214.368164062 262.666015625 195.904296875 258.427734375 191.204101562 257.8046875 c 0
 180.24609375 256.359375 158.723632812 260.697265625 149.217773438 266.267578125 c 0
 141.247070312 270.9375 132.572265625 282.98828125 126.098632812 298.393554688 c 0
 120.182617188 312.455078125 106.985351562 365.765625 104.890625 384.041015625 c 0
 99.3740234375 432.213867188 106.14453125 478.9921875 121.754882812 500.54296875 c 0
 128.771484375 510.228515625 139.333007812 516.412109375 160.579101562 523.268554688 c 0
 170.590820312 526.498046875 181.606445312 530.580078125 185.065429688 532.3359375 c 0
 188.521484375 534.09375 212.395507812 540.21875 238.116210938 545.947265625 c 0
 263.8359375 551.67578125 291.197265625 558.193359375 298.915039062 560.431640625 c 0
 307.216796875 562.837890625 321.55859375 565.200195312 334.02734375 566.211914062 c 0
 345.62109375 567.155273438 360.595703125 568.638671875 367.30859375 569.509765625 c 0
 384.415039062 571.732421875 517.182617188 571.612304688 535.561523438 569.359375 c 0
 554.12109375 567.083984375 560.741210938 564.776367188 573.377929688 556.197265625 c 0
 586.669921875 547.169921875 590.3515625 541.626953125 592.186523438 527.865234375 c 0
 593.013671875 521.668945312 594.432617188 513.575195312 595.341796875 509.880859375 c 0
 597.901367188 499.44921875 597.399414062 393.56640625 594.61328125 356.84375 c 0
 591.98828125 322.2265625 589.083007812 310.5 580.637695312 300.46484375 c 0
 572.526367188 290.822265625 568.421875 290.060546875 526.510742188 290.40625 c 0
 445.962890625 291.068359375 406.362304688 284.13671875 396.760742188 267.697265625 c 0
 393.934570312 262.853515625 393.825195312 260.67578125 395.455078125 241.666015625 c 0
 399.153320312 198.534179688 400.333007812 181.109375 402.256835938 141.119140625 c 0xf4
 404 104.939453125 403.911132812 97.8984375 401.532226562 82.94140625 c 0
 398.637695312 64.73828125 395.728515625 54.921875 391.186523438 47.986328125 c 0
 387.5390625 42.41796875 370.052734375 34.0888671875 355.564453125 31.01953125 c 0
 343.002929688 28.357421875 337.6640625 28.2373046875 326.8125 30.3701171875 c 0
EndSplineSet
Validated: 33
Ligature2: "'liga' Standard Ligatures in Latin lookup 0-1" i l o
EndChar

StartChar: Tok.insa
Encoding: 271 989455 15
Width: 700
VWidth: 4935
Flags: W
HStem: 170.62 98.7822<230.967 477.984> 309.267 89.7041<296.94 391.569>
VStem: 97.3789 83.5176<316.628 436.156> 512.269 101.278<308.066 412.079>
LayerCount: 2
Fore
SplineSet
320.6640625 309.266601562 m 0
 306.219726562 313.15234375 295.29296875 319.944335938 289.950195312 328.35546875 c 0
 284.454101562 337.013671875 283.97265625 343.829101562 287.913085938 357.125 c 0
 295.58984375 383.015625 311.658203125 398.87890625 330.309570312 398.970703125 c 0
 334.326171875 399.005859375 341.814453125 400.232421875 346.955078125 401.7265625 c 0
 360.708984375 405.724609375 380.837890625 404.299804688 392.103515625 398.530273438 c 0
 403.669921875 392.607421875 410.81640625 385.15625 412.251953125 377.5234375 c 0
 414.094726562 367.713867188 410.478515625 351.19140625 404.196289062 340.71875 c 0
 395.788085938 326.705078125 387.291015625 321.123046875 362.465820312 313.32421875 c 0
 339.302734375 306.040039062 334.421875 305.568359375 320.6640625 309.266601562 c 0
134.122070312 162.27734375 m 0
 108.234375 167.35546875 94.3642578125 176.287109375 89.185546875 191.212890625 c 0
 85.18359375 202.749023438 85.6279296875 239.362304688 90.1494140625 271.138671875 c 0
 94.3603515625 300.71875 98.00390625 350.34765625 97.37890625 369.607421875 c 0
 97.1083984375 377.923828125 95.8095703125 390.580078125 94.4873046875 397.73046875 c 0
 88.8681640625 428.1328125 100.284179688 439.166015625 137.481445312 439.286132812 c 0
 175.534179688 439.409179688 187.61328125 420.873046875 180.896484375 372.669921875 c 0
 178.380859375 354.626953125 181.56640625 323.950195312 186.754882812 316.25 c 0
 192.747070312 307.359375 206.0390625 298.438476562 218.846679688 294.708984375 c 0
 225.31640625 292.826171875 240.420898438 287.4765625 252.4140625 282.822265625 c 0
 295.69921875 266.01171875 309.241210938 264.361328125 362.486328125 269.40234375 c 0
 387.116210938 271.734375 404.752929688 272.52734375 417.92578125 271.890625 c 0
 447.515625 270.46875 466.02734375 275.934570312 479.569335938 290.084960938 c 0
 482.518554688 293.16796875 489.939453125 306.01953125 496.060546875 318.645507812 c 0
 506.509765625 340.189453125 507.50390625 343.28515625 512.268554688 369.04296875 c 0
 517.89453125 399.4765625 520.6328125 405.90234375 532.725585938 417.048828125 c 0
 543.125976562 426.63671875 550.950195312 428.73828125 566.501953125 426.123046875 c 0
 587.4296875 422.606445312 591.319335938 421.017578125 599.444335938 412.642578125 c 0
 611.143554688 400.583984375 613.672851562 390.912109375 613.546875 358.6875 c 0
 613.451171875 334.302734375 611.55078125 305.01171875 607.681640625 268.26171875 c 0
 605.487304688 247.415039062 596.78515625 203.78125 593.588867188 197.6015625 c 0
 590.08203125 190.827148438 580.078125 182.921875 570.900390625 179.677734375 c 0
 561.330078125 176.293945312 496.62109375 172.807617188 402.80859375 170.620117188 c 0
 366.311523438 169.772460938 327.376953125 168.275390625 316.2890625 167.294921875 c 0
 250.4765625 161.48046875 152.01171875 158.766601562 134.122070312 162.27734375 c 0
EndSplineSet
Validated: 33
Ligature2: "'liga' Standard Ligatures in Latin lookup 0-1" i n s a
EndChar

StartChar: Tok.jaki
Encoding: 272 989456 16
Width: 700
VWidth: 4978
Flags: W
HStem: 64.8789 81.4775<478.293 554.682> 436.155 72.2422<260.82 318.889> 479.612 69.4629<143.72 236.477>
VStem: 151.706 77.5742<113.72 146.142> 183.517 90.8154<225.485 267.496>
LayerCount: 2
Fore
SplineSet
389.8359375 459.2578125 m 0x80
 392.313476562 462.997070312 392.255859375 463.038085938 384.479492188 463.038085938 c 0
 378.666015625 463.038085938 376.9296875 462.487304688 377.814453125 460.936523438 c 0
 382.059570312 453.515625 385.696289062 453.009765625 389.8359375 459.2578125 c 0x80
286.155273438 382.555664062 m 0
 316.619140625 402.448242188 319.692382812 405.045898438 319.692382812 410.924804688 c 0
 319.692382812 419.715820312 303.327148438 436.155273438 294.577148438 436.155273438 c 0xc0
 282.737304688 436.155273438 253.796875 411.690429688 245.990234375 395.084960938 c 0
 238.399414062 378.935546875 241.95703125 365.598632812 253.8515625 365.598632812 c 0
 259.030273438 365.598632812 264.881835938 368.670898438 286.155273438 382.555664062 c 0
447.374023438 377.625976562 m 0
 447.374023438 390.5703125 438.50390625 399.336914062 433.975585938 390.874023438 c 0
 432.21875 387.58984375 432.35546875 386.991210938 439.034179688 369.098632812 c 2
 441.176757812 363.356445312 l 1
 444.2734375 367.184570312 l 2
 446.112304688 369.454101562 447.374023438 373.69921875 447.374023438 377.625976562 c 0
405.36328125 325.697265625 m 0
 405.315429688 327.559570312 395.475585938 360.936523438 394.760742188 361.651367188 c 0
 392.953125 363.456054688 382.336914062 358.725585938 378.084960938 354.216796875 c 0
 373.671875 349.538085938 368.688476562 336.200195312 370.629882812 334.258789062 c 0
 372.069335938 332.823242188 405.390625 324.606445312 405.36328125 325.697265625 c 0
373.033203125 289.374023438 m 0
 379.752929688 291.17578125 374.345703125 299.166992188 366.286132812 299.313476562 c 0
 365.591796875 299.313476562 364.5703125 295.739257812 364.5703125 293.428710938 c 0
 364.5703125 288.940429688 367.177734375 287.805664062 373.033203125 289.374023438 c 0
282.662109375 260.803710938 m 0
 282.662109375 262.618164062 280.990234375 267.649414062 279.141601562 268.641601562 c 0
 276.4921875 270.055664062 274.33203125 269.434570312 274.33203125 267.49609375 c 0x88
 274.33203125 265.260742188 279.244140625 255.088867188 280.9765625 255.088867188 c 0
 281.373046875 255.088867188 282.662109375 258.989257812 282.662109375 260.803710938 c 0
407.010742188 175.678710938 m 0
 407.978515625 177.483398438 409.24609375 183.534179688 409.831054688 189.118164062 c 0
 411.057617188 200.873046875 408.8671875 202.352539062 401.012695312 195.076171875 c 0
 398.520507812 192.765625 395.646484375 190.865234375 394.627929688 190.8515625 c 0
 389.904296875 190.783203125 388.416992188 188.14453125 390.303710938 183.181640625 c 0
 394.26171875 172.770507812 403.28515625 168.719726562 407.010742188 175.678710938 c 0
330.762695312 112.12890625 m 0
 337.493164062 113.82421875 343.21484375 118.584960938 343.21484375 122.495117188 c 0
 343.21484375 124.994140625 324.1015625 144.077148438 318.90625 146.762695312 c 0
 314.390625 149.09765625 312.17578125 149.059570312 295.38671875 146.360351562 c 0
 277.025390625 143.403320312 263.849609375 143.8203125 237.288085938 148.184570312 c 0
 232.010742188 149.053710938 231.087890625 148.649414062 229.280273438 144.681640625 c 0x90
 224.764648438 134.76953125 233.142578125 119.659179688 246.612304688 113.420898438 c 0
 252.463867188 110.713867188 257.854492188 110.307617188 288.288085938 110.272460938 c 0
 308.778320312 110.239257812 326.357421875 111.021484375 330.762695312 112.12890625 c 0
227.293945312 50.27734375 m 0
 226.829101562 50.7353515625 219.272460938 51.97265625 210.491210938 53.025390625 c 0
 188.900390625 55.6162109375 183.021484375 57.6162109375 174.247070312 65.3408203125 c 0
 159.745117188 78.1025390625 151.685546875 97.9677734375 151.706054688 120.885742188 c 0xd0
 151.740234375 150.088867188 157.49609375 168.446289062 173.095703125 189.008789062 c 0
 178.416992188 196.022460938 183.359375 203.213867188 184.077148438 204.981445312 c 0
 184.791992188 206.751953125 184.541992188 215.98046875 183.516601562 225.485351562 c 0
 181.294921875 246.11328125 182.826171875 255.659179688 191.504882812 275.405273438 c 0
 195.134765625 283.653320312 196.973632812 290.079101562 196.385742188 292.426757812 c 0
 195.85546875 294.532226562 191.350585938 298.911132812 186.17578125 302.348632812 c 0
 175.662109375 309.329101562 166.827148438 321.411132812 161.819335938 335.661132812 c 0
 156.306640625 351.342773438 155.9609375 357.426757812 159.857421875 370.106445312 c 0
 164.154296875 384.08984375 171.653320312 395.526367188 190.981445312 417.551757812 c 0
 215.303710938 445.274414062 227.013671875 454.899414062 243.0234375 460.334960938 c 0
 245.67578125 461.237304688 245.81640625 461.803710938 243.932617188 464.073242188 c 0
 242.708984375 465.543945312 239.999023438 467.399414062 237.907226562 468.192382812 c 0
 228.955078125 471.596679688 194.827148438 478.138671875 178.321289062 479.612304688 c 0
 157.379882812 481.485351562 147.419921875 485.250976562 140.928710938 493.762695312 c 0
 132.661132812 504.604492188 133.54296875 518.190429688 143.403320312 531.803710938 c 0
 150.0859375 541.029296875 162.096679688 546.555664062 180.9296875 549.075195312 c 0xa8
 199.19140625 551.518554688 217.580078125 549.041015625 226.876953125 542.926757812 c 0
 230.33984375 540.643554688 242.624023438 535.416992188 254.172851562 531.315429688 c 0
 265.72265625 527.209960938 282.299804688 520.377929688 291.01171875 516.125976562 c 0
 299.720703125 511.874023438 307.875976562 508.397460938 309.133789062 508.397460938 c 0xc8
 310.391601562 508.397460938 320.276367188 513.323242188 331.09765625 519.345703125 c 0
 354.234375 532.221679688 360.293945312 534.576171875 389.671875 542.109375 c 0
 410.856445312 547.540039062 412.212890625 547.6875 422.432617188 545.606445312 c 0
 445.17578125 540.974609375 467.775390625 526.065429688 475.75 510.438476562 c 0
 480.845703125 500.444335938 486.017578125 480.278320312 484.90625 474.723632812 c 0
 483.033203125 465.35546875 485.2890625 461.920898438 497.559570312 455.473632812 c 0
 510.032226562 448.918945312 526.711914062 436.168945312 531.623046875 429.436523438 c 0
 536.23046875 423.120117188 540.366210938 400.420898438 539.108398438 388.344726562 c 0
 536.302734375 361.383789062 527.340820312 345.750976562 490.73046875 303.9453125 c 0
 469.703125 279.934570312 470.4453125 282.282226562 478.931640625 266.56640625 c 0
 490.83984375 244.524414062 492.880859375 236.768554688 493.779296875 210.197265625 c 2
 494.572265625 186.678710938 l 1
 486.252929688 166.515625 l 1
 477.930664062 146.356445312 l 1
 505.913085938 145.334960938 l 2
 544.830078125 143.916015625 556.147460938 140.436523438 561.708007812 128.186523438 c 0
 569.333984375 111.387695312 561.807617188 88.421875 545.096679688 77.525390625 c 0
 538.076171875 72.9453125 507.1640625 64.8818359375 496.623046875 64.87890625 c 0
 486.147460938 64.8759765625 469.361328125 68.8779296875 444.08203125 77.4091796875 c 0
 431.647460938 81.6025390625 419.75 85.0380859375 417.64453125 85.0380859375 c 0
 415.53515625 85.0380859375 407.188476562 82.2939453125 399.091796875 78.9404296875 c 0
 358.233398438 62.021484375 329.942382812 56.2548828125 272.271484375 53.1005859375 c 0
 256.815429688 52.2568359375 240.5625 51.0869140625 236.150390625 50.5068359375 c 0
 231.741210938 49.9248046875 227.755859375 49.8232421875 227.293945312 50.27734375 c 0
EndSplineSet
Validated: 33
Ligature2: "'liga' Standard Ligatures in Latin lookup 0-1" j a k i
EndChar

StartChar: Tok.jan
Encoding: 273 989457 17
Width: 700
VWidth: 5001
Flags: W
HStem: 111.198 68<231.309 416.784> 474.247 96.5371<300.805 481.732>
LayerCount: 2
Fore
SplineSet
324.71875 179.198242188 m 0
 328.419921875 180.036132812 340.451171875 181.590820312 351.45703125 182.657226562 c 0
 385.9375 185.997070312 406.873046875 193.321289062 434.25390625 211.631835938 c 0
 449.78515625 222.014648438 476.510742188 248.040039062 493.336914062 269.159179688 c 0
 506.1171875 285.200195312 512.611328125 299.000976562 519.002929688 323.706054688 c 0
 528.224609375 359.342773438 522.499023438 393.5390625 501.243164062 429.799804688 c 0
 491.98046875 445.6015625 481.620117188 455.000976562 464.165039062 463.432617188 c 0
 443.725585938 473.311523438 433.091796875 474.903320312 391.92578125 474.247070312 c 0
 359.828125 473.735351562 355.432617188 473.303710938 343.206054688 469.458984375 c 0
 316.912109375 461.194335938 290.029296875 448.442382812 276.767578125 437.938476562 c 0
 270.755859375 433.176757812 245.934570312 405.686523438 233.591796875 390.118164062 c 0
 227.220703125 382.079101562 209.266601562 341.725585938 204.125976562 323.880859375 c 0
 201.049804688 313.203125 200.455078125 306.842773438 200.430664062 284.280273438 c 2
 200.396484375 257.397460938 l 1
 208.565429688 236.842773438 l 2
 220.23828125 207.46484375 231.814453125 195.413085938 256.724609375 186.7109375 c 0
 275.954101562 179.991210938 311.060546875 176.112304688 324.71875 179.198242188 c 0
129.005859375 28.0419921875 m 0
 120.135742188 29.935546875 115.111328125 32.3037109375 108.931640625 37.5029296875 c 0
 87.6689453125 55.3955078125 95.90625 91.9990234375 129.3203125 128.116210938 c 0
 151.758789062 152.370117188 151.954101562 155.084960938 133.244140625 182.58203125 c 0
 116.669921875 206.938476562 116.731445312 206.794921875 108.634765625 238.264648438 c 0
 99.8505859375 272.409179688 99.1767578125 290.302734375 105.165039062 330.477539062 c 0
 111.034179688 369.838867188 117.302734375 386.536132812 140.875976562 425.599609375 c 0
 168.544921875 471.444335938 176.805664062 480.293945312 220.56640625 510.966796875 c 0
 255.439453125 535.412109375 274.994140625 545.556640625 307.92578125 556.278320312 c 0
 360.883789062 573.522460938 384.419921875 576.252929688 432.91796875 570.784179688 c 0
 482.556640625 565.186523438 487.215820312 563.415039062 511.623046875 540.891601562 c 0
 528.641601562 525.185546875 557.444335938 489.641601562 568.087890625 471.208984375 c 0
 577.169921875 455.486328125 583.158203125 426.283203125 585.922851562 384.239257812 c 0
 586.866210938 369.916992188 588.100585938 353.510742188 588.66796875 347.779296875 c 0
 589.337890625 341.014648438 588.787109375 333.065429688 587.098632812 325.100585938 c 0
 585.669921875 318.357421875 583.263671875 306.411132812 581.752929688 298.557617188 c 0
 577.15234375 274.665039062 563.788085938 243.640625 547.81640625 219.786132812 c 0
 533.365234375 198.202148438 531.686523438 193.24609375 536.489257812 186.389648438 c 0
 537.920898438 184.342773438 546.8046875 177.229492188 556.227539062 170.575195312 c 0
 577.737304688 155.391601562 591.135742188 141.678710938 597.919921875 127.897460938 c 0
 603.057617188 117.459960938 603.180664062 116.690429688 602.44921875 98.9853515625 c 0
 601.795898438 83.1357421875 601.043945312 79.4033203125 596.607421875 69.9775390625 c 0
 589.98046875 55.8955078125 577.908203125 42.568359375 568.529296875 38.986328125 c 0
 562.543945312 36.703125 560.021484375 36.5498046875 554.201171875 38.1181640625 c 0
 542.015625 41.3955078125 519.283203125 52.8193359375 512.204101562 59.2177734375 c 0
 503.0546875 67.4814453125 490.572265625 84.6611328125 481.114257812 102 c 0
 467.96875 126.092773438 462.763671875 128.673828125 443.397460938 120.678710938 c 0
 427.01171875 113.918945312 417.625976562 112.547851562 378.486328125 111.198242188 c 0
 342.413085938 109.95703125 326.448242188 111.672851562 292.811523438 120.405273438 c 0
 261.329101562 128.581054688 255.8359375 127.62109375 243.708984375 111.827148438 c 0
 223.638671875 85.689453125 214.430664062 74.779296875 198.837890625 58.6669921875 c 0
 180.517578125 39.7353515625 166.931640625 31.3369140625 149.356445312 28.076171875 c 0
 139.344726562 26.2197265625 137.543945312 26.216796875 129.005859375 28.0419921875 c 0
EndSplineSet
Validated: 33
Ligature2: "'liga' Standard Ligatures in Latin lookup 0-1" j a n
EndChar

StartChar: Tok.jelo
Encoding: 274 989458 18
Width: 700
VWidth: 5948
Flags: W
HStem: -26.2383 58.1846<182.134 457.338> 416.478 57.9072<441.773 511.245>
VStem: 311.877 56.499<545.253 626.575>
LayerCount: 2
Fore
SplineSet
367.61328125 396.315429688 m 0
 378.759765625 400.485351562 385.161132812 407.043945312 392.7421875 422.059570312 c 0
 402.647460938 441.66796875 398.525390625 457.869140625 379.040039062 475.905273438 c 0
 361.1328125 492.486328125 351.962890625 495.141601562 334.797851562 488.719726562 c 0
 318.353515625 482.567382812 300.921875 459.452148438 298.84765625 441.045898438 c 0
 296.776367188 422.674804688 311.326171875 400.600585938 330.1796875 393.518554688 c 0
 338.243164062 390.491210938 355.490234375 391.779296875 367.61328125 396.315429688 c 0
284.973632812 35.1650390625 m 0
 297.654296875 38.07421875 305.932617188 38.4462890625 358.89453125 38.5048828125 c 0
 409.856445312 38.5595703125 421.135742188 39.0341796875 436.423828125 41.7587890625 c 0
 446.264648438 43.5126953125 455.71484375 45.7001953125 457.423828125 46.6220703125 c 0
 463.145507812 49.7060546875 468.217773438 56.4697265625 469.158203125 62.2705078125 c 0
 469.978515625 67.3291015625 468.6796875 70.09375 458.34375 85.3134765625 c 0
 430.91796875 125.704101562 395.794921875 158.506835938 361.413085938 175.845703125 c 0
 346.579101562 183.327148438 332.305664062 181.959960938 323.5078125 172.22265625 c 0
 320.934570312 169.375976562 313.219726562 160.998046875 306.356445312 153.604492188 c 0
 299.497070312 146.215820312 290.610351562 135.629882812 286.611328125 130.0859375 c 0
 282.612304688 124.541992188 275.82421875 116.116210938 271.52734375 111.366210938 c 0
 260.7265625 99.4306640625 240.5234375 70.96875 237.265625 63.1005859375 c 0
 233.471679688 53.9365234375 233.776367188 44.8076171875 238.000976562 40.9833984375 c 0
 241.330078125 37.9716796875 260.53515625 32.0556640625 267.333984375 31.9462890625 c 0
 269.1796875 31.9111328125 277.119140625 33.3642578125 284.973632812 35.1650390625 c 0
220.291992188 -26.7275390625 m 0
 211.053710938 -25.923828125 193.881835938 -25.7021484375 182.133789062 -26.23828125 c 0
 156.755859375 -27.3896484375 150.166015625 -25.4150390625 145.975585938 -15.3798828125 c 0
 142.16796875 -6.2705078125 143.897460938 13.2900390625 149.622070312 25.9267578125 c 0
 152.134765625 31.470703125 157.979492188 46.2119140625 162.610351562 58.6845703125 c 0
 167.2421875 71.16015625 175.793945312 89.6826171875 181.614257812 99.8466796875 c 0
 187.435546875 110.008789062 193.369140625 120.655273438 194.80078125 123.502929688 c 0
 196.233398438 126.346679688 206.248046875 139.577148438 217.055664062 152.901367188 c 0
 227.86328125 166.223632812 241.125 183.682617188 246.521484375 191.702148438 c 0
 251.918945312 199.719726562 257.110351562 206.7578125 258.060546875 207.345703125 c 0
 259.010742188 207.93359375 262.756835938 212.715820312 266.38671875 217.96875 c 0
 270.013671875 223.225585938 280.294921875 235.837890625 289.229492188 245.999023438 c 0
 308.995117188 268.47265625 312.365234375 274.129882812 316.26171875 291.366210938 c 0
 319.098632812 303.926757812 320.592773438 334.42578125 318.469726562 336.547851562 c 0
 317.950195312 337.067382812 310.858398438 339.422851562 302.703125 341.788085938 c 0
 280.602539062 348.190429688 271.274414062 353.221679688 261.0859375 364.227539062 c 0
 251.8671875 374.18359375 249.201171875 380.14453125 247.0859375 395.525390625 c 0
 244.768554688 412.396484375 236.647460938 415.766601562 202.54296875 413.999023438 c 0
 181.470703125 412.909179688 179.157226562 413.086914062 172.9296875 416.262695312 c 0
 161.274414062 422.209960938 158.205078125 438.065429688 165.984375 452.154296875 c 0
 172.854492188 464.598632812 181.081054688 468.454101562 210.212890625 472.883789062 c 0
 231.944335938 476.189453125 238.19921875 477.928710938 243.588867188 482.170898438 c 0
 246.015625 484.081054688 252.509765625 494.471679688 258.01953125 505.262695312 c 0
 272.166992188 532.971679688 282.41015625 542.525390625 297.986328125 542.525390625 c 0
 301.506835938 542.525390625 306.06640625 543.701171875 308.120117188 545.139648438 c 0
 311.596679688 547.577148438 311.856445312 549.046875 311.876953125 566.560546875 c 0
 311.931640625 605.604492188 322.807617188 628.20703125 341.547851562 628.20703125 c 0
 355.5 628.20703125 363.901367188 615.369140625 363.921875 594.024414062 c 0
 363.921875 588.624023438 365.15234375 580.002929688 366.646484375 574.870117188 c 0
 368.331054688 569.069335938 368.987304688 562.811523438 368.375976562 558.34375 c 0
 367.159179688 549.470703125 369.620117188 541.913085938 374.514648438 539.510742188 c 0
 376.547851562 538.508789062 382.73828125 536.438476562 388.271484375 534.907226562 c 0
 409.583007812 529.00390625 425.322265625 514.747070312 431.068359375 496.143554688 c 0
 432.896484375 490.216796875 435.145507812 483.965820312 436.061523438 482.256835938 c 0
 438.884765625 476.982421875 446.9375 474.760742188 458.825195312 475.977539062 c 0
 466.266601562 476.739257812 473.287109375 476.247070312 481.469726562 474.384765625 c 0
 505.282226562 468.970703125 516.74609375 455.982421875 511.923828125 439.887695312 c 0
 507.462890625 424.999023438 495.374023438 419.034179688 464.49609375 416.477539062 c 0
 453.999023438 415.609375 445.321289062 414.887695312 445.208007812 414.874023438 c 0
 445.098632812 414.874023438 444.494140625 410.991210938 443.868164062 406.278320312 c 0
 440.857421875 383.583007812 427.9609375 356.448242188 415.765625 347.143554688 c 0
 412.659179688 344.772460938 405.040039062 340.557617188 398.83984375 337.775390625 c 0
 390.520507812 334.04296875 387.348632812 331.698242188 386.744140625 328.840820312 c 0
 385.588867188 323.37890625 383.743164062 294.06640625 383.4765625 276.942382812 c 2
 383.25390625 262.514648438 l 1
 390.811523438 252.670898438 l 2
 394.970703125 247.256835938 407.142578125 233.711914062 417.864257812 222.576171875 c 0
 429.140625 210.862304688 441.315429688 196.165039062 446.75 187.715820312 c 0
 451.9140625 179.680664062 464.311523438 164.555664062 474.298828125 154.107421875 c 0
 499.314453125 127.92578125 528.134765625 91.7060546875 536.447265625 75.9931640625 c 0
 546.233398438 57.4951171875 555.943359375 28.1240234375 556.052734375 16.6845703125 c 0
 556.17578125 3.8056640625 551.756835938 -4.7529296875 542.97265625 -8.6259765625 c 0
 536.1328125 -11.6474609375 515.208007812 -14.2275390625 455.493164062 -19.4267578125 c 0
 438.977539062 -20.865234375 407.094726562 -21.9287109375 379.89453125 -21.9482421875 c 0
 348.889648438 -21.986328125 318.248046875 -23.12109375 290.01171875 -25.3154296875 c 0
 243.75 -28.9072265625 245.079101562 -28.8798828125 220.291992188 -26.7275390625 c 0
EndSplineSet
Validated: 33
Ligature2: "'liga' Standard Ligatures in Latin lookup 0-1" j e l o
EndChar

StartChar: Tok.jo
Encoding: 275 989459 19
Width: 700
VWidth: 5974
Flags: W
VStem: 134.126 90.6309<129.697 265.149> 428.929 118.546<126.118 186.192>
LayerCount: 2
Fore
SplineSet
467.118164062 432.317382812 m 0
 489.560546875 438.158203125 498.422851562 447.564453125 501.872070312 469.2109375 c 0
 504.859375 487.955078125 504.260742188 501.158203125 499.803710938 514.6875 c 0
 496.451171875 524.873046875 494.4375 527.8125 483.486328125 538.509765625 c 0
 468.392578125 553.255859375 465.655273438 554.755859375 448.9140625 557.4453125 c 0
 438.41015625 559.134765625 434.41796875 559.134765625 428.754882812 557.4453125 c 0
 403.08203125 549.775390625 381.58984375 529.114257812 377.177734375 507.857421875 c 0
 375.619140625 500.359375 375.755859375 496.796875 377.922851562 488.344726562 c 0
 383.53515625 466.428710938 398.129882812 445.47265625 413.206054688 437.676757812 c 0
 428.340820312 429.849609375 449.549804688 427.740234375 467.118164062 432.317382812 c 0
250.330078125 1.2265625 m 0
 229.784179688 5.6728515625 198.913085938 20.865234375 183.83984375 33.94921875 c 0
 148.290039062 64.806640625 131.353515625 112.026367188 134.125976562 172.544921875 c 0
 135.981445312 213.126953125 148.030273438 253.092773438 175.17578125 308.748046875 c 0
 204.802734375 369.474609375 227.295898438 396.845703125 283.090820312 440.044921875 c 0
 290.9453125 446.125976562 300.963867188 454.947265625 305.352539062 459.650390625 c 0
 313.244140625 468.107421875 313.330078125 468.326171875 313.34375 479.615234375 c 0
 313.380859375 513.380859375 323.973632812 539.15625 347.772460938 563.37890625 c 0
 358.748046875 574.556640625 384.512695312 590.733398438 400.392578125 596.423828125 c 0
 408.698242188 599.3984375 413.834960938 599.825195312 440.170898438 599.732421875 c 2
 470.409179688 599.623046875 l 1
 489.622070312 591.810546875 l 2
 529.079101562 575.765625 537.275390625 569.487304688 551.7265625 544.228515625 c 0
 569.404296875 513.33984375 570.86328125 482.455078125 556.04296875 452.879882812 c 0
 548.379882812 437.587890625 530.665039062 413.600585938 519.874023438 403.896484375 c 0
 510.337890625 395.32421875 489.638671875 384.158203125 475.950195312 380.200195312 c 0
 467.209960938 377.673828125 464.673828125 377.650390625 447.112304688 379.9375 c 0
 435.9765625 381.389648438 425.145507812 383.823242188 421.416015625 385.712890625 c 0
 407.501953125 392.76171875 367.384765625 407.861328125 362.572265625 407.861328125 c 0
 354.19140625 407.861328125 326.642578125 387.224609375 300.35546875 361.248046875 c 0
 273.114257812 334.333984375 264.23046875 320.65625 248.272460938 281.024414062 c 0
 232.880859375 242.811523438 225.918945312 216.83203125 224.756835938 193.30859375 c 0
 223.157226562 160.88671875 227.993164062 147.125 247.872070312 127.560546875 c 0
 261.919921875 113.732421875 272.59765625 107.706054688 297.712890625 99.427734375 c 0
 323.666015625 90.8759765625 321.078125 90.93359375 356.932617188 98.087890625 c 0
 392.408203125 105.163085938 415.650390625 118.859375 425.15234375 138.279296875 c 0
 429.000976562 146.1484375 429.541015625 149.056640625 428.928710938 158.650390625 c 0
 428.231445312 169.619140625 428.046875 170.001953125 419.7890625 177.555664062 c 0
 413.4453125 183.35546875 407.477539062 186.685546875 395.671875 191.015625 c 0
 376.975585938 197.869140625 366.431640625 206.591796875 364.53125 216.7734375 c 0
 361.51953125 232.90234375 369.528320312 249.3984375 385.572265625 260.11328125 c 0
 400.700195312 270.216796875 408.359375 272.107421875 437.856445312 273.033203125 c 0
 469.77734375 274.03125 485.69140625 271.375 505.833007812 261.689453125 c 0
 523.818359375 253.038085938 535.197265625 242.633789062 542.1796875 228.44921875 c 0
 547.416015625 217.8125 547.6796875 216.370117188 547.474609375 199.578125 c 0
 547.18359375 175.764648438 542.9453125 160.564453125 528.42578125 131.21484375 c 0
 510.091796875 94.1640625 492.810546875 74.712890625 456.969726562 50.8037109375 c 0
 446.80859375 44.0224609375 427.907226562 33.109375 414.969726562 26.5498046875 c 0
 373.899414062 5.7275390625 353.689453125 1.294921875 295.689453125 0.37890625 c 0
 274.440429688 0.04296875 254.028320312 0.42578125 250.330078125 1.2265625 c 0
EndSplineSet
Validated: 33
Ligature2: "'liga' Standard Ligatures in Latin lookup 0-1" j o
EndChar

StartChar: Tok.kala
Encoding: 276 989460 20
Width: 700
VWidth: 5990
Flags: W
LayerCount: 2
Fore
SplineSet
464.084960938 277.586914062 m 0
 477.893554688 282.228515625 504.375976562 295.96875 514.752929688 303.87109375 c 0
 526.852539062 313.08984375 542.0078125 332.165039062 545.049804688 342.001953125 c 0
 548.48828125 353.1171875 548.279296875 360.60546875 544.154296875 373.95703125 c 0
 537.872070312 394.30078125 524.490234375 402.517578125 490.157226562 407.111328125 c 0
 477.237304688 408.836914062 474.366210938 408.659179688 459.265625 405.189453125 c 0
 425.068359375 397.33203125 399.30078125 386.80078125 381.5 373.40625 c 0
 376.530273438 369.669921875 361.220703125 356.662109375 347.48046875 344.50390625 c 0
 329.700195312 328.774414062 322.4921875 321.33984375 322.4921875 318.736328125 c 0
 322.4921875 315.211914062 329.795898438 307.162109375 339.796875 299.666992188 c 0
 345.037109375 295.740234375 389.911132812 280.307617188 406.65234375 276.677734375 c 0
 423.862304688 272.9453125 451.578125 273.3828125 464.084960938 277.586914062 c 0
100.286132812 112.943359375 m 0
 92.2236328125 114.84375 82.236328125 119.9296875 78.5380859375 124.017578125 c 0
 69.6474609375 133.8515625 68.072265625 150.955078125 74.8125 164.482421875 c 0
 79.37890625 173.650390625 83.8388671875 177.173828125 101.373046875 185.46875 c 0
 115.38671875 192.096679688 135.552734375 208.4453125 157.065429688 230.6171875 c 0
 174.555664062 248.640625 200.719726562 279.357421875 207.381835938 289.6796875 c 0
 210.348632812 294.27734375 210.328125 294.4375 206.38671875 298.64453125 c 0
 201.120117188 304.263671875 182.720703125 317.720703125 172.131835938 323.6953125 c 0
 158.42578125 331.43359375 102.159179688 369.133789062 94.373046875 375.794921875 c 0
 85.5107421875 383.3828125 81.658203125 390.817382812 78.9169921875 405.607421875 c 0
 75.5263671875 423.923828125 79.3857421875 437.41796875 91.4677734375 449.5 c 0
 104.377929688 462.40625 125.5625 470.193359375 142.672851562 468.3125 c 0
 166.208984375 465.728515625 218.80078125 428.439453125 244.842773438 395.875976562 c 0
 257.755859375 379.732421875 267.083007812 369.995117188 272.23046875 367.28515625 c 0
 276.438476562 365.0703125 276.670898438 365.220703125 280.170898438 372.42578125 c 0
 282.686523438 377.607421875 287.970703125 383.174804688 297.673828125 390.872070312 c 0
 315.002929688 404.619140625 337.74609375 420.263671875 347.692382812 425.28125 c 0
 351.852539062 427.375976562 364.704101562 435.127929688 376.252929688 442.50390625 c 0
 401.368164062 458.547851562 449.85546875 483.16015625 463.17578125 486.629882812 c 0
 475.26171875 489.77734375 501.600585938 489.829101562 517.774414062 486.732421875 c 0
 532.078125 483.994140625 558.208984375 474.584960938 575.333007812 466.001953125 c 0
 590.333984375 458.482421875 613.138671875 436.744140625 618.846679688 424.521484375 c 0
 628.102539062 404.705078125 631.825195312 377.248046875 627.655273438 359.536132812 c 0
 623.70703125 342.75390625 608.852539062 305.990234375 601.521484375 294.8515625 c 0
 588.102539062 274.456054688 544.581054688 235.764648438 522.412109375 224.51953125 c 0
 508.607421875 217.515625 483.266601562 208.875 455.21484375 201.60546875 c 0
 421.541015625 192.87890625 402.455078125 191.953125 381.206054688 198.01953125 c 0
 357.109375 204.900390625 301.79296875 227.98828125 285.995117188 237.760742188 c 0
 277.607421875 242.94921875 270.04296875 247.194335938 269.192382812 247.194335938 c 0
 266.43359375 247.194335938 261.163085938 240.091796875 246.766601562 216.955078125 c 0
 232.592773438 194.181640625 218.110351562 177.515625 179.504882812 139.544921875 c 0
 155.483398438 115.916992188 127.520507812 106.52734375 100.286132812 112.943359375 c 0
EndSplineSet
Validated: 33
Ligature2: "'liga' Standard Ligatures in Latin lookup 0-1" k a l a
EndChar

StartChar: Tok.kalama
Encoding: 277 989461 21
Width: 700
VWidth: 5919
Flags: W
HStem: 224.474 58.625<254.296 468.534>
VStem: 114.461 98.7725<402.589 460.22> 314.935 67.9053<373.118 519.648> 315.037 80.2988<388.195 530.912> 469.598 84.749<182.707 227.364>
LayerCount: 2
Fore
SplineSet
340.580078125 370.557617188 m 0xe8
 332.69140625 373.723632812 325.076171875 381.150390625 320.840820312 389.801757812 c 0
 316.985351562 397.690429688 316.305664062 401.856445312 314.934570312 425.987304688 c 0xe8
 313.947265625 443.340820312 313.98828125 460.053710938 315.037109375 471.928710938 c 0
 315.946289062 482.196289062 316.725585938 496.264648438 316.763671875 503.196289062 c 0
 316.807617188 510.288085938 317.798828125 517.52734375 319.033203125 519.755859375 c 0
 322.098632812 525.282226562 333.15234375 532.331054688 344.209960938 535.809570312 c 0
 352.8125 538.516601562 354.268554688 538.543945312 362.482421875 536.155273438 c 0
 374.126953125 532.771484375 384.248046875 523.936523438 390.038085938 512.102539062 c 0
 394.10546875 503.784179688 394.7578125 500.229492188 395.3359375 483.166992188 c 0xd8
 396.09765625 460.559570312 392.765625 441.23828125 382.83984375 410.747070312 c 0
 371.84375 376.963867188 357.830078125 363.63671875 340.580078125 370.557617188 c 0xe8
498.58203125 367.940429688 m 0
 488.35546875 372.383789062 477.999023438 380.555664062 477.999023438 384.182617188 c 0
 477.999023438 391.076171875 489.979492188 431.647460938 495.615234375 443.852539062 c 0
 506.771484375 467.997070312 526.000976562 492.049804688 537.701171875 496.5 c 0
 553.276367188 502.419921875 572 492.801757812 581.645507812 473.920898438 c 0
 587.86328125 461.756835938 586.731445312 449.493164062 577.673828125 430.850585938 c 0
 573.883789062 423.0546875 568.240234375 413.166992188 565.133789062 408.876953125 c 0
 555.860351562 396.086914062 530.403320312 374.423828125 518.071289062 368.829101562 c 0
 509.4375 364.908203125 505.920898438 364.750976562 498.58203125 367.940429688 c 0
193.01953125 348.403320312 m 0
 165.323242188 357.850585938 148.927734375 375.708984375 125.015625 422.469726562 c 0
 115.513671875 441.046875 114.337890625 444.423828125 114.4609375 452.708984375 c 0
 114.703125 468.639648438 125.138671875 484.71484375 139.004882812 490.504882812 c 0
 152.256835938 496.041992188 164.47265625 492.614257812 177.3515625 479.741210938 c 0
 188.624023438 468.475585938 197.74609375 451.30078125 213.233398438 412.188476562 c 0
 225.435546875 381.362304688 226.693359375 373.26171875 221.142578125 361.237304688 c 0
 214.853515625 347.606445312 206.513671875 343.801757812 193.01953125 348.403320312 c 0
359.450195312 132.688476562 m 0
 382.279296875 138.477539062 398.747070312 146.1171875 419.200195312 160.407226562 c 0
 455.615234375 185.850585938 469.59765625 199.4921875 469.59765625 209.557617188 c 0
 469.59765625 221.408203125 462.713867188 225.780273438 439.478515625 228.698242188 c 0
 415.625 231.692382812 389.778320312 231.655273438 380.436523438 228.61328125 c 0
 375.9453125 227.150390625 359.365234375 225.509765625 338.559570312 224.473632812 c 0
 300.517578125 222.577148438 265.688476562 216.759765625 253.71875 210.303710938 c 0
 249.477539062 208.012695312 245.84375 204.311523438 243.872070312 200.271484375 c 0
 241.092773438 194.581054688 240.98046875 192.984375 242.890625 185.991210938 c 0
 244.58984375 179.752929688 247.689453125 175.487304688 257.779296875 165.490234375 c 0
 290.732421875 132.838867188 321.237304688 122.995117188 359.450195312 132.688476562 c 0
319.23828125 63.8779296875 m 0
 281.845703125 69.8935546875 271.963867188 74.4833984375 242.983398438 99.2978515625 c 0
 219.283203125 119.590820312 163.798828125 173.750976562 156.436523438 183.780273438 c 0
 146.166015625 197.772460938 141.807617188 208.299804688 140.806640625 221.538085938 c 0
 139.305664062 241.375976562 146.31640625 251.2265625 169.951171875 262.478515625 c 0
 181.291992188 267.87890625 238.006835938 283.13671875 246.609375 283.098632812 c 0
 248.670898438 283.098632812 258.674804688 284.541992188 268.83984375 286.319335938 c 0
 287.173828125 289.524414062 310.703125 292.0234375 349.48046875 294.877929688 c 0
 360.568359375 295.690429688 399.556640625 296.5078125 436.122070312 296.692382812 c 0
 501.1796875 297.020507812 502.854492188 296.9453125 514.243164062 293.212890625 c 0
 528.981445312 288.375976562 538.829101562 278.76171875 547.944335938 260.297851562 c 0
 553.90234375 248.239257812 554.431640625 246.028320312 554.346679688 233.630859375 c 0
 554.189453125 210.716796875 545.418945312 192.46484375 514.899414062 151.534179688 c 0
 497.471679688 128.163085938 496.26171875 126.956054688 471.942382812 108.741210938 c 0
 436.703125 82.3447265625 416.41796875 72.4091796875 383.646484375 65.4873046875 c 0
 365.708984375 61.7001953125 337.19921875 60.9892578125 319.23828125 63.8779296875 c 0
EndSplineSet
Validated: 33
Ligature2: "'liga' Standard Ligatures in Latin lookup 0-1" k a l a m a
EndChar

StartChar: Tok.kama
Encoding: 278 989462 22
Width: 700
VWidth: 6902
Flags: W
LayerCount: 2
Fore
SplineSet
156.610351562 55.4951171875 m 0
 144.415039062 58.455078125 134.400390625 64.8466796875 123.493164062 76.625 c 0
 113.57421875 87.3408203125 103.65234375 105.598632812 100.661132812 118.645507812 c 0
 95.17578125 142.567382812 102.182617188 161.041992188 119.846679688 169.217773438 c 0
 134.916015625 176.197265625 148.017578125 172.19140625 165.873046875 155.142578125 c 0
 179.821289062 141.823242188 190.827148438 136.313476562 207.360351562 134.368164062 c 0
 224.8125 132.317382812 237.834960938 141.563476562 249.267578125 164.125 c 0
 261.989257812 189.229492188 307.379882812 313.975585938 316.252929688 348.213867188 c 0
 317.66796875 353.682617188 326.72265625 380.434570312 336.368164062 407.662109375 c 0
 366.200195312 491.877929688 387.186523438 524.125976562 424.271484375 542.75390625 c 0
 440.229492188 550.768554688 454.752929688 547.217773438 470.205078125 531.518554688 c 0
 481.23828125 520.311523438 486.741210938 508.700195312 487.96484375 494.041015625 c 0
 491.7109375 449.15625 518.685546875 337.067382812 532.217773438 310.165039062 c 0
 533.844726562 306.930664062 539.928710938 294.834960938 545.735351562 283.286132812 c 0
 556.501953125 261.875976562 568.024414062 243.633789062 584.994140625 221.123046875 c 0
 597.360351562 204.719726562 601.165039062 194.500976562 601.165039062 177.6875 c 0
 601.165039062 158.475585938 598.009765625 149.745117188 587.366210938 139.495117188 c 0
 560.91796875 114.034179688 542.857421875 103.008789062 512.967773438 94.083984375 c 0
 493.65625 88.3173828125 465.888671875 87.576171875 452.513671875 92.4638671875 c 0
 441.245117188 96.5830078125 427.309570312 105.684570312 423.59765625 111.3515625 c 0
 417.333007812 120.911132812 421.977539062 138.096679688 433.578125 148.282226562 c 0
 442.598632812 156.202148438 449.844726562 160.047851562 464.91796875 164.907226562 c 0
 482.958007812 170.725585938 492.063476562 179.047851562 496.288085938 193.571289062 c 0
 502.204101562 213.920898438 497.384765625 227.702148438 473.069335938 260.008789062 c 0
 459.927734375 277.46484375 455.874023438 284.352539062 450.3125 298.649414062 c 0
 442.587890625 318.504882812 436.44921875 338.247070312 431.579101562 358.883789062 c 0
 427.040039062 378.124023438 421.831054688 382.284179688 412.431640625 374.186523438 c 0
 406.7265625 369.278320312 405.595703125 364.869140625 405.260742188 346.286132812 c 0
 405.038085938 334.114257812 403.650390625 322.387695312 401.189453125 311.942382812 c 0
 394.934570312 285.374023438 392.159179688 277.963867188 358.8515625 198.796875 c 0
 343.248046875 161.71875 314.76953125 115.774414062 292.4296875 91.6474609375 c 0
 280.279296875 78.5224609375 260.885742188 64.8232421875 248.909179688 60.9052734375 c 0
 226.446289062 53.5537109375 176.635742188 50.634765625 156.610351562 55.4951171875 c 0
EndSplineSet
Validated: 33
Ligature2: "'liga' Standard Ligatures in Latin lookup 0-1" k a m a
EndChar

StartChar: Tok.kasi
Encoding: 279 989463 23
Width: 700
VWidth: 6891
Flags: W
HStem: 467.469 69.7676<168.34 236.399>
VStem: 86.3564 72.752<395.607 464.63> 271.74 105.226<-22.7169 264.753>
LayerCount: 2
Fore
SplineSet
282.342773438 337.00390625 m 0
 293.502929688 359.119140625 286.266601562 398.825195312 267.587890625 417.955078125 c 0
 254.729492188 431.125 229.491210938 452.880859375 222.033203125 457.224609375 c 0
 214.349609375 461.702148438 199.306640625 465.63671875 182.88671875 467.46875 c 0
 174.051757812 468.456054688 172.181640625 468.138671875 168.15234375 464.969726562 c 0
 159.0703125 457.826171875 155.508789062 444.161132812 159.108398438 430.28125 c 0
 160.3046875 425.666015625 164.939453125 416.396484375 169.40625 409.677734375 c 0
 186.8515625 383.4375 258.099609375 328.025390625 272.806640625 329.262695312 c 0
 277.858398438 329.686523438 279.202148438 330.77734375 282.342773438 337.00390625 c 0
399.825195312 330.807617188 m 0
 418.744140625 337.88671875 441.873046875 356.69140625 461.188476562 380.703125 c 0
 484.078125 409.158203125 512.478515625 456.28125 521.385742188 480.58984375 c 0
 532.538085938 511.033203125 535.604492188 541.876953125 527.948242188 546.611328125 c 0
 524.11328125 548.983398438 512.225585938 547.30859375 503.875 543.224609375 c 0
 485.28125 534.125 453.842773438 502.62890625 439.826171875 479.0546875 c 0
 425.78515625 455.443359375 390.227539062 376.642578125 384.208984375 355.796875 c 0
 381.942382812 347.94140625 379.006835938 338.275390625 377.6875 334.318359375 c 0
 376.368164062 330.359375 375.288085938 326.681640625 375.288085938 326.1484375 c 0
 375.288085938 324.470703125 390.723632812 327.403320312 399.825195312 330.807617188 c 0
308.927734375 -38.421875 m 0
 297.563476562 -34.6796875 292.026367188 -31.080078125 284.140625 -22.3095703125 c 0
 272.291015625 -9.1298828125 270.33203125 0.515625 271.740234375 38.728515625 c 0
 272.359375 55.572265625 273.569335938 78.052734375 274.423828125 88.67578125 c 0
 275.278320312 99.3017578125 276.484375 127.654296875 277.103515625 151.67578125 c 0
 278.131835938 191.6796875 277.940429688 196.73046875 274.823242188 211.673828125 c 0
 270.7734375 231.095703125 262.932617188 248.044921875 250.51171875 264.236328125 c 0
 241.942382812 275.40625 240.0625 276.796875 213.046875 291.965820312 c 0
 179.872070312 310.59375 168.815429688 317.9453125 148.84375 334.65234375 c 0
 105.282226562 371.095703125 86.4560546875 403.309570312 86.3564453125 441.587890625 c 0
 86.28515625 467.974609375 97.2529296875 502.646484375 109.274414062 514.0546875 c 0
 119.825195312 524.06640625 156.004882812 537.236328125 172.951171875 537.236328125 c 0
 185.618164062 537.236328125 211.13671875 534.573242188 222.063476562 532.112304688 c 0
 240.456054688 527.969726562 277.342773438 505.705078125 295.48828125 487.788085938 c 0
 308.674804688 474.76953125 316.447265625 463.12109375 331.428710938 433.91796875 c 0
 338.06640625 420.98046875 344.977539062 408.904296875 346.791992188 407.083007812 c 0
 350.06640625 403.788085938 350.086914062 403.8046875 350.086914062 410.234375 c 0
 350.086914062 418.560546875 359.588867188 450.638671875 364.319335938 458.27734375 c 0
 366.322265625 461.510742188 370.341796875 469.296875 373.25390625 475.579101562 c 0
 376.163085938 481.861328125 381.477539062 491.30859375 385.059570312 496.579101562 c 0
 388.645507812 501.845703125 396.561523438 513.716796875 402.65234375 522.955078125 c 0
 415.483398438 542.4140625 454.943359375 590.286132812 466.561523438 600.4921875 c 0
 476.168945312 608.931640625 516.29296875 631.985351562 525.647460938 634.443359375 c 0
 534.9921875 636.896484375 554.663085938 639.908203125 562.069335938 640.017578125 c 0
 571.092773438 640.150390625 577.030273438 635.034179688 589.396484375 616.454101562 c 0
 607.313476562 589.541015625 611.729492188 576.91796875 613.297851562 548.125 c 0
 614.056640625 534.20703125 613.612304688 526.185546875 611.513671875 515.822265625 c 0
 607.272460938 494.897460938 600.75390625 473.689453125 595.118164062 462.478515625 c 0
 584.70703125 441.775390625 540.499023438 378.939453125 514.614257812 348.05078125 c 0
 493.805664062 323.2265625 474.849609375 310.990234375 406.91796875 278.537109375 c 0
 384.612304688 267.8828125 376.965820312 260.421875 376.965820312 249.309570312 c 0
 376.965820312 241.564453125 384.211914062 191.419921875 390.466796875 155.875976562 c 0
 397.477539062 116.04296875 392.583007812 67.5625 376.935546875 21.884765625 c 0
 365.9296875 -10.248046875 363.3828125 -15.265625 353.3203125 -24.677734375 c 0
 339.340820312 -37.755859375 322.624023438 -42.9296875 308.927734375 -38.421875 c 0
EndSplineSet
Validated: 33
Ligature2: "'liga' Standard Ligatures in Latin lookup 0-1" k a s i
EndChar

StartChar: Tok.ken
Encoding: 280 989464 24
Width: 700
VWidth: 6899
Flags: W
VStem: 105.591 132.084<37.5976 261.135>
LayerCount: 2
Fore
SplineSet
157.919921875 -40.873046875 m 0
 138.075195312 -34.529296875 120.96875 -19.494140625 114.782226562 -2.96484375 c 0
 109.005859375 12.470703125 105.79296875 34.216796875 105.590820312 59.1845703125 c 0
 105.341796875 90.048828125 108.91015625 152.344726562 113.09375 190.2265625 c 0
 114.928710938 206.857421875 117.509765625 235.961914062 118.825195312 254.904296875 c 0
 120.141601562 273.846679688 122.455078125 301.819335938 123.97265625 317.06640625 c 0
 125.99609375 337.458984375 126.440429688 352.364257812 125.651367188 373.459960938 c 0
 125.056640625 389.23046875 125.336914062 413.802734375 126.276367188 428.05859375 c 0
 127.212890625 442.318359375 128.361328125 485.736328125 128.826171875 524.544921875 c 0
 129.657226562 593.580078125 130.48046875 604.443359375 135.634765625 614.41015625 c 0
 139.28515625 621.470703125 152.4921875 632.306640625 164.862304688 638.390625 c 0
 173.984375 642.877929688 177.823242188 643.810546875 186.856445312 643.75 c 0
 205.251953125 643.619140625 215.799804688 635.713867188 230.412109375 611.125 c 0
 244.346679688 587.6640625 244.975585938 582.974609375 240.190429688 537.984375 c 0
 232.948242188 469.86328125 233.064453125 449.423828125 240.81640625 428.708007812 c 0
 244.924804688 417.72265625 249.678710938 415.3203125 264.639648438 416.673828125 c 0
 272.706054688 417.401367188 278.977539062 419.588867188 292.215820312 426.28125 c 0
 317.508789062 439.064453125 335.186523438 451.455078125 371.68359375 481.973632812 c 0
 410.908203125 514.775390625 435.944335938 538.684570312 448.413085938 555.244140625 c 0
 463.825195312 575.721679688 479.728515625 588.87109375 497.611328125 595.91796875 c 0
 514.076171875 602.409179688 546.365234375 598.865234375 558.622070312 589.22265625 c 0
 568.787109375 581.228515625 574.125976562 558.0234375 569.874023438 540.311523438 c 0
 566.83203125 527.62109375 546.6796875 486.526367188 534.819335938 468.82421875 c 0
 517.15234375 442.458984375 478.395507812 404.724609375 448.587890625 384.873046875 c 0
 438.822265625 378.368164062 432.27734375 375.9140625 400.196289062 366.72265625 c 0
 366.532226562 357.083984375 362.366210938 355.481445312 355.208984375 349.424804688 c 0
 350.87109375 345.75390625 346.602539062 340.732421875 345.723632812 338.265625 c 0
 343.328125 331.544921875 348.762695312 327.399414062 374.739257812 316.140625 c 0
 397.21875 306.399414062 433.3984375 286.8046875 450.631835938 275.0390625 c 0
 455.720703125 271.563476562 465.930664062 263.510742188 473.323242188 257.139648438 c 0
 480.712890625 250.768554688 492.809570312 240.75 500.202148438 234.875 c 0
 507.595703125 229 515.395507812 222.21875 517.541992188 219.80859375 c 0
 523.87890625 212.681640625 544.270507812 181.9609375 547.004882812 175.412109375 c 0
 548.395507812 172.086914062 552.58984375 164.129882812 556.325195312 157.731445312 c 0
 563.284179688 145.81640625 586.899414062 85.376953125 589.903320312 71.787109375 c 0
 590.823242188 67.626953125 592.395507812 57.595703125 593.400390625 49.4912109375 c 0
 595.091796875 35.8193359375 594.924804688 33.6591796875 591.055664062 19.5361328125 c 0
 584.629882812 -3.900390625 574.987304688 -17.265625 559.96875 -23.541015625 c 0
 540.889648438 -31.51171875 495.790039062 -12.8828125 472.22265625 12.7001953125 c 0
 467.284179688 18.0595703125 449.71875 39.671875 433.196289062 60.7265625 c 0
 404.954101562 96.703125 380.830078125 132.859375 354.384765625 178.84375 c 0
 335.61328125 211.486328125 293.688476562 257.771484375 277.18359375 264.07421875 c 0
 267.415039062 267.803710938 257.0546875 266.7890625 251.483398438 261.552734375 c 0
 242.299804688 252.92578125 238.444335938 225.95703125 240.317382812 183.505859375 c 0
 240.966796875 168.720703125 240.641601562 133.190429688 239.588867188 104.544921875 c 2
 237.674804688 52.46484375 l 1
 229.796875 25.5859375 l 2
 220.103515625 -7.49609375 214.3203125 -19.896484375 203.5703125 -30.646484375 c 0
 190.565429688 -43.65234375 176.483398438 -46.806640625 157.919921875 -40.873046875 c 0
EndSplineSet
Validated: 33
Ligature2: "'liga' Standard Ligatures in Latin lookup 0-1" k e n
EndChar

StartChar: Tok.kepeken
Encoding: 281 989465 25
Width: 700
VWidth: 6953
Flags: W
HStem: 31.5928 79.1396<93.8582 158.76> 394.564 43.083<432.154 507.285> 566.676 62.5586<432.595 526.683>
VStem: 337.719 89.9707<259.57 377.42 437.73 539.957> 539.594 76.4805<448.025 558.24>
LayerCount: 2
Fore
SplineSet
507.8203125 443.337890625 m 0
 519.657226562 446.698242188 529.859375 456.8046875 534.97265625 470.227539062 c 0
 537.79296875 477.634765625 538.96484375 485.047851562 539.59375 499.471679688 c 0
 540.896484375 529.259765625 536.483398438 550.1640625 527.104492188 558.646484375 c 0
 518.419921875 566.501953125 490.467773438 570.442382812 470.120117188 566.67578125 c 0
 438.658203125 560.85546875 429.186523438 551.60546875 429.159179688 526.67578125 c 0
 429.159179688 521.770507812 428.3046875 512.634765625 427.26953125 506.373046875 c 0
 425.717773438 496.956054688 425.84375 493.415039062 428.010742188 485.888671875 c 0
 429.453125 480.884765625 431.162109375 469.984375 431.80859375 461.668945312 c 0
 433.182617188 443.950195312 434.600585938 439.353515625 439.208007812 437.647460938 c 0
 443.990234375 435.880859375 497.057617188 440.279296875 507.8203125 443.337890625 c 0
306.700195312 433.942382812 m 0
 313.891601562 435.271484375 317.015625 436.953125 321.9140625 442.12890625 c 0
 330.236328125 450.9296875 331.829101562 457.26953125 333.374023438 487.7109375 c 0
 335.36328125 526.856445312 332.967773438 533.500976562 314.322265625 540.624023438 c 0
 308.026367188 543.02734375 305.462890625 543.169921875 297.666992188 541.553710938 c 0
 279.428710938 537.766601562 267.643554688 526.435546875 259.228515625 504.591796875 c 0
 254.381835938 492.017578125 252.83984375 461.173828125 256.603515625 452.1640625 c 0
 259.51171875 445.201171875 270.346679688 437.9453125 282.874023438 434.568359375 c 0
 292.560546875 431.95703125 295.52734375 431.877929688 306.700195312 433.942382812 c 0
530.293945312 -26.337890625 m 0
 504.426757812 -13.39453125 496.376953125 -2.703125 477.814453125 43.3505859375 c 0
 459.241210938 89.427734375 448.498046875 109.478515625 432.321289062 128.27734375 c 0
 419.848632812 142.76953125 408.997070312 150.0390625 399.884765625 150.004882812 c 0
 383.016601562 149.947265625 356.370117188 140.0859375 340.982421875 128.211914062 c 0
 331.224609375 120.685546875 321.640625 109.23828125 300.8828125 80.30859375 c 0
 288.796875 63.46484375 285.560546875 57.525390625 281.1953125 44.19140625 c 0
 272.75 18.3828125 265.561523438 4.970703125 253.69140625 -7.13671875 c 0
 240.791992188 -20.2919921875 232.044921875 -24.6015625 218.14453125 -24.6533203125 c 0
 206.120117188 -24.6943359375 201.7109375 -22.03515625 180.809570312 -2.125 c 0
 163.416015625 14.4453125 152.129882812 22.025390625 130.61328125 31.5927734375 c 0
 98.9462890625 45.671875 87.833984375 54.845703125 84.5087890625 69.64453125 c 0
 81.0390625 85.083984375 92.6533203125 107.4140625 105.884765625 110.732421875 c 0
 119.290039062 114.099609375 146.736328125 101.647460938 165.073242188 83.884765625 c 0
 176.021484375 73.2783203125 178.061523438 71.986328125 183.899414062 71.986328125 c 0
 198.279296875 71.986328125 206.612304688 85.521484375 217.549804688 126.63671875 c 0
 226.282226562 159.47265625 230.896484375 171.08984375 241.840820312 187.83203125 c 0
 253.489257812 205.642578125 267.338867188 219.02734375 281.985351562 226.635742188 c 0
 298.330078125 235.123046875 313.239257812 245.896484375 321.271484375 255.018554688 c 0
 326.295898438 260.73046875 328.711914062 265.518554688 330.821289062 273.96484375 c 0
 332.375976562 280.181640625 335.479492188 292.103515625 337.71875 300.45703125 c 0
 344.537109375 325.890625 342.732421875 364.90625 334.129882812 378.0546875 c 0
 329.057617188 385.810546875 322.618164062 387.451171875 292.232421875 388.743164062 c 0
 276.5234375 389.41015625 259.92578125 390.821289062 255.348632812 391.876953125 c 0
 235.948242188 396.35546875 218.424804688 409.712890625 209.934570312 426.494140625 c 0
 206.1953125 433.880859375 204.978515625 439.63671875 203.12890625 458.661132812 c 0
 201.888671875 471.403320312 199.936523438 489.056640625 198.794921875 497.885742188 c 0
 196.76171875 513.57421875 196.819335938 514.28515625 201.35546875 528.96484375 c 0
 212.484375 564.998046875 226.958984375 580.504882812 267.076171875 599.375 c 0
 281.188476562 606.013671875 287.142578125 607.763671875 304.831054688 610.48046875 c 0
 316.379882812 612.25390625 342.086914062 617.063476562 361.952148438 621.16796875 c 0
 424.333007812 634.05078125 431.001953125 634.713867188 464.450195312 631.34765625 c 0
 480.196289062 629.764648438 498.919921875 628.810546875 506.056640625 629.234375 c 0
 515.938476562 629.819335938 524.838867188 628.85546875 543.391601562 625.1953125 c 0
 574.372070312 619.083984375 576.94921875 618.1953125 587.219726562 610.07421875 c 0
 596.739257812 602.55078125 604.193359375 591.845703125 607.966796875 580.286132812 c 0
 612.314453125 566.966796875 615.171875 526.052734375 616.07421875 464.19140625 c 0
 616.279296875 450.061523438 615.7734375 447.07421875 611.685546875 438.150390625 c 0
 605.79296875 425.288085938 595.884765625 415.184570312 583.908203125 409.828125 c 0
 578.712890625 407.50390625 560.744140625 402.88671875 543.927734375 399.560546875 c 2
 513.384765625 393.514648438 l 1
 480.086914062 394.564453125 l 2
 447.442382812 395.592773438 446.642578125 395.53515625 439.232421875 391.682617188 c 0
 432.731445312 388.302734375 431.114257812 386.33984375 427.689453125 377.693359375 c 0
 424.155273438 368.76171875 423.516601562 363.29296875 421.999023438 328.97265625 c 0
 420.700195312 299.572265625 420.778320312 287.9921875 422.323242188 280.6328125 c 0
 424.86328125 268.556640625 430.8515625 260.911132812 437.772460938 260.911132812 c 0
 446.745117188 260.911132812 468.28125 255.677734375 476.536132812 251.494140625 c 0
 480.993164062 249.23828125 492.908203125 244.477539062 503.014648438 240.916015625 c 0
 513.122070312 237.357421875 525.016601562 232.3203125 529.453125 229.725585938 c 0
 568.22265625 207.037109375 591.735351562 149.936523438 596.516601562 66.869140625 c 0
 597.703125 46.24609375 594.404296875 22.822265625 587.100585938 0.0244140625 c 0
 581.303710938 -18.07421875 576.204101562 -25.361328125 566.141601562 -29.9306640625 c 0
 555.015625 -34.986328125 545.705078125 -34.052734375 530.293945312 -26.337890625 c 0
EndSplineSet
Validated: 33
Ligature2: "'liga' Standard Ligatures in Latin lookup 0-1" k e p e k e n
EndChar

StartChar: Tok.kili
Encoding: 282 989466 26
Width: 700
VWidth: 7877
Flags: W
HStem: 100.461 75.8135<329.021 438.825> 353.465 59.9346<407.836 532.913>
VStem: 556.698 70.5469<183.655 329.626>
LayerCount: 2
Fore
SplineSet
266.922851562 140.01953125 m 0
 273.540039062 141.47265625 290.756835938 148.698242188 310.604492188 158.353515625 c 0
 338.905273438 172.12109375 345.232421875 174.55859375 357.088867188 176.274414062 c 0
 383.00390625 180.020507812 406.557617188 173.455078125 442.380859375 152.48828125 c 0
 471.485351562 135.45703125 480.040039062 134.322265625 506.0234375 144.046875 c 0
 516.780273438 148.069335938 523.892578125 155.318359375 534.006835938 172.572265625 c 0
 546.954101562 194.66015625 556.661132812 235.979492188 556.698242188 269.174804688 c 0
 556.732421875 290.93359375 556.702148438 291.063476562 550.463867188 304.185546875 c 0
 532.697265625 341.564453125 517.532226562 351.390625 474.404296875 353.46484375 c 0
 456.8046875 354.3125 452.4296875 353.954101562 439.96484375 350.625 c 0
 423.315429688 346.177734375 418.625976562 344.000976562 407.213867188 335.415039062 c 0
 402.588867188 331.935546875 393.049804688 325.995117188 386.015625 322.208007812 c 0
 368.880859375 312.993164062 343.806640625 308.857421875 324.16015625 312.01171875 c 0
 307.077148438 314.75390625 285.657226562 322.115234375 273.977539062 329.259765625 c 0
 258.596679688 338.662109375 254.262695312 340.487304688 240.54296875 343.32421875 c 0
 224.133789062 346.71875 206.456054688 345.764648438 197.127929688 340.979492188 c 0
 183.583007812 334.034179688 168.708007812 313.095703125 161.065429688 290.212890625 c 0
 157.72265625 280.201171875 157.483398438 276.705078125 158.091796875 246.53125 c 0
 158.6796875 217.375 159.267578125 211.7734375 163.392578125 196.095703125 c 0
 165.942382812 186.391601562 169.241210938 176.564453125 170.724609375 174.25390625 c 0
 191.587890625 141.725585938 223.295898438 130.443359375 266.922851562 140.01953125 c 0
236.684570312 61.236328125 m 0
 226.68359375 62.404296875 186.477539062 71.673828125 175.60546875 75.3212890625 c 0
 157.739257812 81.3095703125 145.705078125 88.72265625 132.364257812 101.95703125 c 0
 114.881835938 119.296875 93.2216796875 148.90625 87.9482421875 162.670898438 c 0
 81.7412109375 178.875 73.6435546875 211.9375 72.560546875 225.506835938 c 0
 70.1953125 255.133789062 84.5263671875 318.546875 101.032226562 351.493164062 c 0
 128.116210938 405.55859375 170.8203125 437.995117188 214.84375 437.943359375 c 0
 230.409179688 437.91015625 235.727539062 435.654296875 264.844726562 416.571289062 c 0
 300.439453125 393.247070312 302.548828125 392.197265625 314.302734375 391.986328125 c 0
 321.990234375 391.845703125 324.649414062 392.525390625 327.461914062 395.33203125 c 0
 330.890625 398.75390625 330.9140625 399.142578125 328.357421875 409.017578125 c 0
 321.258789062 436.409179688 328.614257812 471.833007812 347.358398438 500.5234375 c 0
 363.45703125 525.166992188 386.893554688 539.607421875 410.83984375 539.638671875 c 0
 421.517578125 539.638671875 423.684570312 539.084960938 430.06640625 534.59765625 c 0
 441.034179688 526.889648438 445.84375 516.150390625 445.84375 499.37890625 c 0
 445.84375 487.548828125 445.224609375 484.76953125 440.805664062 476.741210938 c 0
 438.033203125 471.709960938 429.666015625 461.125 422.21484375 453.22265625 c 0
 405.364257812 435.356445312 403.005859375 431.904296875 403.005859375 425.16015625 c 0
 403.005859375 421.3046875 404.315429688 418.728515625 407.624023438 416.076171875 c 0
 412.20703125 412.408203125 412.624023438 412.384765625 457.604492188 413.399414062 c 0
 509.926757812 414.578125 524.40234375 412.7265625 547.12109375 401.935546875 c 0
 574.396484375 388.984375 592.638671875 371.89453125 604.290039062 348.37890625 c 0
 618.772460938 319.1484375 625.40625 295.7734375 627.245117188 267.493164062 c 0
 628.212890625 252.65625 627.833007812 248.759765625 623.998046875 234.1640625 c 0
 613.607421875 194.6015625 590.068359375 147.375 564.5390625 114.884765625 c 0
 544.71875 89.65234375 506.440429688 72.8359375 476.0859375 76.021484375 c 0
 461.245117188 77.580078125 454.340820312 79.6279296875 436.369140625 87.810546875 c 0
 415.043945312 97.517578125 387.936523438 103.26953125 376.76953125 100.4609375 c 0
 372.572265625 99.400390625 356.532226562 92.236328125 341.130859375 84.5390625 c 0
 325.725585938 76.841796875 308.020507812 69.271484375 301.783203125 67.7197265625 c 0
 274.44921875 60.9140625 255.568359375 59.03515625 236.684570312 61.236328125 c 0
EndSplineSet
Validated: 33
Ligature2: "'liga' Standard Ligatures in Latin lookup 0-1" k i l i
EndChar

StartChar: tok.kiwen
Encoding: 283 989467 27
Width: 700
VWidth: 7916
Flags: W
HStem: 472.575 99.3193<264.009 443.556>
LayerCount: 2
Fore
SplineSet
388.1953125 172.78515625 m 0
 394.118164062 175.08203125 399.276367188 180.63671875 410.1484375 196.430664062 c 0
 414.899414062 203.334960938 426.599609375 218.428710938 436.145507812 229.970703125 c 0
 445.692382812 241.513671875 456.578125 256.275390625 460.341796875 262.77734375 c 0
 464.1015625 269.27734375 474.365234375 286.692382812 483.149414062 301.478515625 c 0
 497.659179688 325.892578125 508.592773438 350.362304688 515.610351562 374.110351562 c 0
 517.616210938 380.908203125 514.93359375 391.849609375 509.495117188 399.041015625 c 0
 507.348632812 401.880859375 487.576171875 417.7578125 465.553710938 434.321289062 c 0
 443.53515625 450.884765625 421.557617188 467.619140625 416.71484375 471.505859375 c 0
 403.254882812 482.31640625 398.021484375 483.150390625 370.069335938 478.943359375 c 0
 331.747070312 473.169921875 313.095703125 471.43359375 301.778320312 472.575195312 c 0
 289.081054688 473.860351562 272.06640625 471.392578125 263.606445312 467.041015625 c 0
 255.174804688 462.704101562 251.848632812 458.810546875 225.516601562 422.4375 c 0
 212.805664062 404.8828125 199.215820312 386.736328125 195.315429688 382.119140625 c 0
 180.741210938 364.857421875 179.583007812 357.296875 188.83203125 339.834960938 c 0
 199.981445312 318.787109375 209.278320312 306.03515625 233.89453125 278.038085938 c 0
 247.323242188 262.763671875 264.649414062 242.115234375 272.39453125 232.155273438 c 0
 280.139648438 222.1953125 287.7890625 212.959960938 289.388671875 211.630859375 c 0
 290.991210938 210.30078125 295.25390625 204.869140625 298.856445312 199.561523438 c 0
 308.782226562 184.946289062 318.55078125 178.52734375 339.533203125 172.830078125 c 0
 352.6484375 169.267578125 379.048828125 169.244140625 388.1953125 172.78515625 c 0
373.4296875 28.365234375 m 0
 369.734375 30.115234375 364.700195312 33.3115234375 362.2421875 35.4716796875 c 0
 357.026367188 40.0546875 322.59375 79.150390625 307.71875 97.375 c 0
 302.072265625 104.295898438 285.81640625 120.982421875 271.6015625 134.458984375 c 0
 251.838867188 153.189453125 239.41796875 163.251953125 218.869140625 177.169921875 c 0
 196.245117188 192.49609375 188.127929688 199.260742188 167.599609375 219.8671875 c 0
 154.18359375 233.337890625 136.038085938 253.72265625 127.27734375 265.166015625 c 0
 118.517578125 276.61328125 105.853515625 292.423828125 99.1376953125 300.306640625 c 0
 83.021484375 319.21484375 77.306640625 331.02734375 74.849609375 350.4921875 c 0
 72.484375 369.21875 74.234375 374.828125 87.8447265625 392.198242188 c 0
 92.9169921875 398.665039062 113.967773438 426.2578125 134.6328125 453.516601562 c 0
 155.297851562 480.775390625 178.16796875 509.755859375 185.458007812 517.91796875 c 0
 192.745117188 526.083984375 201.508789062 536.392578125 204.926757812 540.828125 c 0
 216.233398438 555.495117188 231.245117188 565.489257812 249.234375 570.318359375 c 0
 257.303710938 572.486328125 264.123046875 572.783203125 285.228515625 571.89453125 c 0
 299.553710938 571.29296875 348.782226562 571.693359375 394.630859375 572.783203125 c 2
 477.9921875 574.76953125 l 1
 485.350585938 571.029296875 l 2
 499.931640625 563.619140625 538.834960938 521.5859375 559.127929688 491.31640625 c 0
 564.083984375 483.92578125 577.854492188 465.479492188 589.735351562 450.328125 c 0
 612.704101562 421.032226562 616.529296875 414.866210938 621.618164062 398.91796875 c 0
 626.38671875 383.970703125 627.555664062 352.962890625 623.836914062 340.169921875 c 0
 618.197265625 320.762695312 602.508789062 301.553710938 579.35546875 285.694335938 c 0
 555.928710938 269.650390625 519.092773438 227.71875 503.923828125 199.837890625 c 0
 500.66015625 193.830078125 495.973632812 185.892578125 493.516601562 182.198242188 c 0
 486.991210938 172.388671875 450.532226562 97.3642578125 443.78125 79.8505859375 c 0
 435.188476562 57.568359375 428.400390625 45.923828125 419.17578125 37.62890625 c 0
 405.889648438 25.6826171875 387.142578125 21.884765625 373.4296875 28.365234375 c 0
EndSplineSet
Validated: 33
Ligature2: "'liga' Standard Ligatures in Latin lookup 0-1" k i w e n
EndChar

StartChar: Tok.ko
Encoding: 284 989468 28
Width: 700
VWidth: 7925
Flags: W
HStem: 44.3359 95.5938<397.694 465.856>
VStem: 137.378 86.8301<239.217 324.965>
LayerCount: 2
Fore
SplineSet
451.006835938 144.7421875 m 0
 458.543945312 148.198242188 461.291992188 150.560546875 464.033203125 155.93359375 c 0
 472.913085938 173.337890625 474.663085938 194.138671875 469.262695312 218.078125 c 0
 461.72265625 251.509765625 458.25 279.013671875 458.318359375 304.806640625 c 0
 458.3828125 329.6484375 458.475585938 330.255859375 464.73046875 347.646484375 c 0
 472.708007812 369.830078125 474.290039062 386.619140625 470.151367188 405.21875 c 0
 465.970703125 424.01171875 458.721679688 429.8828125 441.331054688 428.553710938 c 0
 439.419921875 428.40625 430.758789062 423.73828125 422.087890625 418.176757812 c 0
 403.866210938 406.494140625 396.37109375 404.015625 383.334960938 405.366210938 c 0
 371.146484375 406.626953125 362.984375 410.244140625 341.618164062 423.83984375 c 0
 315.409179688 440.516601562 297.252929688 446.419921875 288.930664062 440.967773438 c 0
 283.458007812 437.37890625 279.333007812 427.049804688 279.326171875 416.912109375 c 0
 279.326171875 402.57421875 275.709960938 378.96875 271.46484375 365.501953125 c 0
 267.848632812 354.025390625 266.030273438 351.034179688 257.676757812 342.82421875 c 0
 252.385742188 337.622070312 244.490234375 330.4609375 240.12890625 326.91015625 c 0
 228.12109375 317.127929688 225.051757812 309.840820312 224.208007812 289.107421875 c 0
 223.623046875 274.76953125 224.166992188 269.2421875 227.325195312 257.491210938 c 0
 229.430664062 249.66015625 232.619140625 241.385742188 234.4140625 239.10546875 c 0
 241.680664062 229.8671875 265.08984375 221.4765625 290.252929688 219.09375 c 0
 307.739257812 217.439453125 322.508789062 213.73046875 331.8359375 208.65234375 c 0
 341.987304688 203.12890625 354.004882812 190.11328125 356.729492188 181.6875 c 0
 363.985351562 159.245117188 378.180664062 145.07421875 397.508789062 140.9765625 c 0
 401.350585938 140.162109375 412.807617188 139.69140625 422.97265625 139.9296875 c 0
 438.763671875 140.298828125 442.841796875 141 451.006835938 144.7421875 c 0
376.321289062 44.3359375 m 0
 358.28125 47.4912109375 340.788085938 52.9873046875 329.166992188 59.150390625 c 0
 316.154296875 66.05078125 290.345703125 93.3740234375 278.833984375 112.446289062 c 0
 262.6328125 139.27734375 254.4296875 145.361328125 218.899414062 156.904296875 c 0
 191.798828125 165.708984375 184.624023438 169.813476562 168.946289062 185.46484375 c 0
 158.548828125 195.841796875 153.708984375 202.25390625 149.265625 211.526367188 c 0
 139.216796875 232.4921875 137.380859375 244.16796875 137.377929688 287.166015625 c 2
 137.377929688 324.96484375 l 1
 142.706054688 340.0859375 l 2
 145.635742188 348.40234375 152.013671875 364.607421875 156.876953125 376.09765625 c 2
 165.72265625 396.985351562 l 1
 186.022460938 417.390625 l 2
 207.815429688 439.296875 214.138671875 448.83203125 220.373046875 469.203125 c 0
 222.310546875 475.537109375 223.896484375 485.073242188 223.896484375 490.3984375 c 0
 223.896484375 502.559570312 232.05859375 519.857421875 242.708984375 530.26953125 c 0
 252.463867188 539.798828125 278.259765625 552.294921875 295.083007812 555.633789062 c 0
 323.03125 561.177734375 342.497070312 553.2578125 376.59765625 522.465820312 c 0
 393.708007812 507.013671875 400.1171875 502.20703125 403.610351562 502.20703125 c 0
 406.173828125 502.20703125 414.807617188 506.193359375 423.205078125 511.2578125 c 0
 440.9140625 521.932617188 451.170898438 525.7265625 462.337890625 525.7265625 c 0
 477.899414062 525.7265625 509.10546875 513.31640625 524.045898438 501.181640625 c 0
 539.508789062 488.627929688 553.84375 464.456054688 560.012695312 440.543945312 c 0
 563.123046875 428.485351562 563.239257812 425.709960938 561.482421875 405.60546875 c 0
 558.84375 375.4140625 556.4140625 362.78125 544.79296875 318.877929688 c 0
 534.063476562 278.337890625 533.390625 272.47265625 537.084960938 251.762695312 c 0
 538.916992188 241.484375 540.828125 236.884765625 547.021484375 227.836914062 c 0
 551.239257812 221.677734375 555.477539062 213.795898438 556.444335938 210.3203125 c 0
 561.940429688 190.529296875 554.05859375 155.697265625 537.7890625 127.87890625 c 0
 528.140625 111.379882812 482.018554688 68.5869140625 464.094726562 59.505859375 c 0
 436.200195312 45.369140625 403.09765625 39.646484375 376.321289062 44.3359375 c 0
EndSplineSet
Validated: 33
Ligature2: "'liga' Standard Ligatures in Latin lookup 0-1" k o
EndChar

StartChar: Tok.kon
Encoding: 285 989469 29
Width: 700
VWidth: 7937
Flags: W
HStem: -15.9375 77.9473<354.447 432.552> 21.0928 98.1123<136.701 241.293> 503.416 75.708<511.823 581.157> 532.076 86.3711<244.055 308.617>
VStem: 440.084 61.6709<393.871 494.542>
LayerCount: 2
Fore
SplineSet
189.854492188 21.0927734375 m 0x58
 169.920898438 22.0771484375 162.900390625 23.146484375 151.21484375 26.974609375 c 0
 132.8359375 33.0009765625 128.262695312 35.349609375 120.412109375 42.80078125 c 0
 109.279296875 53.369140625 106.6953125 60.0576171875 106.6953125 78.3125 c 0
 106.6953125 92.517578125 107.228515625 95.365234375 111.555664062 104.176757812 c 0
 117.875976562 117.044921875 127.220703125 126.325195312 136.333007812 128.779296875 c 0
 144.163085938 130.888671875 152.828125 129.25390625 172.21484375 122.015625 c 0
 180.721679688 118.8359375 184.392578125 118.3984375 195.733398438 119.205078125 c 0
 223.5390625 121.19140625 233.62890625 127.336914062 249.046875 151.693359375 c 0
 262.859375 173.50390625 265.791992188 183.4765625 266.745117188 211.89453125 c 0
 267.911132812 246.69921875 268.157226562 245.951171875 233.802734375 312.552734375 c 0
 226.19140625 327.30859375 215.0859375 345.772460938 209.04296875 353.712890625 c 0
 198.211914062 367.951171875 170.536132812 420.951171875 160.696289062 446.298828125 c 0
 151.583984375 469.7734375 151.515625 486.513671875 160.395507812 520.62890625 c 0
 170.068359375 557.798828125 182.307617188 578.21875 206.442382812 597.455078125 c 0
 227.94140625 614.588867188 246.432617188 620.34765625 273.854492188 618.447265625 c 0
 294.123046875 617.04296875 300.842773438 615.060546875 308.998046875 608.081054688 c 0
 323.203125 595.919921875 327.1171875 576.047851562 318.61328125 559.26171875 c 0
 310.474609375 543.208007812 295.029296875 534.669921875 269.41796875 532.076171875 c 0
 247.4609375 529.850585938 242.877929688 523.8828125 242.84375 497.475585938 c 0
 242.805664062 482.357421875 243.376953125 479.291992188 248.353515625 466.884765625 c 0
 257.848632812 443.21484375 288.44921875 394.87109375 314.59375 362.233398438 c 0
 335.26171875 336.431640625 339.415039062 330.162109375 348.520507812 310.994140625 c 0
 359.984375 286.860351562 363.227539062 276.708984375 367.03515625 253.033203125 c 0
 372.09375 221.5703125 370.046875 203.7421875 355.930664062 156.451171875 c 0
 345.515625 121.564453125 334.36328125 95.7578125 320.9375 75.482421875 c 0
 312.245117188 62.361328125 291.8125 43.189453125 277.372070312 34.611328125 c 0
 254.078125 20.775390625 240.08203125 18.611328125 189.854492188 21.0927734375 c 0x58
388.934570312 -15.9375 m 0xa8
 359.392578125 -8.55078125 345.802734375 5.3046875 349.416015625 24.353515625 c 0
 354.40625 50.66796875 367.791015625 63.76953125 387.877929688 62.009765625 c 0
 399.676757812 60.9765625 413.129882812 65.666015625 424.053710938 74.62109375 c 0
 449.282226562 95.30078125 488.017578125 157.439453125 494.689453125 187.927734375 c 0
 501.290039062 218.09375 502.048828125 229.44140625 498.822265625 249.720703125 c 0
 495.106445312 273.103515625 490.653320312 286.671875 473.887695312 325.712890625 c 0
 455.581054688 368.344726562 442.008789062 409.2265625 440.083984375 427.516601562 c 0
 438.0234375 447.083984375 438.094726562 492.587890625 440.213867188 510.119140625 c 0
 442.111328125 525.796875 447.555664062 538.662109375 458.319335938 552.904296875 c 0
 471.002929688 569.68359375 486.271484375 577.544921875 512.33984375 580.712890625 c 0
 525.65625 582.333984375 529.495117188 582.142578125 544.288085938 579.124023438 c 0
 553.537109375 577.237304688 563.189453125 574.615234375 565.739257812 573.29296875 c 0
 573.760742188 569.13671875 586.3359375 556.978515625 589.958984375 549.876953125 c 0
 596.637695312 536.7890625 593.0625 518.73828125 581.502929688 507.1796875 c 0
 574.099609375 499.779296875 568.029296875 499.064453125 549.497070312 503.416015625 c 0
 527.5703125 508.563476562 517.436523438 506.291015625 511.543945312 494.8984375 c 0
 507.780273438 487.615234375 502.024414062 459.0234375 501.754882812 446.233398438 c 0
 501.522460938 435.364257812 501.614257812 435.142578125 521.497070312 397.513671875 c 0
 532.482421875 376.725585938 545.655273438 352.533203125 550.764648438 343.755859375 c 0
 576.071289062 300.306640625 581.174804688 281.716796875 586.267578125 214.396484375 c 0
 588.318359375 187.298828125 587.689453125 182.390625 576.057617188 134.59375 c 0
 565.301757812 90.3984375 560.721679688 80.541015625 535.080078125 46.396484375 c 0
 511.82421875 15.421875 508.190429688 11.484375 493.934570312 1.8427734375 c 0
 468.6484375 -15.267578125 419.525390625 -23.5869140625 388.934570312 -15.9375 c 0xa8
EndSplineSet
Validated: 33
Ligature2: "'liga' Standard Ligatures in Latin lookup 0-1" k o n
EndChar

StartChar: Tok.kule
Encoding: 286 989470 30
Width: 700
VWidth: -2865
Flags: W
HStem: 317.452 84.2051<466.33 546.194> 322.604 86.8574<122.052 218.877>
LayerCount: 2
Fore
SplineSet
332.59375 412.092773438 m 0x00
 337.009765625 415.055664062 338.41796875 417.270507812 338.807617188 421.861328125 c 0
 339.220703125 426.758789062 338.192382812 429.022460938 332.924804688 434.788085938 c 0
 329.415039062 438.629882812 324.509765625 442.243164062 322.025390625 442.813476562 c 0
 317.85546875 443.770507812 317.11328125 443.06640625 312.366210938 433.66015625 c 0
 306.018554688 421.084960938 305.861328125 416.293945312 311.651367188 411.741210938 c 0
 317.438476562 407.188476562 325.494140625 407.321289062 332.59375 412.092773438 c 0x00
243.384765625 112.446289062 m 0
 250.31640625 113.362304688 271.86328125 115.645507812 291.266601562 117.525390625 c 0
 310.666992188 119.405273438 333.348632812 122.129882812 341.665039062 123.575195312 c 0
 349.98046875 125.020507812 370.768554688 126.874023438 387.862304688 127.690429688 c 0
 419.458007812 129.201171875 446.220703125 133.986328125 458.45703125 140.31640625 c 0
 464.267578125 143.321289062 468.501953125 150.676757812 468.501953125 157.768554688 c 0
 468.501953125 165.961914062 460.305664062 189.866210938 453.466796875 201.618164062 c 0
 449.969726562 207.623046875 444.306640625 217.678710938 440.877929688 223.963867188 c 0
 433.8203125 236.897460938 403.123046875 278.637695312 391.413085938 291.219726562 c 0
 378.96875 304.594726562 375.109375 305.702148438 340.82421875 305.725585938 c 2
 311.422851562 305.74609375 l 1
 302.87109375 300.840820312 l 2
 284.762695312 290.454101562 258.310546875 256.161132812 242.11328125 222.081054688 c 0
 236.986328125 211.287109375 231.055664062 199.813476562 228.936523438 196.576171875 c 0
 226.814453125 193.342773438 220.805664062 180.115234375 215.579101562 167.178710938 c 0
 204.354492188 139.400390625 202.587890625 128.264648438 208.029296875 119.624023438 c 0
 212.021484375 113.287109375 220.405273438 108.959960938 226.584960938 110.046875 c 0
 228.892578125 110.45703125 236.456054688 111.534179688 243.384765625 112.446289062 c 0
189.623046875 42.2177734375 m 0
 172.854492188 44.134765625 156.325195312 49.2685546875 140.534179688 57.4541015625 c 0
 118.002929688 69.1376953125 111.259765625 80.3896484375 112.75 103.815429688 c 0
 113.447265625 114.811523438 114.598632812 118.129882812 124.125 136.573242188 c 0
 129.952148438 147.86328125 138.610351562 162.389648438 143.364257812 168.856445312 c 0
 148.119140625 175.327148438 160.6015625 194.979492188 171.1015625 212.538085938 c 0
 181.6015625 230.092773438 195.21875 252.059570312 201.364257812 261.356445312 c 0
 220.453125 290.235351562 225.194335938 304.157226562 219.106445312 313.446289062 c 0
 214.256835938 320.850585938 207.205078125 322.576171875 181.697265625 322.603515625 c 0
 154.083007812 322.633789062 142.411132812 325.026367188 130.154296875 333.161132812 c 0
 109.799804688 346.676757812 106.645507812 370.612304688 122.794921875 388.959960938 c 0
 136.7578125 404.826171875 158.649414062 411.057617188 194.784179688 409.4609375 c 0x40
 217.96875 408.438476562 224.247070312 409.950195312 233.69140625 418.83984375 c 0
 246.65234375 431.038085938 256.916015625 457.811523438 260.094726562 487.71875 c 0
 264.883789062 532.784179688 281.43359375 559.458007812 304.610351562 559.458007812 c 0
 311.3203125 559.458007812 315.045898438 558.340820312 321.061523438 554.526367188 c 0
 332.361328125 547.362304688 350.288085938 522.524414062 361.724609375 498.194335938 c 0
 374.3984375 471.23046875 393.696289062 442.505859375 410.416992188 425.716796875 c 0
 430.01953125 406.036132812 430.04296875 406.026367188 465.142578125 405.735351562 c 0
 490.797851562 405.520507812 496.034179688 405.000976562 506.229492188 401.657226562 c 0
 533.142578125 392.838867188 543.427734375 386.13671875 551.514648438 372.153320312 c 0
 569.19921875 341.577148438 554.73046875 326.192382812 500.077148438 317.452148438 c 0x80
 476.780273438 313.73046875 463.463867188 309.303710938 463.463867188 305.288085938 c 0
 463.463867188 302.615234375 494.448242188 266.077148438 501.256835938 260.724609375 c 0
 506.629882812 256.497070312 509.75390625 252.439453125 548.044921875 199.936523438 c 0
 564.553710938 177.298828125 579.883789062 155.188476562 582.108398438 150.802734375 c 0
 591.528320312 132.233398438 588.374023438 109.661132812 574.408203125 95.732421875 c 0
 569.619140625 90.9541015625 564.041015625 87.310546875 559.41015625 85.9326171875 c 0
 550.790039062 83.373046875 514.833007812 78.6728515625 474.384765625 74.8173828125 c 0
 458.67578125 73.3212890625 433.348632812 69.8720703125 418.104492188 67.1513671875 c 0
 402.856445312 64.4345703125 368.08203125 59.1708984375 340.82421875 55.4580078125 c 0
 313.565429688 51.7470703125 279.7109375 46.8251953125 265.587890625 44.5205078125 c 0
 238.640625 40.12890625 214.297851562 39.390625 189.623046875 42.2177734375 c 0
EndSplineSet
Validated: 33
Ligature2: "'liga' Standard Ligatures in Latin lookup 0-1" k u l e
EndChar

StartChar: Tok.kulupu
Encoding: 287 989471 31
Width: 700
VWidth: -2860
Flags: W
HStem: -7.0918 96.4863<119.977 228.051> 213.436 97.1084<127.536 238.539> 311.238 80.5332<259.458 395.811> 557.975 92.3975<258.612 401.393>
VStem: 251.817 97.6758<112.582 202.089> 374.967 73.999<61.7897 162.432>
LayerCount: 2
Fore
SplineSet
355.94921875 394.25390625 m 0
 361.958007812 395.658203125 373.295898438 399.974609375 381.150390625 403.84375 c 0
 399.149414062 412.716796875 418.43359375 431.02734375 425.819335938 446.25390625 c 0
 430.26953125 455.424804688 430.7109375 457.923828125 430.7109375 473.974609375 c 0
 430.7109375 495.06640625 426.27734375 511.506835938 417.841796875 521.685546875 c 0
 414.854492188 525.288085938 406.34765625 532.732421875 398.9375 538.224609375 c 0
 367.116210938 561.819335938 339.016601562 569.735351562 316.909179688 561.333984375 c 0
 312.048828125 559.484375 304.221679688 557.974609375 299.518554688 557.974609375 c 0
 285.577148438 557.974609375 272.3359375 550.296875 253.423828125 531.251953125 c 0
 236.791992188 514.50390625 227.10546875 498.78125 223.482421875 482.65625 c 0
 219.788085938 466.21875 230.87890625 440.720703125 249.9375 421.8359375 c 0
 271.631835938 400.340820312 293.158203125 391.891601562 326.551757812 391.771484375 c 0
 337.4140625 391.73046875 349.530273438 392.752929688 355.94921875 394.25390625 c 0
301.350585938 311.23828125 m 0
 269.946289062 315.192382812 244.14453125 325.6484375 222.173828125 343.322265625 c 0
 196.213867188 364.208984375 181.11328125 386.559570312 169.663085938 421.053710938 c 0
 163.01171875 441.083007812 161.498046875 454.060546875 163.09375 477.333984375 c 0
 164.7890625 501.984375 168.64453125 517.078125 179.411132812 541.171875 c 0
 187.026367188 558.216796875 190.133789062 562.923828125 205.770507812 581.107421875 c 0
 225.024414062 603.498046875 255.529296875 630.626953125 270.260742188 638.463867188 c 0
 282.380859375 644.91015625 304.205078125 650.372070312 317.842773438 650.372070312 c 0
 325.92578125 650.372070312 331.056640625 651.452148438 337.724609375 654.555664062 c 0
 348.696289062 659.666015625 352.216796875 659.73046875 373.572265625 655.228515625 c 0
 423.4921875 644.701171875 450.510742188 629.525390625 482.74609375 593.904296875 c 0
 500.84375 573.90234375 507.864257812 563.193359375 517.903320312 540.26953125 c 0
 534.3671875 502.681640625 535.68359375 487.13671875 525.040039062 456.166015625 c 0
 509.265625 410.287109375 497.251953125 389.775390625 472.481445312 366.4375 c 0
 460.18359375 354.84765625 431.219726562 334.387695312 417.271484375 327.428710938 c 0
 388.16015625 312.912109375 340.705078125 306.28515625 301.350585938 311.23828125 c 0
183.721679688 90.8984375 m 0
 202.5234375 92.876953125 219.852539062 100.755859375 229.16015625 111.560546875 c 0
 236.59375 120.190429688 249.28515625 145.8046875 251.817382812 157.2890625 c 0
 255.392578125 173.48046875 248.540039062 197.409179688 238.91796875 202.333984375 c 0
 231.063476562 206.361328125 208.450195312 211.9453125 193.96875 213.435546875 c 0
 180.833007812 214.7890625 171.235351562 213.514648438 138.15625 206.015625 c 0
 136.102539062 205.55078125 134.11328125 203.411132812 133.514648438 201.025390625 c 0
 132.9375 198.728515625 128.305664062 192.189453125 123.223632812 186.4921875 c 0
 97.6875 157.873046875 104.083007812 114.80078125 136.314453125 98.30859375 c 0
 144.561523438 94.087890625 159.34765625 89.53515625 165.271484375 89.39453125 c 0
 167.120117188 89.349609375 175.418945312 90.02734375 183.721679688 90.8984375 c 0
182.911132812 -7.091796875 m 0
 154.265625 -3.49609375 117.426757812 9.4345703125 91.849609375 24.8701171875 c 0
 65.23046875 40.931640625 46.927734375 65.35546875 35.1357421875 100.5546875 c 0
 29.0517578125 118.713867188 28.80859375 126.288085938 33.419921875 154.547851562 c 0
 42.9931640625 213.216796875 70.2890625 261.90234375 106.66015625 285.166015625 c 0
 119.37109375 293.296875 137.547851562 301.455078125 155.24609375 306.975585938 c 0
 168.607421875 311.138671875 171.287109375 311.418945312 189.34765625 310.543945312 c 0
 209.452148438 309.56640625 225.359375 305.830078125 239.19140625 298.837890625 c 0
 248.836914062 293.959960938 288.62890625 262.268554688 297.508789062 252.39453125 c 0
 310.12109375 238.3671875 337.1953125 193.35546875 342.625976562 177.38671875 c 0
 349.985351562 155.750976562 351.701171875 143.213867188 349.493164062 127.173828125 c 0
 348.467773438 119.71484375 346.508789062 105.0859375 345.138671875 94.66796875 c 0
 342.229492188 72.560546875 336.637695312 60.0859375 321.30859375 41.501953125 c 0
 310.104492188 27.916015625 297.92578125 18.7724609375 276.905273438 8.16015625 c 0
 254.275390625 -3.2666015625 239.16796875 -6.85546875 211.471679688 -7.392578125 c 0
 198.99609375 -7.630859375 186.14453125 -7.498046875 182.911132812 -7.091796875 c 0
538.229492188 31.298828125 m 0
 553.443359375 34.4921875 566.76953125 39.54296875 575.19140625 45.306640625 c 0
 595.477539062 59.189453125 614.94921875 120.498046875 607.361328125 146.59765625 c 0
 601.848632812 165.556640625 584.423828125 185.685546875 566.639648438 193.625 c 0
 562.859375 195.310546875 553.409179688 197.529296875 545.639648438 198.55078125 c 0
 537.8671875 199.572265625 528.720703125 200.799804688 525.306640625 201.278320312 c 0
 517.1953125 202.413085938 505.044921875 198.2265625 494.930664062 190.805664062 c 0
 477.499023438 178.015625 454.294921875 139.29296875 448.965820312 114.095703125 c 0
 444.806640625 94.42578125 448.764648438 75.021484375 459.759765625 61.134765625 c 0
 466.640625 52.44921875 490.59375 35.4765625 501.08984375 31.849609375 c 0
 511.59375 28.216796875 522.759765625 28.052734375 538.229492188 31.298828125 c 0
492.747070312 -55.28515625 m 0
 475.411132812 -50.73828125 460.15625 -43.30859375 438.305664062 -28.767578125 c 0
 407.680664062 -8.38671875 388.717773438 13.08203125 380.907226562 36.2177734375 c 0
 373.514648438 58.123046875 370.666992188 104.46484375 374.966796875 132.932617188 c 0
 376.43359375 142.63671875 378.477539062 158.87890625 379.505859375 169.029296875 c 0
 380.53515625 179.181640625 382.743164062 191.2734375 384.4140625 195.908203125 c 0
 389.7734375 210.787109375 404.16015625 243.486328125 408.982421875 251.754882812 c 0
 419.297851562 269.439453125 446.012695312 292.688476562 467.833007812 302.97265625 c 0
 485.685546875 311.388671875 498.90234375 311.484375 524.8515625 303.379882812 c 0
 535.905273438 299.931640625 549.748046875 294.958007812 555.610351562 292.333007812 c 0
 571.233398438 285.3359375 618.100585938 256.553710938 624.325195312 250.130859375 c 0
 632.72265625 241.466796875 664.219726562 185.09765625 667.5625 172.745117188 c 0
 670.686523438 161.206054688 670.470703125 132.481445312 667.032226562 102.287109375 c 0
 664.930664062 83.8369140625 644.169921875 20.32421875 635.573242188 6.05078125 c 0
 622.133789062 -16.265625 593.522460938 -45.4140625 578.544921875 -52.041015625 c 0
 562.993164062 -58.9248046875 513.7265625 -60.787109375 492.747070312 -55.28515625 c 0
EndSplineSet
Validated: 33
Ligature2: "'liga' Standard Ligatures in Latin lookup 0-1" k u l u p u
EndChar

StartChar: Tok.kute
Encoding: 288 989472 32
Width: 700
VWidth: -2918
Flags: W
VStem: 278.751 51.3242<293.602 369.596>
LayerCount: 2
Fore
SplineSet
236.703125 204.536132812 m 0
 223.516601562 212.411132812 217.9140625 222.797851562 218.813476562 237.700195312 c 0
 219.793945312 253.969726562 224.166015625 260.935546875 247.80078125 283.897460938 c 0
 275.3125 310.629882812 277.58203125 315.024414062 278.750976562 343.844726562 c 0
 279.485351562 361.905273438 280.141601562 365.856445312 283.081054688 369.780273438 c 0
 293.143554688 383.233398438 308.740234375 386.569335938 321.745117188 378.048828125 c 0
 324.442382812 376.282226562 327.036132812 371.161132812 330.075195312 361.612304688 c 0
 336.688476562 340.806640625 337 328.977539062 331.828125 294.916992188 c 0
 327.504882812 266.442382812 327.135742188 265.163085938 318.76171875 249.557617188 c 0
 306.67578125 227.029296875 301.5859375 220.384765625 290.413085938 212.547851562 c 0
 275.862304688 202.340820312 267.669921875 199.138671875 256.021484375 199.094726562 c 0
 247.517578125 199.063476562 244.379882812 199.948242188 236.703125 204.536132812 c 0
252.736328125 -42.2900390625 m 0
 229.716796875 -34.6748046875 222.706054688 -24.6044921875 219.9140625 4.8505859375 c 0
 218.372070312 21.1513671875 218.533203125 23.0966796875 222.586914062 37.0830078125 c 0
 224.958984375 45.2685546875 229.1796875 56.2509765625 231.96875 61.4833984375 c 0
 244.041015625 84.1279296875 270.903320312 112.133789062 313.217773438 146.184570312 c 0
 341.0703125 168.598632812 346.990234375 174.594726562 383.689453125 217.538085938 c 0
 417.87890625 257.551757812 428.139648438 272.307617188 443.404296875 303.438476562 c 0
 462.685546875 342.76171875 468.236328125 371.584960938 462.797851562 404.178710938 c 0
 457.014648438 438.833984375 445.865234375 465.428710938 430.703125 480.717773438 c 0
 423.748046875 487.735351562 416.727539062 491.997070312 393.70703125 503.194335938 c 0
 360.645507812 519.272460938 353.915039062 521.6171875 340.817382812 521.6171875 c 0
 313.662109375 521.6171875 289.483398438 505.426757812 267.225585938 472.330078125 c 0
 255.611328125 455.055664062 255.208007812 454.067382812 252.524414062 436.219726562 c 0
 249.790039062 418.018554688 246.474609375 412.768554688 234.255859375 407.290039062 c 0
 226.045898438 403.608398438 203.665039062 400.344726562 196.111328125 401.725585938 c 0
 186.889648438 403.41015625 167.427734375 413.448242188 158.9921875 420.872070312 c 0
 154.620117188 424.721679688 149.069335938 431.239257812 146.65625 435.358398438 c 0
 140.494140625 445.872070312 132.6328125 470.180664062 131.528320312 482.139648438 c 0
 129.573242188 503.272460938 140.50390625 530.83203125 157.734375 548.219726562 c 0
 171.392578125 562.00390625 207.263671875 588.551757812 219.975585938 594.283203125 c 0
 225.98046875 596.990234375 239.211914062 603.197265625 249.376953125 608.078125 c 0
 286.639648438 625.967773438 315.685546875 634.833984375 356.71484375 640.842773438 c 0
 386.991210938 645.276367188 395.805664062 645.153320312 421.3828125 639.940429688 c 0
 467.227539062 630.598632812 496.735351562 609.0078125 528.98046875 561.213867188 c 0
 546.517578125 535.220703125 547.905273438 532.158203125 556.84375 499.780273438 c 0
 562.127929688 480.631835938 563.536132812 471.755859375 565.897460938 442.805664062 c 2
 568.697265625 408.509765625 l 1
 563.361328125 368.885742188 l 2
 558.610351562 333.590820312 556.8984375 325.524414062 547.717773438 295.104492188 c 0
 542.05078125 276.323242188 535.255859375 256.666992188 532.620117188 251.426757812 c 0
 529.985351562 246.186523438 525.326171875 235.850585938 522.267578125 228.458007812 c 0
 512.84765625 205.704101562 491.283203125 168.151367188 463.419921875 125.977539062 c 0
 422.206054688 63.609375 401.240234375 35.8623046875 376.295898438 10.6787109375 c 0
 358.65625 -7.1318359375 344.467773438 -16.412109375 311.689453125 -31.5849609375 c 0
 288.064453125 -42.5185546875 285.418945312 -43.359375 272.895507812 -43.9169921875 c 0
 264.651367188 -44.2822265625 256.858398438 -43.6533203125 252.736328125 -42.2900390625 c 0
EndSplineSet
Validated: 33
Ligature2: "'liga' Standard Ligatures in Latin lookup 0-1" k u t e
EndChar

StartChar: Tok.la
Encoding: 289 989473 33
Width: 700
VWidth: -2862
Flags: W
VStem: 349.832 110.882<198.964 418.982>
LayerCount: 2
Fore
SplineSet
252.447265625 -22.515625 m 0
 245.662109375 -16.8076171875 240.692382812 -6.9296875 239.489257812 3.2353515625 c 0
 238.577148438 10.9462890625 239.749023438 14.001953125 264.143554688 67.3798828125 c 0
 295.1171875 135.159179688 296.4296875 137.866210938 315.860351562 173.842773438 c 0
 338.299804688 215.391601562 345.412109375 238.729492188 350.83984375 288.62890625 c 0
 353.352539062 311.693359375 353.509765625 318.262695312 351.831054688 329.876953125 c 0
 350.73046875 337.471679688 349.83203125 347.978515625 349.83203125 353.228515625 c 0
 349.83203125 364.641601562 338.268554688 420.920898438 332.444335938 437.833007812 c 0
 330.174804688 444.43359375 320.8984375 465.98046875 311.831054688 485.711914062 c 0
 297.236328125 517.479492188 293.551757812 523.956054688 279.6953125 542.21484375 c 0
 254.5390625 575.362304688 247.890625 590.268554688 252.299804688 603.62890625 c 0
 254.778320312 611.141601562 264.734375 620.212890625 274.657226562 624.002929688 c 2
 282.31640625 626.928710938 l 1
 300.212890625 620.616210938 l 2
 322.176757812 612.87109375 333.583007812 604.756835938 358.752929688 578.971679688 c 0
 377.63671875 559.6328125 398.411132812 531.017578125 409.170898438 509.528320312 c 0
 428.755859375 470.416992188 439.6796875 427.723632812 455.577148438 328.137695312 c 0
 459.565429688 303.159179688 460.713867188 290.594726562 460.713867188 271.959960938 c 0
 460.713867188 247.927734375 456.865234375 216.397460938 451.1953125 193.9921875 c 0
 447.048828125 177.602539062 425.909179688 123.858398438 417.94140625 109.458984375 c 0
 408.327148438 92.0751953125 381.540039062 50.3662109375 372.434570312 38.5947265625 c 0
 359.1796875 21.4638671875 326.28515625 -9.3115234375 315.392578125 -14.7705078125 c 0
 299.529296875 -22.720703125 283.813476562 -26.9287109375 269.984375 -26.9287109375 c 0
 259.166992188 -26.9287109375 257.061523438 -26.3984375 252.447265625 -22.515625 c 0
EndSplineSet
Validated: 33
Ligature2: "'liga' Standard Ligatures in Latin lookup 0-1" l a
EndChar

StartChar: Tok.lape
Encoding: 290 989474 34
Width: 700
VWidth: -1899
Flags: W
HStem: 245.438 102.323<60.7901 358.127> 257.712 86.707<57.8066 441.46>
LayerCount: 2
Fore
SplineSet
559.743164062 247.258789062 m 0x00
 574.909179688 254.932617188 584.803710938 274.670898438 586.0546875 299.758789062 c 0
 586.708007812 312.860351562 586.35546875 315.598632812 583.40234375 320.270507812 c 0
 576.372070312 331.395507812 554.736328125 337.254882812 540.896484375 331.775390625 c 0
 513.190429688 320.813476562 500.024414062 278.147460938 518.0234375 257.649414062 c 0
 529.624023438 244.436523438 546.068359375 240.340820312 559.743164062 247.258789062 c 0x00
528.106445312 166.252929688 m 0
 507.140625 169.110351562 489.469726562 175.984375 473.8671875 187.356445312 c 0
 463.08984375 195.20703125 457.290039062 204.370117188 453.916015625 218.879882812 c 0
 450.290039062 234.486328125 446.072265625 240.43359375 434.666015625 246.01171875 c 0
 427.075195312 249.727539062 422.060546875 250.676757812 403.20703125 251.983398438 c 0
 390.875 252.836914062 367.766601562 255.096679688 351.859375 257.000976562 c 0
 326.142578125 260.083007812 320.297851562 260.2578125 299.126953125 258.586914062 c 0
 286.029296875 257.55078125 272.583007812 257.157226562 269.247070312 257.711914062 c 0x40
 261.375 259.020507812 193.463867188 254.310546875 174.982421875 251.172851562 c 0
 151.51171875 247.1875 115.2265625 244.756835938 89.30078125 245.4375 c 0
 68.03125 245.995117188 64.03515625 246.555664062 57.8046875 249.850585938 c 0
 39.169921875 259.704101562 35.8505859375 282.659179688 49.201171875 309.346679688 c 0
 62.44921875 335.833007812 82.1162109375 344.442382812 136.958007812 347.760742188 c 0x80
 162.33984375 349.299804688 169.342773438 349.1796875 182.317382812 346.981445312 c 0
 190.756835938 345.549804688 210.020507812 343.205078125 225.124023438 341.76953125 c 0
 249.80859375 339.420898438 255.076171875 339.415039062 277.204101562 341.711914062 c 0
 291.5390625 343.194335938 319.368164062 344.326171875 343.823242188 344.418945312 c 0x40
 387.454101562 344.579101562 400.879882812 346.055664062 420.153320312 352.805664062 c 0
 434.888671875 357.967773438 440.4765625 362.834960938 454.927734375 383.0859375 c 0
 478.6484375 416.333007812 493.438476562 426.997070312 523.581054688 432.581054688 c 0
 542.670898438 436.119140625 555.053710938 435.055664062 575.291992188 428.1484375 c 0
 608.155273438 416.930664062 624.599609375 406.19140625 637.098632812 387.786132812 c 0
 646.501953125 373.942382812 649.669921875 365.739257812 654.557617188 342.583007812 c 0
 660.549804688 314.20703125 660.372070312 295.080078125 653.887695312 269.934570312 c 0
 647.2265625 244.090820312 644.881835938 238.584960938 632.447265625 219.577148438 c 0
 617.643554688 196.954101562 605.8828125 184.709960938 592.063476562 177.553710938 c 0
 573.490234375 167.931640625 548.361328125 163.491210938 528.106445312 166.252929688 c 0
EndSplineSet
Validated: 33
Ligature2: "'liga' Standard Ligatures in Latin lookup 0-1" l a p e
EndChar

StartChar: Tok.laso
Encoding: 291 989475 35
Width: 700
VWidth: -1937
Flags: W
HStem: -30.7363 70.2842<230.774 472.088>
VStem: 120.318 99.1279<55.9664 107.257>
LayerCount: 2
Fore
SplineSet
307.61328125 449.43359375 m 0
 312.719726562 455.077148438 309.90625 465.454101562 296.323242188 491.102539062 c 0
 285.075195312 512.340820312 283.533203125 514.440429688 276.622070312 517.926757812 c 0
 267.971679688 522.288085938 258.315429688 522.783203125 251.424804688 519.217773438 c 0
 247.706054688 517.297851562 245.778320312 514.217773438 242.927734375 505.65234375 c 0
 239.4140625 495.086914062 239.366210938 494.236328125 241.967773438 487.434570312 c 0
 248.598632812 470.067382812 258.715820312 461.639648438 284.879882812 451.682617188 c 0
 301.823242188 445.233398438 303.6484375 445.055664062 307.61328125 449.43359375 c 0
426.920898438 414.020507812 m 0
 436.063476562 418.26171875 456.967773438 436.653320312 467.454101562 449.682617188 c 0
 481.501953125 467.131835938 509.959960938 513.223632812 512.872070312 523.241210938 c 0
 515.189453125 531.208007812 515.107421875 549.15625 512.7421875 551.521484375 c 0
 510.770507812 553.493164062 501.435546875 548.5546875 493.225585938 541.188476562 c 0
 487.97265625 536.479492188 478.682617188 528.254882812 472.578125 522.916992188 c 0
 461.158203125 512.922851562 427.798828125 471.825195312 418.078125 455.766601562 c 0
 411.426757812 444.778320312 406.030273438 429.893554688 404.734375 418.948242188 c 2
 403.770507812 410.82421875 l 1
 411.984375 410.862304688 l 2
 416.502929688 410.881835938 423.22265625 412.303710938 426.920898438 414.020507812 c 0
472.252929688 43.1845703125 m 0
 476.720703125 46.701171875 476.853515625 47.2587890625 476.119140625 59.56640625 c 0
 475.595703125 68.3193359375 474.153320312 74.6708984375 471.518554688 79.8662109375 c 0
 463.814453125 95.0341796875 401.265625 152.928710938 377.452148438 166.924804688 c 0
 370.158203125 171.213867188 368.866210938 171.405273438 349.896484375 170.96484375 c 0
 328.5546875 170.47265625 324.0703125 169.146484375 313.970703125 160.352539062 c 0
 310.983398438 157.750976562 294.727539062 146.362304688 277.849609375 135.048828125 c 0
 237.458984375 107.975585938 219.459960938 90.1474609375 219.446289062 77.2060546875 c 0
 219.443359375 73.4951171875 221.15234375 70.3125 225.489257812 65.978515625 c 0
 234.291015625 57.1767578125 241.635742188 54.3505859375 259.682617188 52.8291015625 c 0
 268.504882812 52.0849609375 287.81640625 50.2939453125 302.598632812 48.8447265625 c 0
 317.384765625 47.3955078125 355.795898438 45.169921875 387.962890625 43.8955078125 c 0
 420.12890625 42.6201171875 446.90234375 41.123046875 447.462890625 40.5625 c 0
 448.0234375 40.001953125 452.788085938 39.5478515625 458.051757812 39.5478515625 c 0
 465.328125 39.5478515625 468.736328125 40.4189453125 472.252929688 43.1845703125 c 0
287.477539062 -33.6279296875 m 0
 286.5546875 -33.2275390625 271.625 -32.0791015625 254.302734375 -31.0810546875 c 0
 211.25390625 -28.6005859375 190.106445312 -24.091796875 159.799804688 -10.9423828125 c 0
 137.298828125 -1.177734375 120.318359375 26.9013671875 120.318359375 54.3466796875 c 0
 120.318359375 74.6025390625 129.109375 98.0595703125 143.444335938 116.061523438 c 0
 158.651367188 135.165039062 208.717773438 178.409179688 268.357421875 223.959960938 c 0
 300.575195312 248.56640625 320.895507812 267.901367188 326.890625 279.653320312 c 0
 329.775390625 285.302734375 330.315429688 289.524414062 330.294921875 306.1796875 c 0
 330.22265625 362.459960938 313.365234375 382.653320312 238.577148438 416.040039062 c 0
 222.123046875 423.385742188 205.391601562 431.311523438 201.396484375 433.653320312 c 0
 192.594726562 438.810546875 180.034179688 456.909179688 177.59375 467.9453125 c 0
 176.673828125 472.104492188 174.75 478.814453125 173.321289062 482.858398438 c 0
 171.888671875 486.901367188 170.719726562 494.284179688 170.719726562 499.264648438 c 0
 170.719726562 511.418945312 178.396484375 549.381835938 182.618164062 558.108398438 c 0
 189.002929688 571.3046875 215.622070312 589.125976562 237.431640625 594.806640625 c 0
 261.033203125 600.956054688 283.211914062 595.44921875 307.048828125 577.532226562 c 0
 319.596679688 568.098632812 343.245117188 537.104492188 352.494140625 517.970703125 c 0
 357.358398438 507.908203125 359.740234375 504.752929688 363.114257812 503.905273438 c 0
 368.838867188 502.469726562 371.8671875 505.368164062 393.0859375 532.626953125 c 0
 425.57421875 574.350585938 449.947265625 596.43359375 486.779296875 617.515625 c 0
 510.814453125 631.272460938 520.983398438 634.653320312 536.118164062 633.908203125 c 0
 556.90234375 632.885742188 571.626953125 622.256835938 575.684570312 605.34765625 c 0
 577.27734375 598.709960938 577.154296875 593.258789062 575.055664062 577.459960938 c 0
 573.620117188 566.663085938 572.0234375 550.790039062 571.514648438 542.190429688 c 0
 569.224609375 503.758789062 551.642578125 462.408203125 518.4609375 417.424804688 c 0
 499.915039062 392.28515625 469.265625 367.956054688 424.48046875 342.827148438 c 0
 403.302734375 330.946289062 393.530273438 321.530273438 389.986328125 309.594726562 c 0
 386.486328125 297.805664062 386.755859375 293.2734375 391.838867188 278.387695312 c 0
 401.842773438 249.099609375 409.22265625 239.337890625 461.907226562 185.700195312 c 0
 522.842773438 123.663085938 548.897460938 91.3330078125 568.010742188 54.04296875 c 0
 578.592773438 33.3955078125 579.73828125 30.2060546875 579.6796875 21.490234375 c 0
 579.6015625 9.5166015625 575.171875 0.4462890625 563.24609375 -12.1669921875 c 0
 552.595703125 -23.4248046875 546.313476562 -26.7099609375 529.2890625 -29.9228515625 c 0
 507.642578125 -34.00390625 493.567382812 -34.7353515625 473.958984375 -32.7939453125 c 0
 443.51171875 -29.779296875 394.767578125 -28.7333984375 378.201171875 -30.736328125 c 0
 362.577148438 -32.623046875 290.455078125 -34.9228515625 287.477539062 -33.6279296875 c 0
EndSplineSet
Validated: 33
Ligature2: "'liga' Standard Ligatures in Latin lookup 0-1" l a s o
EndChar

StartChar: Tok.lawa
Encoding: 292 989476 36
Width: 700
VWidth: -1940
Flags: W
HStem: 386.687 83.2451<443.7 605.863>
VStem: 71.2861 82.2363<184.606 370.353> 377.092 73.9551<102.947 379.256>
LayerCount: 2
Fore
SplineSet
336.524414062 475 m 0
 351.005859375 482.717773438 352.680664062 485.8515625 352.680664062 505.2109375 c 0
 352.680664062 519.180664062 352.11328125 522.322265625 348.12109375 530.408203125 c 0
 337.819335938 551.2890625 326.2734375 558.525390625 300.581054688 560.196289062 c 0
 274.7578125 561.877929688 248.484375 551.391601562 230.344726562 532.166015625 c 0
 211.067382812 511.729492188 204.805664062 488.733398438 216.444335938 481.107421875 c 0
 223.16015625 476.705078125 243.654296875 473.2734375 269.521484375 472.21484375 c 0
 282.919921875 471.66796875 296.90625 470.587890625 300.6015625 469.818359375 c 0
 312.776367188 467.2890625 325.494140625 469.12109375 336.524414062 475 c 0
295.921875 42.5791015625 m 0
 306.83203125 46.28125 316.962890625 53.4345703125 330.125976562 66.720703125 c 0
 350.076171875 86.85546875 355.353515625 97.1845703125 366.099609375 137.126953125 c 0
 374.67578125 169.005859375 377.037109375 184.151367188 377.091796875 207.615234375 c 0
 377.119140625 219.294921875 378.155273438 239.057617188 379.392578125 251.529296875 c 0
 380.776367188 265.499023438 381.135742188 278.080078125 380.325195312 284.291015625 c 0
 379.59765625 289.834960938 378.94140625 301.240234375 378.862304688 309.642578125 c 0
 378.616210938 336.130859375 367.709960938 368.55078125 355.2578125 379.798828125 c 0
 349.854492188 384.6796875 347.075195312 385.6640625 331.588867188 388.176757812 c 0
 321.936523438 389.73828125 303.079101562 391.779296875 289.680664062 392.705078125 c 0
 276.282226562 393.634765625 260.030273438 395.108398438 253.563476562 395.986328125 c 0
 233.0859375 398.76171875 210.155273438 398.099609375 200.567382812 394.455078125 c 0
 182.875976562 387.736328125 171.9453125 374.060546875 162.823242188 347.240234375 c 0
 156.971679688 330.02734375 155.54296875 315.15234375 154.4765625 260.283203125 c 2
 153.522460938 211.078125 l 1
 160.946289062 183.002929688 l 2
 165.03125 167.564453125 169.666015625 148.505859375 171.248046875 140.650390625 c 0
 177.974609375 107.206054688 187.203125 87.8466796875 203.086914062 73.8671875 c 0
 207.533203125 69.953125 220.86328125 61.822265625 232.709960938 55.7998046875 c 0
 263.061523438 40.3642578125 279.358398438 36.95703125 295.921875 42.5791015625 c 0
250.268554688 -32.263671875 m 0
 244.758789062 -31.4267578125 236.06640625 -29.5263671875 230.946289062 -28.0390625 c 0
 213.299804688 -22.916015625 176.672851562 -7.29296875 165.98828125 -0.330078125 c 0
 152.26171875 8.611328125 138.603515625 23.3974609375 130.790039062 37.7666015625 c 0
 127.40625 43.994140625 116.82421875 60.806640625 107.28125 75.12890625 c 0
 97.734375 89.453125 88.0205078125 105.34375 85.6962890625 110.443359375 c 0
 80.3232421875 122.231445312 72.099609375 163.547851562 69.4716796875 191.96484375 c 0
 67.9267578125 208.689453125 67.8994140625 218.232421875 69.369140625 232.283203125 c 0
 70.4248046875 242.407226562 71.2900390625 271.197265625 71.2861328125 296.263671875 c 2
 71.283203125 341.8359375 l 1
 81.126953125 381.942382812 l 2
 90.7587890625 421.201171875 97.7890625 441.01171875 119.206054688 489.228515625 c 0
 131.442382812 516.78515625 157.046875 557.05859375 173.555664062 574.7265625 c 0
 190.942382812 593.333984375 241.34765625 623.879882812 264.20703125 629.66015625 c 2
 278.083984375 633.169921875 l 1
 304.463867188 629.515625 l 2
 336.346679688 625.099609375 339.5625 624.0546875 356.317382812 612.69921875 c 0
 384.666015625 593.490234375 393.741210938 585.6875 404.80859375 571 c 0
 421.536132812 548.8046875 424.259765625 542.204101562 425.88671875 519.875 c 0
 427.370117188 499.520507812 428.495117188 494.4453125 433.79296875 484.1640625 c 0
 440.868164062 470.426757812 441.9375 469.931640625 464.376953125 469.931640625 c 0
 475.37890625 469.931640625 493.958984375 470.748046875 505.666015625 471.75 c 0
 531.146484375 473.926757812 538.669921875 472.876953125 572.073242188 462.497070312 c 0
 599.8203125 453.873046875 610.78515625 447.321289062 621.244140625 433.11328125 c 0
 634.749023438 414.768554688 635.172851562 402.375 622.590820312 393.697265625 c 0
 607.086914062 383.001953125 599.991210938 381.193359375 571.922851562 380.76953125 c 0
 554.76171875 380.509765625 531.430664062 381.7265625 503.499023438 384.33203125 c 0
 474.350585938 387.048828125 459.7109375 387.783203125 456.627929688 386.686523438 c 0
 449.795898438 384.252929688 446.134765625 377.947265625 443.19921875 363.556640625 c 0
 440.672851562 351.177734375 440.720703125 349 444.012695312 324.09375 c 0
 445.9296875 309.59375 447.959960938 290.92578125 448.524414062 282.609375 c 0
 449.091796875 274.29296875 450.22265625 262.953125 451.04296875 257.408203125 c 0
 451.908203125 251.556640625 451.908203125 232.1875 451.046875 211.2109375 c 0
 448.674804688 153.619140625 441.021484375 122.306640625 418.107421875 76.4716796875 c 0
 397.784179688 35.822265625 386.891601562 20.9775390625 365.51171875 4.806640625 c 0
 339.880859375 -14.576171875 322.55859375 -23.185546875 297.555664062 -28.958984375 c 0
 280.025390625 -33.009765625 262.997070312 -34.19921875 250.268554688 -32.263671875 c 0
EndSplineSet
Validated: 33
Ligature2: "'liga' Standard Ligatures in Latin lookup 0-1" l a w a
EndChar

StartChar: Tok.len
Encoding: 293 989477 37
Width: 700
VWidth: -1905
Flags: W
HStem: 157.569 100.467<406.75 461.688> 169.081 88.0703<205.89 268.347> 542.979 95.7881<225.283 483.531>
VStem: 101.305 73.7598<6.95164 164.626> 103.201 61.6465<-17.4537 157.737> 282.624 100.663<46.1553 154.315> 490.491 110.254<-8.84445 142.353> 512.049 89.7998<268.606 515.08>
LayerCount: 2
Fore
SplineSet
362.221679688 255.807617188 m 0x65
 367.765625 256.827148438 393.848632812 257.828125 420.180664062 258.036132812 c 0xa5
 474.10546875 258.463867188 479.694335938 259.397460938 492.131835938 270.040039062 c 0
 508.548828125 284.091796875 510.85546875 296.344726562 512.048828125 375.737304688 c 0
 512.947265625 435.661132812 512.916992188 436.46484375 508.44921875 462.93359375 c 0
 505.971679688 477.627929688 502.444335938 493.654296875 500.612304688 498.551757812 c 0
 493.44140625 517.719726562 472.359375 533.26171875 446.221679688 538.651367188 c 0
 425.208007812 542.982421875 390.772460938 545.046875 373.979492188 542.979492188 c 0
 352.665039062 540.357421875 320.90234375 538.1015625 280.078125 536.317382812 c 0
 246.2265625 534.836914062 244.63671875 534.608398438 235.55859375 529.973632812 c 0
 228.083984375 526.155273438 225.00390625 523.267578125 220.62890625 515.969726562 c 0
 211.284179688 500.391601562 210.54296875 496.703125 203.372070312 430.33984375 c 0
 201.423828125 412.3203125 198.446289062 392.288085938 196.754882812 385.821289062 c 0
 195.0625 379.350585938 193.213867188 366.499023438 192.642578125 357.260742188 c 0
 192.072265625 348.018554688 190.759765625 331.307617188 189.720703125 320.120117188 c 0
 187.973632812 301.3046875 188.073242188 299.291992188 191.026367188 293.272460938 c 0
 200.811523438 273.338867188 244.63671875 260.576171875 315.091796875 257.151367188 c 0
 333.521484375 256.252929688 348.95703125 255.165039062 349.390625 254.727539062 c 0
 350.450195312 253.668945312 350.655273438 253.685546875 362.221679688 255.807617188 c 0x65
521.430664062 -38.44140625 m 0
 513.056640625 -34.6376953125 498.985351562 -21.9228515625 493.7109375 -13.3916015625 c 0
 490.057617188 -7.4775390625 489.99609375 -6.462890625 490.491210938 41.3857421875 c 0
 490.891601562 80.025390625 490.467773438 92.6552734375 488.451171875 102.26953125 c 0
 483.614257812 125.29296875 474.90234375 140.174804688 462.2109375 147.079101562 c 0
 451.051757812 153.153320312 440.114257812 156.317382812 425.959960938 157.569335938 c 0xa6
 416.174804688 158.43359375 412.759765625 158.026367188 406.45703125 155.237304688 c 0
 391.978515625 148.833007812 386.079101562 136.752929688 383.287109375 107.779296875 c 0
 379.219726562 65.5986328125 373.634765625 50.8154296875 359.69921875 45.3193359375 c 0
 352.453125 42.4658203125 325.810546875 37.21875 318.543945312 37.21875 c 0
 309.885742188 37.21875 294.802734375 41.59375 288.841796875 45.8349609375 c 0
 286.3671875 47.595703125 283.567382812 51.478515625 282.624023438 54.4658203125 c 0
 279.934570312 62.9599609375 277.298828125 84.6083984375 275.8125 110.411132812 c 0
 274.749023438 128.844726562 273.65234375 135.850585938 270.825195312 142.239257812 c 0
 265.6640625 153.905273438 259.771484375 161.00390625 251.6640625 165.317382812 c 0
 245.467773438 168.616210938 242.100585938 169.067382812 223.620117188 169.081054688 c 0
 204.318359375 169.100585938 202.014648438 168.758789062 195.110351562 164.893554688 c 0
 184.965820312 159.212890625 180.8984375 151.262695312 176.69140625 128.881835938 c 0
 173.615234375 112.509765625 173.419921875 108.50390625 175.064453125 95.2041015625 c 0x76
 178.061523438 70.9912109375 172.415039062 21.8310546875 164.84765625 6.1943359375 c 0
 157.0546875 -9.9013671875 136.861328125 -24.810546875 125.834960938 -22.6025390625 c 0
 118.462890625 -21.1298828125 111.462890625 -15.47265625 107.241210938 -7.5810546875 c 0
 104.03515625 -1.58203125 103.458007812 2.3037109375 103.201171875 19.5791015625 c 0x6c
 103.037109375 30.6669921875 102.182617188 113.500976562 101.3046875 203.649414062 c 0
 100.422851562 293.801757812 99.158203125 370.046875 98.4912109375 373.08203125 c 0
 97.8251953125 376.114257812 98.1259765625 388.538085938 99.158203125 400.688476562 c 0
 100.193359375 412.83984375 102.203125 437.520507812 103.625 455.540039062 c 0
 107.97265625 510.600585938 112.805664062 534.65625 124.116210938 557.5703125 c 0
 132.380859375 574.311523438 147.802734375 590.790039062 167.14453125 603.545898438 c 0
 192.485351562 620.255859375 198.962890625 622.73046875 238.741210938 630.90625 c 0
 285.139648438 640.446289062 301.409179688 642.52734375 321.059570312 641.447265625 c 0
 329.83984375 640.965820312 354.032226562 639.758789062 374.8203125 638.767578125 c 0
 411.7109375 637.010742188 435.404296875 635.329101562 479.8203125 631.319335938 c 0
 500.751953125 629.4296875 502.62890625 628.934570312 524.930664062 619.452148438 c 0
 546.419921875 610.31640625 549.006835938 608.723632812 558.704101562 598.688476562 c 0
 567.361328125 589.7265625 570.444335938 584.873046875 576.282226562 571.006835938 c 0
 584.567382812 551.322265625 594.834960938 509.465820312 594.920898438 495.018554688 c 0
 594.951171875 489.473632812 595.713867188 481.913085938 596.60546875 478.21875 c 0
 599.729492188 465.298828125 602.078125 366.4375 601.848632812 257.297851562 c 0x75
 601.72265625 196.776367188 601.2265625 141.965820312 600.745117188 135.499023438 c 0x66
 600.266601562 129.032226562 599.1484375 110.059570312 598.266601562 93.3388671875 c 0
 595.946289062 49.3896484375 589.263671875 8.685546875 581.340820312 -9.7236328125 c 0
 574.258789062 -26.1884765625 551.522460938 -41.8046875 534.778320312 -41.7060546875 c 0
 531.346679688 -41.681640625 525.340820312 -40.2158203125 521.430664062 -38.44140625 c 0
EndSplineSet
Validated: 33
Ligature2: "'liga' Standard Ligatures in Latin lookup 0-1" l e n
EndChar

StartChar: Tok.lete
Encoding: 294 989478 38
Width: 700
VWidth: -931
Flags: W
HStem: 245.202 87.8223<123.726 244.243> 259.798 84.1367<466.777 597.244>
LayerCount: 2
Fore
SplineSet
156.07421875 -72.001953125 m 0x40
 144.842773438 -66.7216796875 136.783203125 -59.5439453125 131.79296875 -50.3759765625 c 0
 120.03125 -28.7646484375 125.322265625 -6.8623046875 151.958984375 33.0869140625 c 0
 159.3515625 44.1748046875 167.520507812 56.6474609375 170.111328125 60.806640625 c 0
 172.702148438 64.962890625 182.078125 77.3251953125 190.944335938 88.2802734375 c 0
 199.810546875 99.2314453125 209.288085938 111.327148438 212.005859375 115.159179688 c 0
 214.719726562 118.991210938 225.16796875 133.311523438 235.223632812 146.983398438 c 0
 263.647460938 185.641601562 271.65625 201.364257812 272.12109375 219.448242188 c 0
 272.315429688 226.98828125 271.7890625 228.198242188 266.279296875 232.962890625 c 0
 254.477539062 243.165039062 245.94921875 244.635742188 195.305664062 245.202148438 c 0
 144.825195312 245.766601562 135.15234375 247.188476562 123.166015625 255.794921875 c 0
 111.661132812 264.055664062 107.9453125 272.262695312 107.9453125 289.416992188 c 0
 107.9453125 302.583007812 108.348632812 304.354492188 112.614257812 309.946289062 c 0
 119.016601562 318.340820312 144.17578125 330.624023438 159.877929688 333.024414062 c 0x80
 166.7109375 334.06640625 183.3046875 334.408203125 200.196289062 333.854492188 c 0
 233.083984375 332.770507812 238.306640625 333.854492188 244.534179688 343.045898438 c 0
 250.098632812 351.262695312 248.783203125 359.041992188 239.762695312 371.25390625 c 0
 231.932617188 381.852539062 164.865234375 448.571289062 142.384765625 468.125976562 c 0
 112.655273438 493.983398438 91.580078125 527.967773438 89.1533203125 553.967773438 c 0
 86.4912109375 582.487304688 104.698242188 604.110351562 128.956054688 601.239257812 c 0
 145.252929688 599.307617188 151.510742188 595.021484375 181.599609375 565.162109375 c 0
 197.161132812 549.719726562 214.155273438 531.791992188 219.368164062 525.325195312 c 0
 224.577148438 518.858398438 234.571289062 507.518554688 241.57421875 500.125 c 0
 248.578125 492.735351562 261.8125 477.662109375 270.986328125 466.62890625 c 0
 280.16015625 455.598632812 290.697265625 444.439453125 294.40625 441.828125 c 0
 300.130859375 437.794921875 324.159179688 425.999023438 339.068359375 419.901367188 c 0
 345.350585938 417.331054688 351.595703125 419.526367188 359.969726562 427.247070312 c 0
 367.62890625 434.305664062 390.625 468.953125 396.045898438 481.599609375 c 0
 397.748046875 485.571289062 402.560546875 494.84765625 406.741210938 502.213867188 c 0
 410.920898438 509.579101562 417.86328125 523.462890625 422.166015625 533.067382812 c 0
 431.5078125 553.899414062 458.635742188 598.911132812 471.952148438 615.668945312 c 0
 485.668945312 632.930664062 519.376953125 663.637695312 529.907226562 668.463867188 c 0
 549.776367188 677.575195312 571.592773438 677.114257812 592.145507812 667.154296875 c 0
 609.005859375 658.981445312 613.514648438 649.544921875 608.609375 632.684570312 c 0
 604.819335938 619.641601562 599.583007812 609.721679688 590.07421875 597.564453125 c 0
 585.736328125 592.020507812 579.909179688 582.94921875 577.123046875 577.405273438 c 0
 574.337890625 571.861328125 567.094726562 561.149414062 561.03125 553.602539062 c 0
 552.7734375 543.328125 543.421875 527.284179688 523.827148438 489.76171875 c 0
 509.430664062 462.19921875 495.303710938 436.243164062 492.432617188 432.086914062 c 0
 489.561523438 427.926757812 480.651367188 411.408203125 472.625976562 395.377929688 c 0
 456.397460938 362.948242188 455.251953125 357.489257812 463.817382812 353.401367188 c 0
 467.693359375 351.552734375 471.149414062 351.500976562 482.5859375 353.125 c 0
 490.296875 354.21875 497.987304688 354.68359375 499.67578125 354.153320312 c 0
 503.100585938 353.083984375 537.515625 347.946289062 568.151367188 343.934570312 c 0
 587.0390625 341.459960938 588.700195312 340.9296875 596.872070312 334.756835938 c 0
 607.693359375 326.587890625 611.104492188 319.680664062 611.104492188 305.943359375 c 0
 611.104492188 292.784179688 606.647460938 282.903320312 598.02734375 276.956054688 c 0
 581.463867188 265.532226562 555.327148438 257.952148438 538.866210938 259.797851562 c 0
 533.783203125 260.368164062 521.6875 261.493164062 511.987304688 262.295898438 c 0
 502.283203125 263.098632812 491.954101562 264.288085938 489.028320312 264.94140625 c 0
 482.565429688 266.383789062 466.626953125 261.55078125 466.626953125 258.149414062 c 0
 466.626953125 256.881835938 469.303710938 254.571289062 472.578125 253.01953125 c 0
 482.374023438 248.37109375 509.143554688 218.286132812 526.263671875 192.685546875 c 0
 546.928710938 161.787109375 560.251953125 143.453125 573.397460938 127.819335938 c 0
 581.190429688 118.556640625 586.478515625 109.875 592.592773438 96.3232421875 c 0
 606.250976562 66.0537109375 608.606445312 55.7861328125 608.462890625 27.2041015625 c 0
 608.329101562 0.8310546875 607.112304688 -4.2958984375 598.584960938 -14.4052734375 c 0
 591.817382812 -22.4345703125 580.127929688 -28.7470703125 571.870117188 -28.8369140625 c 0
 568.038085938 -28.8779296875 560.59765625 -27.6123046875 555.330078125 -26.0302734375 c 0
 546.361328125 -23.330078125 544.533203125 -21.7880859375 526.571289062 -1.7529296875 c 0
 512.708007812 13.7177734375 503.069335938 26.6298828125 491.787109375 44.8447265625 c 0
 483.201171875 58.7041015625 470.291015625 78.7412109375 463.099609375 89.3671875 c 0
 455.18359375 101.063476562 445.702148438 118.204101562 439.075195312 132.799804688 c 0
 419.916992188 175.000976562 394.012695312 202.754882812 376.802734375 199.528320312 c 0
 368.473632812 197.965820312 357.01953125 185.583007812 351.301757812 171.956054688 c 0
 348.717773438 165.803710938 345.0703125 158.120117188 343.194335938 154.885742188 c 0
 341.321289062 151.653320312 333.94140625 136.2890625 326.797851562 120.744140625 c 0
 310.788085938 85.9013671875 294.176757812 56.1337890625 267.571289062 14.6064453125 c 0
 256.326171875 -2.9482421875 242.268554688 -25.5556640625 236.334960938 -35.6279296875 c 0
 224.296875 -56.0673828125 214.295898438 -67.4521484375 204.930664062 -71.38671875 c 0
 201.13671875 -72.9794921875 191.712890625 -74.2958984375 181.025390625 -74.7255859375 c 0
 165.815429688 -75.3408203125 162.379882812 -74.9658203125 156.07421875 -72.001953125 c 0x40
EndSplineSet
Validated: 33
Ligature2: "'liga' Standard Ligatures in Latin lookup 0-1" l e t e
EndChar

StartChar: Tok.li
Encoding: 295 989479 39
Width: 700
VWidth: -914
Flags: W
LayerCount: 2
Fore
SplineSet
180.795898438 -36.451171875 m 0
 173.235351562 -33.9736328125 168.26171875 -29.796875 164.084960938 -22.423828125 c 0
 160.752929688 -16.5390625 160.024414062 -12.884765625 159.987304688 -1.828125 c 0
 159.946289062 10.18359375 160.584960938 12.955078125 165.978515625 24.251953125 c 0
 172.94140625 38.8291015625 186.315429688 54.15234375 201.65234375 65.1171875 c 0
 208.40625 69.9462890625 222.5703125 84.6435546875 242.260742188 107.256835938 c 0
 266.302734375 134.86328125 277.151367188 145.818359375 295.181640625 160.703125 c 0
 323.7109375 184.256835938 352.88671875 212.587890625 366.551757812 230.009765625 c 0
 383.197265625 251.232421875 407.560546875 289.475585938 410.291992188 298.669921875 c 0
 413.655273438 309.997070312 413.37109375 322.6640625 409.577148438 330.8125 c 0
 400.721679688 349.830078125 363.87890625 388.665039062 317.022460938 428.375 c 0
 300.919921875 442.0234375 287.53515625 455.178710938 277.541015625 467.189453125 c 0
 269.225585938 477.1796875 253.109375 495.14453125 241.724609375 507.111328125 c 0
 208.600585938 541.923828125 194.641601562 567.041992188 193.127929688 594.5703125 c 0
 192.447265625 606.895507812 192.7890625 608.775390625 197.236328125 617.220703125 c 0
 200.0390625 622.54296875 205.12109375 628.74609375 209.284179688 631.921875 c 0
 215.477539062 636.642578125 217.826171875 637.411132812 226.104492188 637.411132812 c 0
 240.295898438 637.411132812 250.966796875 631.447265625 268.702148438 613.60546875 c 0
 276.775390625 605.48046875 293.407226562 589.668945312 305.661132812 578.4609375 c 0
 317.9140625 567.2578125 346.084960938 540.125 368.260742188 518.16796875 c 0
 390.436523438 496.2109375 429.264648438 457.926757812 454.543945312 433.087890625 c 0
 524.677734375 364.181640625 532.087890625 354.7109375 538.267578125 326.072265625 c 0
 541.904296875 309.228515625 540.072265625 297.326171875 530.805664062 277.546875 c 0
 515.9375 245.821289062 474.823242188 185.015625 450.360351562 158.581054688 c 0
 444.81640625 152.592773438 435.810546875 142.021484375 430.344726562 135.08984375 c 0
 419.294921875 121.08203125 362.973632812 62.314453125 350.8359375 52.12890625 c 0
 346.560546875 48.54296875 335.124023438 40.2919921875 325.423828125 33.794921875 c 0
 315.719726562 27.296875 300.598632812 16.509765625 291.821289062 9.8173828125 c 0
 264.672851562 -10.875 240.196289062 -25.015625 218.7421875 -32.4013671875 c 0
 206.013671875 -36.783203125 187.7578125 -38.7314453125 180.795898438 -36.451171875 c 0
EndSplineSet
Validated: 33
Ligature2: "'liga' Standard Ligatures in Latin lookup 0-1" l i
EndChar

StartChar: Tok.lili
Encoding: 296 989480 40
Width: 700
VWidth: -900
Flags: W
HStem: 226.983 106.855<301.655 388.487>
VStem: 234.238 231.103
LayerCount: 2
Fore
SplineSet
328.017578125 230.44921875 m 0
 310.52734375 237.907226562 303.171875 243.895507812 258.810546875 286.797851562 c 0
 250.614257812 294.723632812 241.73046875 304.567382812 239.068359375 308.676757812 c 0
 234.693359375 315.430664062 234.231445312 317.522460938 234.23828125 330.516601562 c 0
 234.2421875 338.418945312 235.072265625 347.911132812 236.081054688 351.609375 c 0
 239.51953125 364.225585938 248.932617188 370.927734375 263.215820312 370.927734375 c 0
 274.19140625 370.927734375 292.904296875 362.372070312 310.383789062 349.3671875 c 0
 327.942382812 336.303710938 347.516601562 330.048828125 359.000976562 333.838867188 c 0
 362.2109375 334.899414062 370.4140625 340.633789062 377.232421875 346.584960938 c 0
 390.860351562 358.483398438 407.690429688 367.676757812 423.231445312 371.717773438 c 0
 447.232421875 377.958007812 469.086914062 363.168945312 465.340820312 343.21484375 c 0
 464.25390625 337.404296875 457.541015625 328.424804688 413.234375 273.512695312 c 0
 382.49609375 235.412109375 372.546875 228.168945312 349.311523438 226.983398438 c 0
 339.720703125 226.491210938 335.790039062 227.133789062 328.017578125 230.44921875 c 0
EndSplineSet
Validated: 33
Ligature2: "'liga' Standard Ligatures in Latin lookup 0-1" l i l i
EndChar

StartChar: Tok.linja
Encoding: 297 989481 41
Width: 700
VWidth: -915
Flags: W
HStem: 310.181 93.6152<386.978 519.412>
LayerCount: 2
Fore
SplineSet
156.58203125 198.440429688 m 0
 142.677734375 201.520507812 120.833984375 209.833007812 104.642578125 218.204101562 c 0
 87.880859375 226.872070312 70.0087890625 244.249023438 55.4140625 266.072265625 c 0
 37.5888671875 292.715820312 32.9033203125 316.583007812 41.7587890625 335.583007812 c 0
 47.3505859375 347.583984375 55.919921875 357.075195312 66.1943359375 362.643554688 c 0
 88.5166015625 374.747070312 102.329101562 369.743164062 120.478515625 342.979492188 c 0
 130.547851562 328.12890625 133.056640625 325.893554688 151.315429688 315.489257812 c 0
 166.733398438 306.702148438 180.737304688 302.459960938 200.359375 300.627929688 c 0
 217.904296875 298.987304688 239.084960938 305.887695312 256.212890625 318.818359375 c 0
 272.075195312 330.794921875 315.469726562 356.087890625 337.184570312 366.013671875 c 0
 366.103515625 379.234375 414.795898438 396.956054688 427.938476562 399.044921875 c 0
 447.46484375 402.1484375 485.274414062 404.223632812 514.422851562 403.795898438 c 0
 542.709960938 403.37890625 543.161132812 403.313476562 561.46484375 396.939453125 c 0
 598.190429688 384.153320312 619.744140625 371.831054688 638.895507812 352.68359375 c 0
 658.073242188 333.504882812 665.719726562 311.561523438 661.447265625 287.977539062 c 0
 658.216796875 270.16015625 656.323242188 266.537109375 642.771484375 252.270507812 c 0
 627.25 235.928710938 619.1328125 231.079101562 605.498046875 229.995117188 c 0
 584.368164062 228.317382812 573.157226562 235.146484375 537.104492188 271.666992188 c 0
 517.379882812 291.645507812 512.782226562 295.412109375 501.82421875 300.569335938 c 0
 485.736328125 308.137695312 475.591796875 310.180664062 454.129882812 310.180664062 c 0
 433.4375 310.180664062 415.114257812 306.000976562 401.39453125 298.153320312 c 0
 396.243164062 295.204101562 381.768554688 285.092773438 369.224609375 275.680664062 c 0
 337.583984375 251.932617188 301.528320312 228.047851562 287.5859375 221.600585938 c 0
 267.467773438 212.297851562 236.555664062 200.84375 224.88671875 198.369140625 c 0
 210.75 195.375 170.240234375 195.416015625 156.58203125 198.440429688 c 0
EndSplineSet
Validated: 33
Ligature2: "'liga' Standard Ligatures in Latin lookup 0-1" l i n j a
EndChar

StartChar: Tok.lipu
Encoding: 298 989482 42
Width: 700
VWidth: 57
Flags: W
HStem: -4.53613 87.2949<234.736 450.949> 3.55762 79.2051<234.736 450.949> 506.308 97.8115<234.059 449.708>
VStem: 133.253 81.7549<97.0378 219.938> 140.602 82.4824<96.4606 496.71> 457.625 82.1855<266.032 495.611>
LayerCount: 2
Fore
SplineSet
367.930664062 84.3037109375 m 0x74
 405.801757812 85.1279296875 435.579101562 90.0126953125 451.715820312 98.0478515625 c 0
 462.772460938 103.553710938 470.825195312 113.487304688 474.270507812 125.86328125 c 0
 478.403320312 140.7109375 479.28515625 193.282226562 476.047851562 232.01171875 c 0
 474.506835938 250.493164062 472.670898438 273.170898438 471.977539062 282.409179688 c 0
 471.280273438 291.651367188 468.37109375 309.793945312 465.513671875 322.731445312 c 0
 460.780273438 344.182617188 460.0859375 351.350585938 457.625 404.211914062 c 0
 454.340820312 474.848632812 454.053710938 477.834960938 449.96875 484.55859375 c 0
 442.490234375 496.852539062 430.811523438 500.415039062 378.635742188 506.307617188 c 0
 306.041992188 514.502929688 250.547851562 510.901367188 233.21875 496.870117188 c 0
 229.03515625 493.483398438 228.775390625 489.045898438 227.588867188 401.340820312 c 0
 227.19921875 372.50390625 226.362304688 348.075195312 225.729492188 347.049804688 c 0
 225.09765625 346.028320312 223.908203125 329.047851562 223.083984375 309.3125 c 0x6c
 222.260742188 289.581054688 220.4453125 265.309570312 219.05078125 255.370117188 c 0
 217.65625 245.434570312 216.477539062 229.6875 216.4296875 220.376953125 c 0
 216.381835938 211.069335938 215.7421875 198.16015625 215.0078125 191.690429688 c 0
 213.657226562 179.774414062 215.3359375 148.99609375 218.466796875 128.262695312 c 0
 220.650390625 113.811523438 227.415039062 100.317382812 234.506835938 96.263671875 c 0
 238.967773438 93.7138671875 271.178710938 86.05078125 291.276367188 82.7587890625 c 0xb4
 294.047851562 82.3046875 305.009765625 82.3046875 315.635742188 82.7626953125 c 0
 326.262695312 83.2177734375 349.794921875 83.9111328125 367.930664062 84.3037109375 c 0x74
203.075195312 -4.5361328125 m 0xac
 180.810546875 -0.751953125 158.611328125 8.9111328125 148.159179688 19.3623046875 c 0
 131.98828125 35.533203125 129.541015625 52.0927734375 133.252929688 120.291992188 c 0xb4
 137.556640625 199.420898438 139.716796875 254.4609375 140.6015625 307.610351562 c 0
 141.708984375 374.158203125 141.7265625 369.044921875 140.109375 453.76953125 c 0
 138.260742188 550.662109375 138.233398438 548.604492188 141.408203125 554.743164062 c 0
 144.884765625 561.462890625 154.061523438 569.474609375 164.130859375 574.577148438 c 0
 176.760742188 580.975585938 202.744140625 590.745117188 216.500976562 594.26171875 c 0
 248.0390625 602.328125 360.907226562 608.15234375 407.53125 604.119140625 c 0
 426.42578125 602.481445312 484.31640625 592.046875 500.288085938 587.3984375 c 0
 512.39453125 583.874023438 527.795898438 569.43359375 535.294921875 554.572265625 c 0
 542.294921875 540.698242188 542.862304688 532.030273438 539.810546875 485.344726562 c 0
 535.7734375 423.541015625 536.918945312 402.831054688 547.3125 349.610351562 c 0
 556.916992188 300.450195312 560.954101562 276.08984375 562.772460938 256.372070312 c 0
 563.497070312 248.516601562 564.942382812 233.020507812 565.985351562 221.932617188 c 0
 570.028320312 178.8828125 568.548828125 122.305664062 562.625 93.4091796875 c 0
 561.583007812 88.3310546875 560.102539062 73.91015625 559.340820312 61.373046875 c 0
 557.928710938 38.2021484375 556.168945312 31.7158203125 549.684570312 25.8505859375 c 0
 544.701171875 21.341796875 503.439453125 9.6962890625 482.91796875 7.0107421875 c 0
 472.688476562 5.6669921875 446.171875 4.115234375 423.99609375 3.5576171875 c 0x6c
 346.561523438 1.61328125 289.392578125 -0.7958984375 262.715820312 -3.2373046875 c 0
 237.23828125 -5.5673828125 212.32421875 -6.111328125 203.075195312 -4.5361328125 c 0xac
EndSplineSet
Validated: 33
Ligature2: "'liga' Standard Ligatures in Latin lookup 0-1" l i p u
EndChar

